# American flag UV mapping; geometry and normals retained from mp_f_20_minuteman.obj
o Minuteman
v 0.000000000 16.000000000 -1.000000000
v 0.250000000 16.000000000 -0.933012500
v 0.250000000 10.140625000 -0.933012500
v 0.183105469 10.140625000 -0.950936890
v 0.250000000 9.968750000 -0.933012500
v 0.188476562 9.968750000 -0.949497705
v 0.250000000 8.656250000 -0.933012500
v 0.229492188 8.656250000 -0.938507568
v 0.250000000 8.265625000 -0.933012500
v 0.241699219 8.265625000 -0.935236694
v 0.250000000 8.000000000 -0.933012500
v 0.500000000 16.000000000 -0.866025000
v 0.500000000 10.140625000 -0.866025000
v 0.500000000 9.968750000 -0.866025000
v 0.500000000 8.656250000 -0.866025000
v 0.500000000 8.265625000 -0.866025000
v 0.500000000 7.171875000 -0.866025000
v 0.275878906 7.171875000 -0.926078247
v 0.500000000 6.312500000 -0.866025000
v 0.302734375 6.312500000 -0.918882324
v 0.500000000 0.000000000 -0.866025000
v 0.866025000 16.000000000 -0.500000000
v 0.866025000 10.140625000 -0.500000000
v 0.634042358 10.140625000 -0.731982642
v 0.866025000 9.968750000 -0.500000000
v 0.637974268 9.968750000 -0.728050732
v 0.866025000 8.656250000 -0.500000000
v 0.667999756 8.656250000 -0.698025244
v 0.866025000 8.265625000 -0.500000000
v 0.676935913 8.265625000 -0.689089087
v 0.866025000 7.171875000 -0.500000000
v 0.701957153 7.171875000 -0.664067847
v 0.866025000 6.312500000 -0.500000000
v 0.721616699 6.312500000 -0.644408301
v 0.866025000 0.000000000 -0.500000000
v 1.000000000 16.000000000 -0.000000000
v 1.000000000 10.140625000 0.000000000
v 0.915088110 10.140625000 -0.316894531
v 1.000000000 9.968750000 0.000000000
v 0.916527295 9.968750000 -0.311523438
v 1.000000000 8.656250000 0.000000000
v 0.927517432 8.656250000 -0.270507812
v 1.000000000 8.265625000 0.000000000
v 0.930788306 8.265625000 -0.258300781
v 1.000000000 7.171875000 0.000000000
v 0.939946753 7.171875000 -0.224121094
v 1.000000000 6.312500000 0.000000000
v 0.947142676 6.312500000 -0.197265625
v 1.000000000 0.000000000 -0.000000000
v 0.866025000 16.000000000 0.500000000
v 0.866025000 10.140625000 0.500000000
v 0.950936890 10.140625000 0.183105469
v 0.866025000 9.968750000 0.500000000
v 0.949497705 9.968750000 0.188476562
v 0.866025000 8.656250000 0.500000000
v 0.938507568 8.656250000 0.229492188
v 0.866025000 8.265625000 0.500000000
v 0.935236694 8.265625000 0.241699219
v 0.866025000 7.171875000 0.500000000
v 0.926078247 7.171875000 0.275878906
v 0.866025000 6.312500000 0.500000000
v 0.918882324 6.312500000 0.302734375
v 0.866025000 0.000000000 0.500000000
v 0.500000000 16.000000000 0.866025000
v 0.500000000 10.140625000 0.866025000
v 0.731982642 10.140625000 0.634042358
v 0.500000000 9.968750000 0.866025000
v 0.728050732 9.968750000 0.637974268
v 0.500000000 8.656250000 0.866025000
v 0.698025244 8.656250000 0.667999756
v 0.500000000 8.265625000 0.866025000
v 0.689089087 8.265625000 0.676935913
v 0.500000000 7.171875000 0.866025000
v 0.664067847 7.171875000 0.701957153
v 0.500000000 6.312500000 0.866025000
v 0.644408301 6.312500000 0.721616699
v 0.500000000 0.000000000 0.866025000
v 0.250000000 16.000000000 0.933012500
v 0.250000000 10.140625000 0.933012500
v 0.316894531 10.140625000 0.915088110
v 0.250000000 9.968750000 0.933012500
v 0.311523438 9.968750000 0.916527295
v 0.250000000 8.656250000 0.933012500
v 0.270507812 8.656250000 0.927517432
v 0.250000000 8.265625000 0.933012500
v 0.258300781 8.265625000 0.930788306
v 0.250000000 8.000000000 0.933012500
v 0.000000000 16.000000000 1.000000000
v 0.000000000 10.140625000 1.000000000
v 0.000000000 9.968750000 1.000000000
v 0.000000000 8.656250000 1.000000000
v 0.000000000 8.265625000 1.000000000
v 0.000000000 7.171875000 1.000000000
v 0.224121094 7.171875000 0.939946753
v 0.000000000 6.312500000 1.000000000
v 0.197265625 6.312500000 0.947142676
v 0.000000000 0.000000000 1.000000000
v -0.250000000 16.000000000 0.933012500
v -0.250000000 10.140625000 0.933012500
v -0.183105469 10.140625000 0.950936890
v -0.250000000 9.968750000 0.933012500
v -0.188476562 9.968750000 0.949497705
v -0.250000000 8.656250000 0.933012500
v -0.229492188 8.656250000 0.938507568
v -0.250000000 8.265625000 0.933012500
v -0.241699219 8.265625000 0.935236694
v -0.250000000 8.000000000 0.933012500
v -0.500000000 16.000000000 0.866025000
v -0.500000000 10.140625000 0.866025000
v -0.500000000 9.968750000 0.866025000
v -0.500000000 8.656250000 0.866025000
v -0.500000000 8.265625000 0.866025000
v -0.500000000 7.171875000 0.866025000
v -0.275878906 7.171875000 0.926078247
v -0.500000000 6.312500000 0.866025000
v -0.302734375 6.312500000 0.918882324
v -0.500000000 0.000000000 0.866025000
v -0.866025000 16.000000000 0.500000000
v -0.866025000 10.140625000 0.500000000
v -0.634042358 10.140625000 0.731982642
v -0.866025000 9.968750000 0.500000000
v -0.637974268 9.968750000 0.728050732
v -0.866025000 8.656250000 0.500000000
v -0.667999756 8.656250000 0.698025244
v -0.866025000 8.265625000 0.500000000
v -0.676935913 8.265625000 0.689089087
v -0.866025000 7.171875000 0.500000000
v -0.701957153 7.171875000 0.664067847
v -0.866025000 6.312500000 0.500000000
v -0.721616699 6.312500000 0.644408301
v -0.866025000 0.000000000 0.500000000
v -1.000000000 16.000000000 0.000000000
v -1.000000000 10.140625000 0.000000000
v -0.915088110 10.140625000 0.316894531
v -1.000000000 9.968750000 0.000000000
v -0.916527295 9.968750000 0.311523438
v -1.000000000 8.656250000 0.000000000
v -0.927517432 8.656250000 0.270507812
v -1.000000000 8.265625000 0.000000000
v -0.930788306 8.265625000 0.258300781
v -1.000000000 7.171875000 0.000000000
v -0.939946753 7.171875000 0.224121094
v -1.000000000 6.312500000 0.000000000
v -0.947142676 6.312500000 0.197265625
v -1.000000000 0.000000000 0.000000000
v -0.866026000 16.000000000 -0.500000000
v -0.866026000 10.140625000 -0.500000000
v -0.950937256 10.140625000 -0.183105469
v -0.866026000 9.968750000 -0.500000000
v -0.949498082 9.968750000 -0.188476562
v -0.866026000 8.656250000 -0.500000000
v -0.938508027 8.656250000 -0.229492188
v -0.866026000 8.265625000 -0.500000000
v -0.935237178 8.265625000 -0.241699219
v -0.866026000 7.171875000 -0.500000000
v -0.926078799 7.171875000 -0.275878906
v -0.866026000 6.312500000 -0.500000000
v -0.918882930 6.312500000 -0.302734375
v -0.866026000 0.000000000 -0.500000000
v -0.500001000 16.000000000 -0.866025000
v -0.250000500 16.000000000 -0.933012500
v -0.250000500 10.140625000 -0.933012500
v -0.316895165 10.140625000 -0.915088110
v -0.250000500 9.968750000 -0.933012500
v -0.311524061 9.968750000 -0.916527295
v -0.250000500 8.656250000 -0.933012500
v -0.270508354 8.656250000 -0.927517432
v -0.250000500 8.265625000 -0.933012500
v -0.258301298 8.265625000 -0.930788306
v -0.250000500 8.000000000 -0.933012500
v 0.000000000 10.140625000 -1.000000000
v 0.000000000 9.968750000 -1.000000000
v 0.000000000 8.656250000 -1.000000000
v 0.000000000 8.265625000 -1.000000000
v 0.000000000 7.171875000 -1.000000000
v -0.224121542 7.171875000 -0.939946753
v 0.000000000 6.312500000 -1.000000000
v -0.197266020 6.312500000 -0.947142676
v 0.000000000 0.000000000 -1.000000000
v -0.500001000 10.140625000 -0.866025000
v -0.731983642 10.140625000 -0.634042358
v -0.500001000 9.968750000 -0.866025000
v -0.728051732 9.968750000 -0.637974268
v -0.500001000 8.656250000 -0.866025000
v -0.698026244 8.656250000 -0.667999756
v -0.500001000 8.265625000 -0.866025000
v -0.689090087 8.265625000 -0.676935913
v -0.500001000 7.171875000 -0.866025000
v -0.664068847 7.171875000 -0.701957153
v -0.500001000 6.312500000 -0.866025000
v -0.644409301 6.312500000 -0.721616699
v -0.500001000 0.000000000 -0.866025000
v 0.250000000 7.171875000 -0.933012500
v 0.250000000 6.312500000 -0.933012500
v 0.250000000 0.000000000 -0.933012500
v 0.250000000 7.171875000 0.933012500
v 0.250000000 6.312500000 0.933012500
v 0.250000000 0.000000000 0.933012500
v -0.250000000 7.171875000 0.933012500
v -0.250000000 6.312500000 0.933012500
v -0.250000000 0.000000000 0.933012500
v -0.250000500 7.171875000 -0.933012500
v -0.250000500 6.312500000 -0.933012500
v -0.250000500 0.000000000 -0.933012500
vn 0.258800000 0.000000000 -0.965900000
vn 0.707100000 0.000000000 -0.707100000
vn 0.965900000 0.000000000 -0.258800000
vn 0.965900000 0.000000000 0.258800000
vn 0.707100000 0.000000000 0.707100000
vn 0.258800000 0.000000000 0.965900000
vn -0.258800000 0.000000000 0.965900000
vn -0.707100000 0.000000000 0.707100000
vn -0.965900000 0.000000000 0.258800000
vn -0.965900000 0.000000000 -0.258800000
vn 0.000000000 1.000000000 0.000000000
vn -0.258800000 0.000000000 -0.965900000
vn -0.707100000 0.000000000 -0.707100000
vn 0.000000000 -1.000000000 0.000000000
vt 0.000500 0.550000
vt 0.000500 0.508333
vt 0.366211 0.508333
vt 0.000500 0.550000
vt 0.366211 0.508333
vt 0.366211 0.519725
vt 0.366211 0.508333
vt 0.376953 0.508333
vt 0.376953 0.518813
vt 0.366211 0.508333
vt 0.376953 0.518813
vt 0.366211 0.519725
vt 0.376953 0.508333
vt 0.458984 0.508333
vt 0.458984 0.511831
vt 0.376953 0.508333
vt 0.458984 0.511831
vt 0.376953 0.518813
vt 0.458984 0.508333
vt 0.483398 0.508333
vt 0.483398 0.509749
vt 0.458984 0.508333
vt 0.483398 0.509749
vt 0.458984 0.511831
vt 0.483398 0.508333
vt 0.500000 0.508333
vt 0.483398 0.509749
vt 0.000500 0.508333
vt 0.000500 0.466667
vt 0.366211 0.466667
vt 0.000500 0.508333
vt 0.366211 0.466667
vt 0.366211 0.508333
vt 0.366211 0.466667
vt 0.376953 0.466667
vt 0.376953 0.508333
vt 0.366211 0.466667
vt 0.376953 0.508333
vt 0.366211 0.508333
vt 0.376953 0.466667
vt 0.458984 0.466667
vt 0.458984 0.508333
vt 0.376953 0.466667
vt 0.458984 0.508333
vt 0.376953 0.508333
vt 0.458984 0.466667
vt 0.483398 0.466667
vt 0.483398 0.508333
vt 0.458984 0.466667
vt 0.483398 0.508333
vt 0.458984 0.508333
vt 0.483398 0.466667
vt 0.551758 0.466667
vt 0.551758 0.503920
vt 0.483398 0.466667
vt 0.551758 0.503920
vt 0.500000 0.508333
vt 0.483398 0.466667
vt 0.500000 0.508333
vt 0.483398 0.508333
vt 0.551758 0.466667
vt 0.605469 0.466667
vt 0.605469 0.499347
vt 0.551758 0.466667
vt 0.605469 0.499347
vt 0.551758 0.503920
vt 0.605469 0.466667
vt 0.999500 0.466667
vt 0.605469 0.499347
vt 0.000500 0.466667
vt 0.000500 0.383333
vt 0.366211 0.383333
vt 0.000500 0.466667
vt 0.366211 0.383333
vt 0.366211 0.436391
vt 0.366211 0.383333
vt 0.376953 0.383333
vt 0.376953 0.435480
vt 0.366211 0.383333
vt 0.376953 0.435480
vt 0.366211 0.436391
vt 0.376953 0.383333
vt 0.458984 0.383333
vt 0.458984 0.428498
vt 0.376953 0.383333
vt 0.458984 0.428498
vt 0.376953 0.435480
vt 0.458984 0.383333
vt 0.483398 0.383333
vt 0.483398 0.426416
vt 0.458984 0.383333
vt 0.483398 0.426416
vt 0.458984 0.428498
vt 0.483398 0.383333
vt 0.551758 0.383333
vt 0.551758 0.420587
vt 0.483398 0.383333
vt 0.551758 0.420587
vt 0.483398 0.426416
vt 0.551758 0.383333
vt 0.605469 0.383333
vt 0.605469 0.416014
vt 0.551758 0.383333
vt 0.605469 0.416014
vt 0.551758 0.420587
vt 0.605469 0.383333
vt 0.999500 0.383333
vt 0.605469 0.416014
vt 0.000500 0.383333
vt 0.000500 0.300000
vt 0.366211 0.300000
vt 0.000500 0.383333
vt 0.366211 0.300000
vt 0.366211 0.353058
vt 0.366211 0.300000
vt 0.376953 0.300000
vt 0.376953 0.352146
vt 0.366211 0.300000
vt 0.376953 0.352146
vt 0.366211 0.353058
vt 0.376953 0.300000
vt 0.458984 0.300000
vt 0.458984 0.345164
vt 0.376953 0.300000
vt 0.458984 0.345164
vt 0.376953 0.352146
vt 0.458984 0.300000
vt 0.483398 0.300000
vt 0.483398 0.343083
vt 0.458984 0.300000
vt 0.483398 0.343083
vt 0.458984 0.345164
vt 0.483398 0.300000
vt 0.551758 0.300000
vt 0.551758 0.337253
vt 0.483398 0.300000
vt 0.551758 0.337253
vt 0.483398 0.343083
vt 0.551758 0.300000
vt 0.605469 0.300000
vt 0.605469 0.332681
vt 0.551758 0.300000
vt 0.605469 0.332681
vt 0.551758 0.337253
vt 0.605469 0.300000
vt 0.999500 0.300000
vt 0.605469 0.332681
vt 0.000500 0.300000
vt 0.000500 0.216667
vt 0.366211 0.216667
vt 0.000500 0.300000
vt 0.366211 0.216667
vt 0.366211 0.269725
vt 0.366211 0.216667
vt 0.376953 0.216667
vt 0.376953 0.268813
vt 0.366211 0.216667
vt 0.376953 0.268813
vt 0.366211 0.269725
vt 0.376953 0.216667
vt 0.458984 0.216667
vt 0.458984 0.261831
vt 0.376953 0.216667
vt 0.458984 0.261831
vt 0.376953 0.268813
vt 0.458984 0.216667
vt 0.483398 0.216667
vt 0.483398 0.259749
vt 0.458984 0.216667
vt 0.483398 0.259749
vt 0.458984 0.261831
vt 0.483398 0.216667
vt 0.551758 0.216667
vt 0.551758 0.253920
vt 0.483398 0.216667
vt 0.551758 0.253920
vt 0.483398 0.259749
vt 0.551758 0.216667
vt 0.605469 0.216667
vt 0.605469 0.249347
vt 0.551758 0.216667
vt 0.605469 0.249347
vt 0.551758 0.253920
vt 0.605469 0.216667
vt 0.999500 0.216667
vt 0.605469 0.249347
vt 0.000500 0.216667
vt 0.000500 0.133333
vt 0.366211 0.133333
vt 0.000500 0.216667
vt 0.366211 0.133333
vt 0.366211 0.186391
vt 0.366211 0.133333
vt 0.376953 0.133333
vt 0.376953 0.185480
vt 0.366211 0.133333
vt 0.376953 0.185480
vt 0.366211 0.186391
vt 0.376953 0.133333
vt 0.458984 0.133333
vt 0.458984 0.178498
vt 0.376953 0.133333
vt 0.458984 0.178498
vt 0.376953 0.185480
vt 0.458984 0.133333
vt 0.483398 0.133333
vt 0.483398 0.176416
vt 0.458984 0.133333
vt 0.483398 0.176416
vt 0.458984 0.178498
vt 0.483398 0.133333
vt 0.551758 0.133333
vt 0.551758 0.170587
vt 0.483398 0.133333
vt 0.551758 0.170587
vt 0.483398 0.176416
vt 0.551758 0.133333
vt 0.605469 0.133333
vt 0.605469 0.166014
vt 0.551758 0.133333
vt 0.605469 0.166014
vt 0.551758 0.170587
vt 0.605469 0.133333
vt 0.999500 0.133333
vt 0.605469 0.166014
vt 0.000500 0.133333
vt 0.000500 0.091667
vt 0.366211 0.091667
vt 0.000500 0.133333
vt 0.366211 0.091667
vt 0.366211 0.103058
vt 0.366211 0.091667
vt 0.376953 0.091667
vt 0.376953 0.102146
vt 0.366211 0.091667
vt 0.376953 0.102146
vt 0.366211 0.103058
vt 0.376953 0.091667
vt 0.458984 0.091667
vt 0.458984 0.095164
vt 0.376953 0.091667
vt 0.458984 0.095164
vt 0.376953 0.102146
vt 0.458984 0.091667
vt 0.483398 0.091667
vt 0.483398 0.093083
vt 0.458984 0.091667
vt 0.483398 0.093083
vt 0.458984 0.095164
vt 0.483398 0.091667
vt 0.500000 0.091667
vt 0.483398 0.093083
vt 0.000500 0.091667
vt 0.000500 0.050000
vt 0.366211 0.050000
vt 0.000500 0.091667
vt 0.366211 0.050000
vt 0.366211 0.091667
vt 0.366211 0.050000
vt 0.376953 0.050000
vt 0.376953 0.091667
vt 0.366211 0.050000
vt 0.376953 0.091667
vt 0.366211 0.091667
vt 0.376953 0.050000
vt 0.458984 0.050000
vt 0.458984 0.091667
vt 0.376953 0.050000
vt 0.458984 0.091667
vt 0.376953 0.091667
vt 0.458984 0.050000
vt 0.483398 0.050000
vt 0.483398 0.091667
vt 0.458984 0.050000
vt 0.483398 0.091667
vt 0.458984 0.091667
vt 0.483398 0.050000
vt 0.551758 0.050000
vt 0.551758 0.087253
vt 0.483398 0.050000
vt 0.551758 0.087253
vt 0.500000 0.091667
vt 0.483398 0.050000
vt 0.500000 0.091667
vt 0.483398 0.091667
vt 0.551758 0.050000
vt 0.605469 0.050000
vt 0.605469 0.082681
vt 0.551758 0.050000
vt 0.605469 0.082681
vt 0.551758 0.087253
vt 0.605469 0.050000
vt 0.999500 0.050000
vt 0.605469 0.082681
vt 0.000500 0.050000
vt 0.000500 0.008333
vt 0.366211 0.008333
vt 0.000500 0.050000
vt 0.366211 0.008333
vt 0.366211 0.019725
vt 0.366211 0.008333
vt 0.376953 0.008333
vt 0.376953 0.018813
vt 0.366211 0.008333
vt 0.376953 0.018813
vt 0.366211 0.019725
vt 0.376953 0.008333
vt 0.458984 0.008333
vt 0.458984 0.011831
vt 0.376953 0.008333
vt 0.458984 0.011831
vt 0.376953 0.018813
vt 0.458984 0.008333
vt 0.483398 0.008333
vt 0.483398 0.009749
vt 0.458984 0.008333
vt 0.483398 0.009749
vt 0.458984 0.011831
vt 0.483398 0.008333
vt 0.500000 0.008333
vt 0.483398 0.009749
vt 0.000500 0.008333
vt 0.000500 -0.033333
vt 0.366211 -0.033333
vt 0.000500 0.008333
vt 0.366211 -0.033333
vt 0.366211 0.008333
vt 0.366211 -0.033333
vt 0.376953 -0.033333
vt 0.376953 0.008333
vt 0.366211 -0.033333
vt 0.376953 0.008333
vt 0.366211 0.008333
vt 0.376953 -0.033333
vt 0.458984 -0.033333
vt 0.458984 0.008333
vt 0.376953 -0.033333
vt 0.458984 0.008333
vt 0.376953 0.008333
vt 0.458984 -0.033333
vt 0.483398 -0.033333
vt 0.483398 0.008333
vt 0.458984 -0.033333
vt 0.483398 0.008333
vt 0.458984 0.008333
vt 0.483398 -0.033333
vt 0.551758 -0.033333
vt 0.551758 0.003920
vt 0.483398 -0.033333
vt 0.551758 0.003920
vt 0.500000 0.008333
vt 0.483398 -0.033333
vt 0.500000 0.008333
vt 0.483398 0.008333
vt 0.551758 0.966667
vt 0.605469 0.966667
vt 0.605469 0.999347
vt 0.551758 -0.033333
vt 0.605469 -0.000653
vt 0.551758 0.003920
vt 0.605469 0.966667
vt 0.999500 0.966667
vt 0.605469 0.999347
vt 0.000500 0.966667
vt 0.000500 0.883333
vt 0.366211 0.883333
vt 0.000500 0.966667
vt 0.366211 0.883333
vt 0.366211 0.936391
vt 0.366211 0.883333
vt 0.376953 0.883333
vt 0.376953 0.935480
vt 0.366211 0.883333
vt 0.376953 0.935480
vt 0.366211 0.936391
vt 0.376953 0.883333
vt 0.458984 0.883333
vt 0.458984 0.928498
vt 0.376953 0.883333
vt 0.458984 0.928498
vt 0.376953 0.935480
vt 0.458984 0.883333
vt 0.483398 0.883333
vt 0.483398 0.926416
vt 0.458984 0.883333
vt 0.483398 0.926416
vt 0.458984 0.928498
vt 0.483398 0.883333
vt 0.551758 0.883333
vt 0.551758 0.920587
vt 0.483398 0.883333
vt 0.551758 0.920587
vt 0.483398 0.926416
vt 0.551758 0.883333
vt 0.605469 0.883333
vt 0.605469 0.916014
vt 0.551758 0.883333
vt 0.605469 0.916014
vt 0.551758 0.920587
vt 0.605469 0.883333
vt 0.999500 0.883333
vt 0.605469 0.916014
vt 0.000500 0.883333
vt 0.000500 0.800000
vt 0.366211 0.800000
vt 0.000500 0.883333
vt 0.366211 0.800000
vt 0.366211 0.853058
vt 0.366211 0.800000
vt 0.376953 0.800000
vt 0.376953 0.852146
vt 0.366211 0.800000
vt 0.376953 0.852146
vt 0.366211 0.853058
vt 0.376953 0.800000
vt 0.458984 0.800000
vt 0.458984 0.845164
vt 0.376953 0.800000
vt 0.458984 0.845164
vt 0.376953 0.852146
vt 0.458984 0.800000
vt 0.483398 0.800000
vt 0.483398 0.843083
vt 0.458984 0.800000
vt 0.483398 0.843083
vt 0.458984 0.845164
vt 0.483398 0.800000
vt 0.551758 0.800000
vt 0.551758 0.837253
vt 0.483398 0.800000
vt 0.551758 0.837253
vt 0.483398 0.843083
vt 0.551758 0.800000
vt 0.605469 0.800000
vt 0.605469 0.832681
vt 0.551758 0.800000
vt 0.605469 0.832681
vt 0.551758 0.837253
vt 0.605469 0.800000
vt 0.999500 0.800000
vt 0.605469 0.832681
vt 0.000500 0.800000
vt 0.000500 0.716667
vt 0.366211 0.716667
vt 0.000500 0.800000
vt 0.366211 0.716667
vt 0.366211 0.769725
vt 0.366211 0.716667
vt 0.376953 0.716667
vt 0.376953 0.768813
vt 0.366211 0.716667
vt 0.376953 0.768813
vt 0.366211 0.769725
vt 0.376953 0.716667
vt 0.458984 0.716667
vt 0.458984 0.761831
vt 0.376953 0.716667
vt 0.458984 0.761831
vt 0.376953 0.768813
vt 0.458984 0.716667
vt 0.483398 0.716667
vt 0.483398 0.759749
vt 0.458984 0.716667
vt 0.483398 0.759749
vt 0.458984 0.761831
vt 0.483398 0.716667
vt 0.551758 0.716667
vt 0.551758 0.753920
vt 0.483398 0.716667
vt 0.551758 0.753920
vt 0.483398 0.759749
vt 0.551758 0.716667
vt 0.605469 0.716667
vt 0.605469 0.749347
vt 0.551758 0.716667
vt 0.605469 0.749347
vt 0.551758 0.753920
vt 0.605469 0.716667
vt 0.999500 0.716667
vt 0.605469 0.749347
vt 0.000500 -0.283333
vt 0.000500 0.216667
vt 0.000500 0.383333
vt 0.000500 0.633334
vt 0.000500 0.591667
vt 0.366211 0.591667
vt 0.000500 0.633334
vt 0.366211 0.591667
vt 0.366211 0.603058
vt 0.366211 0.591667
vt 0.376953 0.591667
vt 0.376953 0.602146
vt 0.366211 0.591667
vt 0.376953 0.602146
vt 0.366211 0.603058
vt 0.376953 0.591667
vt 0.458984 0.591667
vt 0.458984 0.595164
vt 0.376953 0.591667
vt 0.458984 0.595164
vt 0.376953 0.602146
vt 0.458984 0.591667
vt 0.483398 0.591667
vt 0.483398 0.593083
vt 0.458984 0.591667
vt 0.483398 0.593083
vt 0.458984 0.595164
vt 0.483398 0.591667
vt 0.500000 0.591667
vt 0.483398 0.593083
vt 0.000500 0.591667
vt 0.000500 0.550000
vt 0.366211 0.550000
vt 0.000500 0.591667
vt 0.366211 0.550000
vt 0.366211 0.591667
vt 0.366211 0.550000
vt 0.376953 0.550000
vt 0.376953 0.591667
vt 0.366211 0.550000
vt 0.376953 0.591667
vt 0.366211 0.591667
vt 0.376953 0.550000
vt 0.458984 0.550000
vt 0.458984 0.591667
vt 0.376953 0.550000
vt 0.458984 0.591667
vt 0.376953 0.591667
vt 0.458984 0.550000
vt 0.483398 0.550000
vt 0.483398 0.591667
vt 0.458984 0.550000
vt 0.483398 0.591667
vt 0.458984 0.591667
vt 0.483398 0.550000
vt 0.551758 0.550000
vt 0.551758 0.587253
vt 0.483398 0.550000
vt 0.551758 0.587253
vt 0.500000 0.591667
vt 0.483398 0.550000
vt 0.500000 0.591667
vt 0.483398 0.591667
vt 0.551758 0.550000
vt 0.605469 0.550000
vt 0.605469 0.582681
vt 0.551758 0.550000
vt 0.605469 0.582681
vt 0.551758 0.587253
vt 0.605469 0.550000
vt 0.999500 0.550000
vt 0.605469 0.582681
vt 0.000500 0.716667
vt 0.000500 0.633334
vt 0.366211 0.633334
vt 0.000500 0.716667
vt 0.366211 0.633334
vt 0.366211 0.686392
vt 0.366211 0.633334
vt 0.376953 0.633334
vt 0.376953 0.685480
vt 0.366211 0.633334
vt 0.376953 0.685480
vt 0.366211 0.686392
vt 0.376953 0.633334
vt 0.458984 0.633334
vt 0.458984 0.678498
vt 0.376953 0.633334
vt 0.458984 0.678498
vt 0.376953 0.685480
vt 0.458984 0.633334
vt 0.483398 0.633334
vt 0.483398 0.676416
vt 0.458984 0.633334
vt 0.483398 0.676416
vt 0.458984 0.678498
vt 0.483398 0.633334
vt 0.551758 0.633334
vt 0.551758 0.670587
vt 0.483398 0.633334
vt 0.551758 0.670587
vt 0.483398 0.676416
vt 0.551758 0.633334
vt 0.605469 0.633334
vt 0.605469 0.666014
vt 0.551758 0.633334
vt 0.605469 0.666014
vt 0.551758 0.670587
vt 0.605469 0.633334
vt 0.999500 0.633334
vt 0.605469 0.666014
vt 0.999500 0.300000
vt 0.999500 0.800000
vt 0.999500 0.633334
vt 0.366211 0.550000
vt 0.000500 0.550000
vt 0.366211 0.519725
vt 0.376953 0.550000
vt 0.366211 0.550000
vt 0.366211 0.519725
vt 0.376953 0.550000
vt 0.366211 0.519725
vt 0.376953 0.518813
vt 0.458984 0.550000
vt 0.376953 0.550000
vt 0.376953 0.518813
vt 0.458984 0.550000
vt 0.376953 0.518813
vt 0.458984 0.511831
vt 0.483398 0.550000
vt 0.458984 0.550000
vt 0.458984 0.511831
vt 0.483398 0.550000
vt 0.458984 0.511831
vt 0.483398 0.509749
vt 0.551758 0.550000
vt 0.483398 0.550000
vt 0.483398 0.509749
vt 0.551758 0.550000
vt 0.483398 0.509749
vt 0.500000 0.508333
vt 0.551758 0.550000
vt 0.500000 0.508333
vt 0.551758 0.508333
vt 0.605469 0.550000
vt 0.551758 0.550000
vt 0.551758 0.508333
vt 0.605469 0.550000
vt 0.551758 0.508333
vt 0.605469 0.508333
vt 0.999500 0.550000
vt 0.605469 0.550000
vt 0.605469 0.508333
vt 0.999500 0.550000
vt 0.605469 0.508333
vt 0.999500 0.508333
vt 0.500000 0.508333
vt 0.551758 0.503920
vt 0.551758 0.508333
vt 0.551758 0.503920
vt 0.605469 0.499347
vt 0.605469 0.508333
vt 0.551758 0.503920
vt 0.605469 0.508333
vt 0.551758 0.508333
vt 0.605469 0.499347
vt 0.999500 0.466667
vt 0.999500 0.508333
vt 0.605469 0.499347
vt 0.999500 0.508333
vt 0.605469 0.508333
vt 0.366211 0.466667
vt 0.000500 0.466667
vt 0.366211 0.436391
vt 0.376953 0.466667
vt 0.366211 0.466667
vt 0.366211 0.436391
vt 0.376953 0.466667
vt 0.366211 0.436391
vt 0.376953 0.435480
vt 0.458984 0.466667
vt 0.376953 0.466667
vt 0.376953 0.435480
vt 0.458984 0.466667
vt 0.376953 0.435480
vt 0.458984 0.428498
vt 0.483398 0.466667
vt 0.458984 0.466667
vt 0.458984 0.428498
vt 0.483398 0.466667
vt 0.458984 0.428498
vt 0.483398 0.426416
vt 0.551758 0.466667
vt 0.483398 0.466667
vt 0.483398 0.426416
vt 0.551758 0.466667
vt 0.483398 0.426416
vt 0.551758 0.420587
vt 0.605469 0.466667
vt 0.551758 0.466667
vt 0.551758 0.420587
vt 0.605469 0.466667
vt 0.551758 0.420587
vt 0.605469 0.416014
vt 0.999500 0.466667
vt 0.605469 0.466667
vt 0.605469 0.416014
vt 0.999500 0.466667
vt 0.605469 0.416014
vt 0.999500 0.383333
vt 0.366211 0.383333
vt 0.000500 0.383333
vt 0.366211 0.353058
vt 0.376953 0.383333
vt 0.366211 0.383333
vt 0.366211 0.353058
vt 0.376953 0.383333
vt 0.366211 0.353058
vt 0.376953 0.352146
vt 0.458984 0.383333
vt 0.376953 0.383333
vt 0.376953 0.352146
vt 0.458984 0.383333
vt 0.376953 0.352146
vt 0.458984 0.345164
vt 0.483398 0.383333
vt 0.458984 0.383333
vt 0.458984 0.345164
vt 0.483398 0.383333
vt 0.458984 0.345164
vt 0.483398 0.343083
vt 0.551758 0.383333
vt 0.483398 0.383333
vt 0.483398 0.343083
vt 0.551758 0.383333
vt 0.483398 0.343083
vt 0.551758 0.337253
vt 0.605469 0.383333
vt 0.551758 0.383333
vt 0.551758 0.337253
vt 0.605469 0.383333
vt 0.551758 0.337253
vt 0.605469 0.332681
vt 0.999500 0.383333
vt 0.605469 0.383333
vt 0.605469 0.332681
vt 0.999500 0.383333
vt 0.605469 0.332681
vt 0.999500 0.300000
vt 0.366211 0.300000
vt 0.000500 0.300000
vt 0.366211 0.269725
vt 0.376953 0.300000
vt 0.366211 0.300000
vt 0.366211 0.269725
vt 0.376953 0.300000
vt 0.366211 0.269725
vt 0.376953 0.268813
vt 0.458984 0.300000
vt 0.376953 0.300000
vt 0.376953 0.268813
vt 0.458984 0.300000
vt 0.376953 0.268813
vt 0.458984 0.261831
vt 0.483398 0.300000
vt 0.458984 0.300000
vt 0.458984 0.261831
vt 0.483398 0.300000
vt 0.458984 0.261831
vt 0.483398 0.259749
vt 0.551758 0.300000
vt 0.483398 0.300000
vt 0.483398 0.259749
vt 0.551758 0.300000
vt 0.483398 0.259749
vt 0.551758 0.253920
vt 0.605469 0.300000
vt 0.551758 0.300000
vt 0.551758 0.253920
vt 0.605469 0.300000
vt 0.551758 0.253920
vt 0.605469 0.249347
vt 0.999500 0.300000
vt 0.605469 0.300000
vt 0.605469 0.249347
vt 0.999500 0.300000
vt 0.605469 0.249347
vt 0.999500 0.216667
vt 0.366211 0.216667
vt 0.000500 0.216667
vt 0.366211 0.186391
vt 0.376953 0.216667
vt 0.366211 0.216667
vt 0.366211 0.186391
vt 0.376953 0.216667
vt 0.366211 0.186391
vt 0.376953 0.185480
vt 0.458984 0.216667
vt 0.376953 0.216667
vt 0.376953 0.185480
vt 0.458984 0.216667
vt 0.376953 0.185480
vt 0.458984 0.178498
vt 0.483398 0.216667
vt 0.458984 0.216667
vt 0.458984 0.178498
vt 0.483398 0.216667
vt 0.458984 0.178498
vt 0.483398 0.176416
vt 0.551758 0.216667
vt 0.483398 0.216667
vt 0.483398 0.176416
vt 0.551758 0.216667
vt 0.483398 0.176416
vt 0.551758 0.170587
vt 0.605469 0.216667
vt 0.551758 0.216667
vt 0.551758 0.170587
vt 0.605469 0.216667
vt 0.551758 0.170587
vt 0.605469 0.166014
vt 0.999500 0.216667
vt 0.605469 0.216667
vt 0.605469 0.166014
vt 0.999500 0.216667
vt 0.605469 0.166014
vt 0.999500 0.133333
vt 0.366211 0.133333
vt 0.000500 0.133333
vt 0.366211 0.103058
vt 0.376953 0.133333
vt 0.366211 0.133333
vt 0.366211 0.103058
vt 0.376953 0.133333
vt 0.366211 0.103058
vt 0.376953 0.102146
vt 0.458984 0.133333
vt 0.376953 0.133333
vt 0.376953 0.102146
vt 0.458984 0.133333
vt 0.376953 0.102146
vt 0.458984 0.095164
vt 0.483398 0.133333
vt 0.458984 0.133333
vt 0.458984 0.095164
vt 0.483398 0.133333
vt 0.458984 0.095164
vt 0.483398 0.093083
vt 0.551758 0.133333
vt 0.483398 0.133333
vt 0.483398 0.093083
vt 0.551758 0.133333
vt 0.483398 0.093083
vt 0.500000 0.091667
vt 0.551758 0.133333
vt 0.500000 0.091667
vt 0.551758 0.091667
vt 0.605469 0.133333
vt 0.551758 0.133333
vt 0.551758 0.091667
vt 0.605469 0.133333
vt 0.551758 0.091667
vt 0.605469 0.091667
vt 0.999500 0.133333
vt 0.605469 0.133333
vt 0.605469 0.091667
vt 0.999500 0.133333
vt 0.605469 0.091667
vt 0.999500 0.091667
vt 0.500000 0.091667
vt 0.551758 0.087253
vt 0.551758 0.091667
vt 0.551758 0.087253
vt 0.605469 0.082681
vt 0.605469 0.091667
vt 0.551758 0.087253
vt 0.605469 0.091667
vt 0.551758 0.091667
vt 0.605469 0.082681
vt 0.999500 0.050000
vt 0.999500 0.091667
vt 0.605469 0.082681
vt 0.999500 0.091667
vt 0.605469 0.091667
vt 0.366211 0.050000
vt 0.000500 0.050000
vt 0.366211 0.019725
vt 0.376953 0.050000
vt 0.366211 0.050000
vt 0.366211 0.019725
vt 0.376953 0.050000
vt 0.366211 0.019725
vt 0.376953 0.018813
vt 0.458984 0.050000
vt 0.376953 0.050000
vt 0.376953 0.018813
vt 0.458984 0.050000
vt 0.376953 0.018813
vt 0.458984 0.011831
vt 0.483398 0.050000
vt 0.458984 0.050000
vt 0.458984 0.011831
vt 0.483398 0.050000
vt 0.458984 0.011831
vt 0.483398 0.009749
vt 0.551758 0.050000
vt 0.483398 0.050000
vt 0.483398 0.009749
vt 0.551758 0.050000
vt 0.483398 0.009749
vt 0.500000 0.008333
vt 0.551758 0.050000
vt 0.500000 0.008333
vt 0.551758 0.008333
vt 0.605469 0.050000
vt 0.551758 0.050000
vt 0.551758 0.008333
vt 0.605469 0.050000
vt 0.551758 0.008333
vt 0.605469 0.008333
vt 0.999500 0.050000
vt 0.605469 0.050000
vt 0.605469 0.008333
vt 0.999500 0.050000
vt 0.605469 0.008333
vt 0.999500 0.008333
vt 0.500000 0.008333
vt 0.551758 0.003920
vt 0.551758 0.008333
vt 0.551758 0.003920
vt 0.605469 -0.000653
vt 0.605469 0.008333
vt 0.551758 0.003920
vt 0.605469 0.008333
vt 0.551758 0.008333
vt 0.605469 -0.000653
vt 0.999500 -0.033333
vt 0.999500 0.008333
vt 0.605469 -0.000653
vt 0.999500 0.008333
vt 0.605469 0.008333
vt 0.366211 0.966667
vt 0.000500 0.966667
vt 0.366211 0.936391
vt 0.376953 0.966667
vt 0.366211 0.966667
vt 0.366211 0.936391
vt 0.376953 0.966667
vt 0.366211 0.936391
vt 0.376953 0.935480
vt 0.458984 0.966667
vt 0.376953 0.966667
vt 0.376953 0.935480
vt 0.458984 0.966667
vt 0.376953 0.935480
vt 0.458984 0.928498
vt 0.483398 0.966667
vt 0.458984 0.966667
vt 0.458984 0.928498
vt 0.483398 0.966667
vt 0.458984 0.928498
vt 0.483398 0.926416
vt 0.551758 0.966667
vt 0.483398 0.966667
vt 0.483398 0.926416
vt 0.551758 0.966667
vt 0.483398 0.926416
vt 0.551758 0.920587
vt 0.605469 0.966667
vt 0.551758 0.966667
vt 0.551758 0.920587
vt 0.605469 0.966667
vt 0.551758 0.920587
vt 0.605469 0.916014
vt 0.999500 0.966667
vt 0.605469 0.966667
vt 0.605469 0.916014
vt 0.999500 0.966667
vt 0.605469 0.916014
vt 0.999500 0.883333
vt 0.366211 0.883333
vt 0.000500 0.883333
vt 0.366211 0.853058
vt 0.376953 0.883333
vt 0.366211 0.883333
vt 0.366211 0.853058
vt 0.376953 0.883333
vt 0.366211 0.853058
vt 0.376953 0.852146
vt 0.458984 0.883333
vt 0.376953 0.883333
vt 0.376953 0.852146
vt 0.458984 0.883333
vt 0.376953 0.852146
vt 0.458984 0.845164
vt 0.483398 0.883333
vt 0.458984 0.883333
vt 0.458984 0.845164
vt 0.483398 0.883333
vt 0.458984 0.845164
vt 0.483398 0.843083
vt 0.551758 0.883333
vt 0.483398 0.883333
vt 0.483398 0.843083
vt 0.551758 0.883333
vt 0.483398 0.843083
vt 0.551758 0.837253
vt 0.605469 0.883333
vt 0.551758 0.883333
vt 0.551758 0.837253
vt 0.605469 0.883333
vt 0.551758 0.837253
vt 0.605469 0.832681
vt 0.999500 0.883333
vt 0.605469 0.883333
vt 0.605469 0.832681
vt 0.999500 0.883333
vt 0.605469 0.832681
vt 0.999500 0.800000
vt 0.366211 0.800000
vt 0.000500 0.800000
vt 0.366211 0.769725
vt 0.376953 0.800000
vt 0.366211 0.800000
vt 0.366211 0.769725
vt 0.376953 0.800000
vt 0.366211 0.769725
vt 0.376953 0.768813
vt 0.458984 0.800000
vt 0.376953 0.800000
vt 0.376953 0.768813
vt 0.458984 0.800000
vt 0.376953 0.768813
vt 0.458984 0.761831
vt 0.483398 0.800000
vt 0.458984 0.800000
vt 0.458984 0.761831
vt 0.483398 0.800000
vt 0.458984 0.761831
vt 0.483398 0.759749
vt 0.551758 0.800000
vt 0.483398 0.800000
vt 0.483398 0.759749
vt 0.551758 0.800000
vt 0.483398 0.759749
vt 0.551758 0.753920
vt 0.605469 0.800000
vt 0.551758 0.800000
vt 0.551758 0.753920
vt 0.605469 0.800000
vt 0.551758 0.753920
vt 0.605469 0.749347
vt 0.999500 0.800000
vt 0.605469 0.800000
vt 0.605469 0.749347
vt 0.999500 0.800000
vt 0.605469 0.749347
vt 0.999500 0.716667
vt 0.000500 0.383333
vt 0.000500 0.466667
vt 0.000500 0.716667
vt 0.000500 0.550000
vt 0.000500 0.633334
vt 0.000500 0.716667
vt 0.000500 0.716667
vt 0.000500 0.800000
vt 0.000500 0.883333
vt 0.000500 -0.116667
vt 0.000500 -0.033333
vt 0.000500 0.050000
vt 0.000500 0.050000
vt 0.000500 0.133333
vt 0.000500 0.216667
vt 0.000500 0.216667
vt 0.000500 0.300000
vt 0.000500 0.383333
vt 0.000500 0.466667
vt 0.000500 0.550000
vt 0.000500 0.716667
vt 0.000500 -0.283333
vt 0.000500 -0.116667
vt 0.000500 0.050000
vt 0.000500 0.050000
vt 0.000500 0.216667
vt 0.000500 -0.283333
vt 0.366211 0.633334
vt 0.000500 0.633334
vt 0.366211 0.603058
vt 0.376953 0.633334
vt 0.366211 0.633334
vt 0.366211 0.603058
vt 0.376953 0.633334
vt 0.366211 0.603058
vt 0.376953 0.602146
vt 0.458984 0.633334
vt 0.376953 0.633334
vt 0.376953 0.602146
vt 0.458984 0.633334
vt 0.376953 0.602146
vt 0.458984 0.595164
vt 0.483398 0.633334
vt 0.458984 0.633334
vt 0.458984 0.595164
vt 0.483398 0.633334
vt 0.458984 0.595164
vt 0.483398 0.593083
vt 0.551758 0.633334
vt 0.483398 0.633334
vt 0.483398 0.593083
vt 0.551758 0.633334
vt 0.483398 0.593083
vt 0.500000 0.591667
vt 0.551758 0.633334
vt 0.500000 0.591667
vt 0.551758 0.591667
vt 0.605469 0.633334
vt 0.551758 0.633334
vt 0.551758 0.591667
vt 0.605469 0.633334
vt 0.551758 0.591667
vt 0.605469 0.591667
vt 0.999500 0.633334
vt 0.605469 0.633334
vt 0.605469 0.591667
vt 0.999500 0.633334
vt 0.605469 0.591667
vt 0.999500 0.591667
vt 0.500000 0.591667
vt 0.551758 0.587253
vt 0.551758 0.591667
vt 0.551758 0.587253
vt 0.605469 0.582681
vt 0.605469 0.591667
vt 0.551758 0.587253
vt 0.605469 0.591667
vt 0.551758 0.591667
vt 0.605469 0.582681
vt 0.999500 0.550000
vt 0.999500 0.591667
vt 0.605469 0.582681
vt 0.999500 0.591667
vt 0.605469 0.591667
vt 0.366211 0.716667
vt 0.000500 0.716667
vt 0.366211 0.686392
vt 0.376953 0.716667
vt 0.366211 0.716667
vt 0.366211 0.686392
vt 0.376953 0.716667
vt 0.366211 0.686392
vt 0.376953 0.685480
vt 0.458984 0.716667
vt 0.376953 0.716667
vt 0.376953 0.685480
vt 0.458984 0.716667
vt 0.376953 0.685480
vt 0.458984 0.678498
vt 0.483398 0.716667
vt 0.458984 0.716667
vt 0.458984 0.678498
vt 0.483398 0.716667
vt 0.458984 0.678498
vt 0.483398 0.676416
vt 0.551758 0.716667
vt 0.483398 0.716667
vt 0.483398 0.676416
vt 0.551758 0.716667
vt 0.483398 0.676416
vt 0.551758 0.670587
vt 0.605469 0.716667
vt 0.551758 0.716667
vt 0.551758 0.670587
vt 0.605469 0.716667
vt 0.551758 0.670587
vt 0.605469 0.666014
vt 0.999500 0.716667
vt 0.605469 0.716667
vt 0.605469 0.666014
vt 0.999500 0.716667
vt 0.605469 0.666014
vt 0.999500 0.633334
vt 0.999500 0.633334
vt 0.999500 0.550000
vt 0.999500 0.300000
vt 0.999500 0.466667
vt 0.999500 0.383333
vt 0.999500 0.300000
vt 0.999500 0.300000
vt 0.999500 0.216667
vt 0.999500 0.133333
vt 0.999500 0.133333
vt 0.999500 0.050000
vt 0.999500 0.300000
vt 0.999500 0.966667
vt 0.999500 0.883333
vt 0.999500 0.800000
vt 0.999500 0.800000
vt 0.999500 0.716667
vt 0.999500 0.633334
vt 0.999500 0.550000
vt 0.999500 0.466667
vt 0.999500 0.300000
vt 0.999500 0.300000
vt 0.999500 0.050000
vt 0.999500 -0.033333
vt 0.999500 -0.033333
vt 0.999500 -0.200000
vt 0.999500 0.300000
s off
f 1/1/1 2/2/1 3/3/1
f 1/4/1 3/5/1 4/6/1
f 3/7/1 5/8/1 6/9/1
f 3/10/1 6/11/1 4/12/1
f 5/13/1 7/14/1 8/15/1
f 5/16/1 8/17/1 6/18/1
f 7/19/1 9/20/1 10/21/1
f 7/22/1 10/23/1 8/24/1
f 9/25/1 11/26/1 10/27/1
f 2/28/1 12/29/1 13/30/1
f 2/31/1 13/32/1 3/33/1
f 13/34/1 14/35/1 5/36/1
f 13/37/1 5/38/1 3/39/1
f 14/40/1 15/41/1 7/42/1
f 14/43/1 7/44/1 5/45/1
f 15/46/1 16/47/1 9/48/1
f 15/49/1 9/50/1 7/51/1
f 16/52/1 17/53/1 18/54/1
f 16/55/1 18/56/1 11/57/1
f 16/58/1 11/59/1 9/60/1
f 17/61/1 19/62/1 20/63/1
f 17/64/1 20/65/1 18/66/1
f 19/67/1 21/68/1 20/69/1
f 12/70/2 22/71/2 23/72/2
f 12/73/2 23/74/2 24/75/2
f 23/76/2 25/77/2 26/78/2
f 23/79/2 26/80/2 24/81/2
f 25/82/2 27/83/2 28/84/2
f 25/85/2 28/86/2 26/87/2
f 27/88/2 29/89/2 30/90/2
f 27/91/2 30/92/2 28/93/2
f 29/94/2 31/95/2 32/96/2
f 29/97/2 32/98/2 30/99/2
f 31/100/2 33/101/2 34/102/2
f 31/103/2 34/104/2 32/105/2
f 33/106/2 35/107/2 34/108/2
f 22/109/3 36/110/3 37/111/3
f 22/112/3 37/113/3 38/114/3
f 37/115/3 39/116/3 40/117/3
f 37/118/3 40/119/3 38/120/3
f 39/121/3 41/122/3 42/123/3
f 39/124/3 42/125/3 40/126/3
f 41/127/3 43/128/3 44/129/3
f 41/130/3 44/131/3 42/132/3
f 43/133/3 45/134/3 46/135/3
f 43/136/3 46/137/3 44/138/3
f 45/139/3 47/140/3 48/141/3
f 45/142/3 48/143/3 46/144/3
f 47/145/3 49/146/3 48/147/3
f 36/148/4 50/149/4 51/150/4
f 36/151/4 51/152/4 52/153/4
f 51/154/4 53/155/4 54/156/4
f 51/157/4 54/158/4 52/159/4
f 53/160/4 55/161/4 56/162/4
f 53/163/4 56/164/4 54/165/4
f 55/166/4 57/167/4 58/168/4
f 55/169/4 58/170/4 56/171/4
f 57/172/4 59/173/4 60/174/4
f 57/175/4 60/176/4 58/177/4
f 59/178/4 61/179/4 62/180/4
f 59/181/4 62/182/4 60/183/4
f 61/184/4 63/185/4 62/186/4
f 50/187/5 64/188/5 65/189/5
f 50/190/5 65/191/5 66/192/5
f 65/193/5 67/194/5 68/195/5
f 65/196/5 68/197/5 66/198/5
f 67/199/5 69/200/5 70/201/5
f 67/202/5 70/203/5 68/204/5
f 69/205/5 71/206/5 72/207/5
f 69/208/5 72/209/5 70/210/5
f 71/211/5 73/212/5 74/213/5
f 71/214/5 74/215/5 72/216/5
f 73/217/5 75/218/5 76/219/5
f 73/220/5 76/221/5 74/222/5
f 75/223/5 77/224/5 76/225/5
f 64/226/6 78/227/6 79/228/6
f 64/229/6 79/230/6 80/231/6
f 79/232/6 81/233/6 82/234/6
f 79/235/6 82/236/6 80/237/6
f 81/238/6 83/239/6 84/240/6
f 81/241/6 84/242/6 82/243/6
f 83/244/6 85/245/6 86/246/6
f 83/247/6 86/248/6 84/249/6
f 85/250/6 87/251/6 86/252/6
f 78/253/6 88/254/6 89/255/6
f 78/256/6 89/257/6 79/258/6
f 89/259/6 90/260/6 81/261/6
f 89/262/6 81/263/6 79/264/6
f 90/265/6 91/266/6 83/267/6
f 90/268/6 83/269/6 81/270/6
f 91/271/6 92/272/6 85/273/6
f 91/274/6 85/275/6 83/276/6
f 92/277/6 93/278/6 94/279/6
f 92/280/6 94/281/6 87/282/6
f 92/283/6 87/284/6 85/285/6
f 93/286/6 95/287/6 96/288/6
f 93/289/6 96/290/6 94/291/6
f 95/292/6 97/293/6 96/294/6
f 88/295/7 98/296/7 99/297/7
f 88/298/7 99/299/7 100/300/7
f 99/301/7 101/302/7 102/303/7
f 99/304/7 102/305/7 100/306/7
f 101/307/7 103/308/7 104/309/7
f 101/310/7 104/311/7 102/312/7
f 103/313/7 105/314/7 106/315/7
f 103/316/7 106/317/7 104/318/7
f 105/319/7 107/320/7 106/321/7
f 98/322/7 108/323/7 109/324/7
f 98/325/7 109/326/7 99/327/7
f 109/328/7 110/329/7 101/330/7
f 109/331/7 101/332/7 99/333/7
f 110/334/7 111/335/7 103/336/7
f 110/337/7 103/338/7 101/339/7
f 111/340/7 112/341/7 105/342/7
f 111/343/7 105/344/7 103/345/7
f 112/346/7 113/347/7 114/348/7
f 112/349/7 114/350/7 107/351/7
f 112/352/7 107/353/7 105/354/7
f 113/355/7 115/356/7 116/357/7
f 113/358/7 116/359/7 114/360/7
f 115/361/7 117/362/7 116/363/7
f 108/364/8 118/365/8 119/366/8
f 108/367/8 119/368/8 120/369/8
f 119/370/8 121/371/8 122/372/8
f 119/373/8 122/374/8 120/375/8
f 121/376/8 123/377/8 124/378/8
f 121/379/8 124/380/8 122/381/8
f 123/382/8 125/383/8 126/384/8
f 123/385/8 126/386/8 124/387/8
f 125/388/8 127/389/8 128/390/8
f 125/391/8 128/392/8 126/393/8
f 127/394/8 129/395/8 130/396/8
f 127/397/8 130/398/8 128/399/8
f 129/400/8 131/401/8 130/402/8
f 118/403/9 132/404/9 133/405/9
f 118/406/9 133/407/9 134/408/9
f 133/409/9 135/410/9 136/411/9
f 133/412/9 136/413/9 134/414/9
f 135/415/9 137/416/9 138/417/9
f 135/418/9 138/419/9 136/420/9
f 137/421/9 139/422/9 140/423/9
f 137/424/9 140/425/9 138/426/9
f 139/427/9 141/428/9 142/429/9
f 139/430/9 142/431/9 140/432/9
f 141/433/9 143/434/9 144/435/9
f 141/436/9 144/437/9 142/438/9
f 143/439/9 145/440/9 144/441/9
f 132/442/10 146/443/10 147/444/10
f 132/445/10 147/446/10 148/447/10
f 147/448/10 149/449/10 150/450/10
f 147/451/10 150/452/10 148/453/10
f 149/454/10 151/455/10 152/456/10
f 149/457/10 152/458/10 150/459/10
f 151/460/10 153/461/10 154/462/10
f 151/463/10 154/464/10 152/465/10
f 153/466/10 155/467/10 156/468/10
f 153/469/10 156/470/10 154/471/10
f 155/472/10 157/473/10 158/474/10
f 155/475/10 158/476/10 156/477/10
f 157/478/10 159/479/10 158/480/10
f 146/481/11 50/482/11 22/483/11
f 160/484/12 161/485/12 162/486/12
f 160/487/12 162/488/12 163/489/12
f 162/490/12 164/491/12 165/492/12
f 162/493/12 165/494/12 163/495/12
f 164/496/12 166/497/12 167/498/12
f 164/499/12 167/500/12 165/501/12
f 166/502/12 168/503/12 169/504/12
f 166/505/12 169/506/12 167/507/12
f 168/508/12 170/509/12 169/510/12
f 161/511/12 1/512/12 171/513/12
f 161/514/12 171/515/12 162/516/12
f 171/517/12 172/518/12 164/519/12
f 171/520/12 164/521/12 162/522/12
f 172/523/12 173/524/12 166/525/12
f 172/526/12 166/527/12 164/528/12
f 173/529/12 174/530/12 168/531/12
f 173/532/12 168/533/12 166/534/12
f 174/535/12 175/536/12 176/537/12
f 174/538/12 176/539/12 170/540/12
f 174/541/12 170/542/12 168/543/12
f 175/544/12 177/545/12 178/546/12
f 175/547/12 178/548/12 176/549/12
f 177/550/12 179/551/12 178/552/12
f 146/553/13 160/554/13 180/555/13
f 146/556/13 180/557/13 181/558/13
f 180/559/13 182/560/13 183/561/13
f 180/562/13 183/563/13 181/564/13
f 182/565/13 184/566/13 185/567/13
f 182/568/13 185/569/13 183/570/13
f 184/571/13 186/572/13 187/573/13
f 184/574/13 187/575/13 185/576/13
f 186/577/13 188/578/13 189/579/13
f 186/580/13 189/581/13 187/582/13
f 188/583/13 190/584/13 191/585/13
f 188/586/13 191/587/13 189/588/13
f 190/589/13 192/590/13 191/591/13
f 49/592/14 145/593/14 192/594/14
f 171/595/1 1/596/1 4/597/1
f 172/598/1 171/599/1 4/600/1
f 172/601/1 4/602/1 6/603/1
f 173/604/1 172/605/1 6/606/1
f 173/607/1 6/608/1 8/609/1
f 174/610/1 173/611/1 8/612/1
f 174/613/1 8/614/1 10/615/1
f 175/616/1 174/617/1 10/618/1
f 175/619/1 10/620/1 11/621/1
f 175/622/1 11/623/1 193/624/1
f 177/625/1 175/626/1 193/627/1
f 177/628/1 193/629/1 194/630/1
f 179/631/1 177/632/1 194/633/1
f 179/634/1 194/635/1 195/636/1
f 11/637/1 18/638/1 193/639/1
f 18/640/1 20/641/1 194/642/1
f 18/643/1 194/644/1 193/645/1
f 20/646/1 21/647/1 195/648/1
f 20/649/1 195/650/1 194/651/1
f 13/652/2 12/653/2 24/654/2
f 14/655/2 13/656/2 24/657/2
f 14/658/2 24/659/2 26/660/2
f 15/661/2 14/662/2 26/663/2
f 15/664/2 26/665/2 28/666/2
f 16/667/2 15/668/2 28/669/2
f 16/670/2 28/671/2 30/672/2
f 17/673/2 16/674/2 30/675/2
f 17/676/2 30/677/2 32/678/2
f 19/679/2 17/680/2 32/681/2
f 19/682/2 32/683/2 34/684/2
f 21/685/2 19/686/2 34/687/2
f 21/688/2 34/689/2 35/690/2
f 23/691/3 22/692/3 38/693/3
f 25/694/3 23/695/3 38/696/3
f 25/697/3 38/698/3 40/699/3
f 27/700/3 25/701/3 40/702/3
f 27/703/3 40/704/3 42/705/3
f 29/706/3 27/707/3 42/708/3
f 29/709/3 42/710/3 44/711/3
f 31/712/3 29/713/3 44/714/3
f 31/715/3 44/716/3 46/717/3
f 33/718/3 31/719/3 46/720/3
f 33/721/3 46/722/3 48/723/3
f 35/724/3 33/725/3 48/726/3
f 35/727/3 48/728/3 49/729/3
f 37/730/4 36/731/4 52/732/4
f 39/733/4 37/734/4 52/735/4
f 39/736/4 52/737/4 54/738/4
f 41/739/4 39/740/4 54/741/4
f 41/742/4 54/743/4 56/744/4
f 43/745/4 41/746/4 56/747/4
f 43/748/4 56/749/4 58/750/4
f 45/751/4 43/752/4 58/753/4
f 45/754/4 58/755/4 60/756/4
f 47/757/4 45/758/4 60/759/4
f 47/760/4 60/761/4 62/762/4
f 49/763/4 47/764/4 62/765/4
f 49/766/4 62/767/4 63/768/4
f 51/769/5 50/770/5 66/771/5
f 53/772/5 51/773/5 66/774/5
f 53/775/5 66/776/5 68/777/5
f 55/778/5 53/779/5 68/780/5
f 55/781/5 68/782/5 70/783/5
f 57/784/5 55/785/5 70/786/5
f 57/787/5 70/788/5 72/789/5
f 59/790/5 57/791/5 72/792/5
f 59/793/5 72/794/5 74/795/5
f 61/796/5 59/797/5 74/798/5
f 61/799/5 74/800/5 76/801/5
f 63/802/5 61/803/5 76/804/5
f 63/805/5 76/806/5 77/807/5
f 65/808/6 64/809/6 80/810/6
f 67/811/6 65/812/6 80/813/6
f 67/814/6 80/815/6 82/816/6
f 69/817/6 67/818/6 82/819/6
f 69/820/6 82/821/6 84/822/6
f 71/823/6 69/824/6 84/825/6
f 71/826/6 84/827/6 86/828/6
f 73/829/6 71/830/6 86/831/6
f 73/832/6 86/833/6 87/834/6
f 73/835/6 87/836/6 196/837/6
f 75/838/6 73/839/6 196/840/6
f 75/841/6 196/842/6 197/843/6
f 77/844/6 75/845/6 197/846/6
f 77/847/6 197/848/6 198/849/6
f 87/850/6 94/851/6 196/852/6
f 94/853/6 96/854/6 197/855/6
f 94/856/6 197/857/6 196/858/6
f 96/859/6 97/860/6 198/861/6
f 96/862/6 198/863/6 197/864/6
f 89/865/7 88/866/7 100/867/7
f 90/868/7 89/869/7 100/870/7
f 90/871/7 100/872/7 102/873/7
f 91/874/7 90/875/7 102/876/7
f 91/877/7 102/878/7 104/879/7
f 92/880/7 91/881/7 104/882/7
f 92/883/7 104/884/7 106/885/7
f 93/886/7 92/887/7 106/888/7
f 93/889/7 106/890/7 107/891/7
f 93/892/7 107/893/7 199/894/7
f 95/895/7 93/896/7 199/897/7
f 95/898/7 199/899/7 200/900/7
f 97/901/7 95/902/7 200/903/7
f 97/904/7 200/905/7 201/906/7
f 107/907/7 114/908/7 199/909/7
f 114/910/7 116/911/7 200/912/7
f 114/913/7 200/914/7 199/915/7
f 116/916/7 117/917/7 201/918/7
f 116/919/7 201/920/7 200/921/7
f 109/922/8 108/923/8 120/924/8
f 110/925/8 109/926/8 120/927/8
f 110/928/8 120/929/8 122/930/8
f 111/931/8 110/932/8 122/933/8
f 111/934/8 122/935/8 124/936/8
f 112/937/8 111/938/8 124/939/8
f 112/940/8 124/941/8 126/942/8
f 113/943/8 112/944/8 126/945/8
f 113/946/8 126/947/8 128/948/8
f 115/949/8 113/950/8 128/951/8
f 115/952/8 128/953/8 130/954/8
f 117/955/8 115/956/8 130/957/8
f 117/958/8 130/959/8 131/960/8
f 119/961/9 118/962/9 134/963/9
f 121/964/9 119/965/9 134/966/9
f 121/967/9 134/968/9 136/969/9
f 123/970/9 121/971/9 136/972/9
f 123/973/9 136/974/9 138/975/9
f 125/976/9 123/977/9 138/978/9
f 125/979/9 138/980/9 140/981/9
f 127/982/9 125/983/9 140/984/9
f 127/985/9 140/986/9 142/987/9
f 129/988/9 127/989/9 142/990/9
f 129/991/9 142/992/9 144/993/9
f 131/994/9 129/995/9 144/996/9
f 131/997/9 144/998/9 145/999/9
f 133/1000/10 132/1001/10 148/1002/10
f 135/1003/10 133/1004/10 148/1005/10
f 135/1006/10 148/1007/10 150/1008/10
f 137/1009/10 135/1010/10 150/1011/10
f 137/1012/10 150/1013/10 152/1014/10
f 139/1015/10 137/1016/10 152/1017/10
f 139/1018/10 152/1019/10 154/1020/10
f 141/1021/10 139/1022/10 154/1023/10
f 141/1024/10 154/1025/10 156/1026/10
f 143/1027/10 141/1028/10 156/1029/10
f 143/1030/10 156/1031/10 158/1032/10
f 145/1033/10 143/1034/10 158/1035/10
f 145/1036/10 158/1037/10 159/1038/10
f 22/1039/11 12/1040/11 146/1041/11
f 1/1042/11 160/1043/11 146/1044/11
f 146/1045/11 132/1046/11 118/1047/11
f 118/1048/11 108/1049/11 88/1050/11
f 88/1051/11 64/1052/11 50/1053/11
f 50/1054/11 36/1055/11 22/1056/11
f 12/1057/11 1/1058/11 146/1059/11
f 146/1060/11 118/1061/11 88/1062/11
f 88/1063/11 50/1064/11 146/1065/11
f 180/1066/12 160/1067/12 163/1068/12
f 182/1069/12 180/1070/12 163/1071/12
f 182/1072/12 163/1073/12 165/1074/12
f 184/1075/12 182/1076/12 165/1077/12
f 184/1078/12 165/1079/12 167/1080/12
f 186/1081/12 184/1082/12 167/1083/12
f 186/1084/12 167/1085/12 169/1086/12
f 188/1087/12 186/1088/12 169/1089/12
f 188/1090/12 169/1091/12 170/1092/12
f 188/1093/12 170/1094/12 202/1095/12
f 190/1096/12 188/1097/12 202/1098/12
f 190/1099/12 202/1100/12 203/1101/12
f 192/1102/12 190/1103/12 203/1104/12
f 192/1105/12 203/1106/12 204/1107/12
f 170/1108/12 176/1109/12 202/1110/12
f 176/1111/12 178/1112/12 203/1113/12
f 176/1114/12 203/1115/12 202/1116/12
f 178/1117/12 179/1118/12 204/1119/12
f 178/1120/12 204/1121/12 203/1122/12
f 147/1123/13 146/1124/13 181/1125/13
f 149/1126/13 147/1127/13 181/1128/13
f 149/1129/13 181/1130/13 183/1131/13
f 151/1132/13 149/1133/13 183/1134/13
f 151/1135/13 183/1136/13 185/1137/13
f 153/1138/13 151/1139/13 185/1140/13
f 153/1141/13 185/1142/13 187/1143/13
f 155/1144/13 153/1145/13 187/1146/13
f 155/1147/13 187/1148/13 189/1149/13
f 157/1150/13 155/1151/13 189/1152/13
f 157/1153/13 189/1154/13 191/1155/13
f 159/1156/13 157/1157/13 191/1158/13
f 159/1159/13 191/1160/13 192/1161/13
f 192/1162/14 179/1163/14 49/1164/14
f 21/1165/14 35/1166/14 49/1167/14
f 49/1168/14 63/1169/14 77/1170/14
f 77/1171/14 97/1172/14 49/1173/14
f 117/1174/14 131/1175/14 145/1176/14
f 145/1177/14 159/1178/14 192/1179/14
f 179/1180/14 21/1181/14 49/1182/14
f 49/1183/14 97/1184/14 117/1185/14
f 117/1186/14 145/1187/14 49/1188/14
