# Minuteman III: centered markings on both sides; geometry preserved by planar subdivision.
# UV translations use measured PNG pixel centers; transitions lie between markings.
o Minuteman
v 0.000000000 12.000000000 -1.000000000
v 0.500000000 12.000000000 -0.866025000
v 0.500000000 10.140625000 -0.866025000
v 0.077473958 10.140625000 -0.979240853
v 0.500000000 9.968750000 -0.866025000
v 0.084635417 9.968750000 -0.977321940
v 0.500000000 8.656250000 -0.866025000
v 0.139322917 8.656250000 -0.962668424
v 0.500000000 8.265625000 -0.866025000
v 0.155598958 8.265625000 -0.958307259
v 0.500000000 7.171875000 -0.866025000
v 0.201171875 7.171875000 -0.946095996
v 0.500000000 6.312500000 -0.866025000
v 0.236979167 6.312500000 -0.936501432
v 0.500000000 0.000000000 -0.866025000
v 0.866025000 12.000000000 -0.500000000
v 0.866025000 10.140625000 -0.500000000
v 0.556714811 10.140625000 -0.809310189
v 0.866025000 9.968750000 -0.500000000
v 0.561957357 9.968750000 -0.804067643
v 0.866025000 8.656250000 -0.500000000
v 0.601991341 8.656250000 -0.764033659
v 0.866025000 8.265625000 -0.500000000
v 0.613906217 8.265625000 -0.752118783
v 0.866025000 7.171875000 -0.500000000
v 0.647267871 7.171875000 -0.718757129
v 0.866025000 6.312500000 -0.500000000
v 0.673480599 6.312500000 -0.692544401
v 0.866025000 0.000000000 -0.500000000
v 0.933012500 12.000000000 -0.250000000
v 0.933012500 10.140625000 -0.250000000
v 0.886784147 10.140625000 -0.422526042
v 0.933012500 9.968750000 -0.250000000
v 0.888703060 9.968750000 -0.415364583
v 0.933012500 8.656250000 -0.250000000
v 0.903356576 8.656250000 -0.360677083
v 0.933012500 8.265625000 -0.250000000
v 0.907717741 8.265625000 -0.344401042
v 0.933012500 7.171875000 -0.250000000
v 0.919929004 7.171875000 -0.298828125
v 0.933012500 6.312500000 -0.250000000
v 0.929523568 6.312500000 -0.263020833
v 0.933012500 6.000000000 -0.250000000
v 1.000000000 12.000000000 0.000000000
v 1.000000000 10.140625000 0.000000000
v 1.000000000 9.968750000 0.000000000
v 1.000000000 8.656250000 0.000000000
v 1.000000000 8.265625000 0.000000000
v 1.000000000 7.171875000 0.000000000
v 1.000000000 6.312500000 0.000000000
v 1.000000000 0.000000000 0.000000000
v 0.933012500 12.000000000 0.250000000
v 0.933012500 10.140625000 0.250000000
v 0.979240853 10.140625000 0.077473958
v 0.933012500 9.968750000 0.250000000
v 0.977321940 9.968750000 0.084635417
v 0.933012500 8.656250000 0.250000000
v 0.962668424 8.656250000 0.139322917
v 0.933012500 8.265625000 0.250000000
v 0.958307259 8.265625000 0.155598958
v 0.933012500 7.171875000 0.250000000
v 0.946095996 7.171875000 0.201171875
v 0.933012500 6.312500000 0.250000000
v 0.936501432 6.312500000 0.236979167
v 0.933012500 6.000000000 0.250000000
v 0.866025000 12.000000000 0.500000000
v 0.866025000 10.140625000 0.500000000
v 0.866025000 9.968750000 0.500000000
v 0.866025000 8.656250000 0.500000000
v 0.866025000 8.265625000 0.500000000
v 0.866025000 7.171875000 0.500000000
v 0.866025000 6.312500000 0.500000000
v 0.866025000 0.000000000 0.500000000
v 0.500000000 12.000000000 0.866025000
v 0.500000000 10.140625000 0.866025000
v 0.809310189 10.140625000 0.556714811
v 0.500000000 9.968750000 0.866025000
v 0.804067643 9.968750000 0.561957357
v 0.500000000 8.656250000 0.866025000
v 0.764033659 8.656250000 0.601991341
v 0.500000000 8.265625000 0.866025000
v 0.752118783 8.265625000 0.613906217
v 0.500000000 7.171875000 0.866025000
v 0.718757129 7.171875000 0.647267871
v 0.500000000 6.312500000 0.866025000
v 0.692544401 6.312500000 0.673480599
v 0.500000000 0.000000000 0.866025000
v 0.000000000 12.000000000 1.000000000
v 0.000000000 10.140625000 1.000000000
v 0.422526042 10.140625000 0.886784147
v 0.000000000 9.968750000 1.000000000
v 0.415364583 9.968750000 0.888703060
v 0.000000000 8.656250000 1.000000000
v 0.360677083 8.656250000 0.903356576
v 0.000000000 8.265625000 1.000000000
v 0.344401042 8.265625000 0.907717741
v 0.000000000 7.171875000 1.000000000
v 0.298828125 7.171875000 0.919929004
v 0.000000000 6.312500000 1.000000000
v 0.263020833 6.312500000 0.929523568
v 0.000000000 0.000000000 1.000000000
v -0.500000000 12.000000000 0.866026000
v -0.500000000 10.140625000 0.866026000
v -0.077473958 10.140625000 0.979241008
v -0.500000000 9.968750000 0.866026000
v -0.084635417 9.968750000 0.977322109
v -0.500000000 8.656250000 0.866026000
v -0.139322917 8.656250000 0.962668703
v -0.500000000 8.265625000 0.866026000
v -0.155598958 8.265625000 0.958307570
v -0.500000000 7.171875000 0.866026000
v -0.201171875 7.171875000 0.946096398
v -0.500000000 6.312500000 0.866026000
v -0.236979167 6.312500000 0.936501906
v -0.500000000 0.000000000 0.866026000
v -0.866025000 12.000000000 0.500000000
v -0.866025000 10.140625000 0.500000000
v -0.556714811 10.140625000 0.809311034
v -0.866025000 9.968750000 0.500000000
v -0.561957357 9.968750000 0.804068474
v -0.866025000 8.656250000 0.500000000
v -0.601991341 8.656250000 0.764034380
v -0.866025000 8.265625000 0.500000000
v -0.613906217 8.265625000 0.752119471
v -0.866025000 7.171875000 0.500000000
v -0.647267871 7.171875000 0.718757727
v -0.866025000 6.312500000 0.500000000
v -0.673480599 6.312500000 0.692544927
v -0.866025000 0.000000000 0.500000000
v -0.933012500 12.000000000 0.250000000
v -0.933053690 10.140468799 0.249846279
v -0.886785891 10.140468799 0.422519533
v -0.933057497 9.968579361 0.249832069
v -0.888704965 9.968579361 0.415357473
v -0.933086572 8.655969101 0.249723560
v -0.903359712 8.655969101 0.360665379
v -0.933095225 8.265311286 0.249691266
v -0.907721243 8.265311286 0.344387970
v -0.933119455 7.171469403 0.249600841
v -0.919933532 7.171469403 0.298811225
v -0.933138492 6.312022210 0.249529794
v -0.929528902 6.312022210 0.263000925
v -0.933145667 5.988072336 0.249503014
v -1.000000000 12.000000000 0.000000000
v -1.000000000 10.140468799 0.000000000
v -1.000000000 9.968579361 0.000000000
v -1.000000000 8.655969101 0.000000000
v -1.000000000 8.265311286 0.000000000
v -1.000000000 7.171469403 0.000000000
v -1.000000000 6.312022210 0.000000000
v -1.000000000 0.000000000 0.000000000
v -0.933013000 12.000000000 -0.249999500
v -0.933013000 10.140625000 -0.249999500
v -0.979241008 10.140625000 -0.077473803
v -0.933013000 9.968750000 -0.249999500
v -0.977322109 9.968750000 -0.084635247
v -0.933013000 8.656250000 -0.249999500
v -0.962668703 8.656250000 -0.139322638
v -0.933013000 8.265625000 -0.249999500
v -0.958307570 8.265625000 -0.155598647
v -0.933013000 7.171875000 -0.249999500
v -0.946096398 7.171875000 -0.201171473
v -0.933013000 6.312500000 -0.249999500
v -0.936501906 6.312500000 -0.236978693
v -0.933013000 6.000000000 -0.249999500
v -0.866026000 12.000000000 -0.499999000
v -0.866026000 10.140625000 -0.499999000
v -0.866026000 9.968750000 -0.499999000
v -0.866026000 8.656250000 -0.499999000
v -0.866026000 8.265625000 -0.499999000
v -0.866026000 7.171875000 -0.499999000
v -0.866026000 6.312500000 -0.499999000
v -0.866026000 0.000000000 -0.499999000
v -0.500001000 12.000000000 -0.866025000
v 0.000000000 10.140625000 -1.000000000
v -0.422526887 10.140625000 -0.886784147
v 0.000000000 9.968750000 -1.000000000
v -0.415365414 9.968750000 -0.888703060
v 0.000000000 8.656250000 -1.000000000
v -0.360677805 8.656250000 -0.903356576
v 0.000000000 8.265625000 -1.000000000
v -0.344401730 8.265625000 -0.907717741
v 0.000000000 7.171875000 -1.000000000
v -0.298828723 7.171875000 -0.919929004
v 0.000000000 6.312500000 -1.000000000
v -0.263021359 6.312500000 -0.929523568
v 0.000000000 0.000000000 -1.000000000
v -0.500001000 10.140625000 -0.866025000
v -0.809311189 10.140625000 -0.556713966
v -0.500001000 9.968750000 -0.866025000
v -0.804068643 9.968750000 -0.561956526
v -0.500001000 8.656250000 -0.866025000
v -0.764034659 8.656250000 -0.601990620
v -0.500001000 8.265625000 -0.866025000
v -0.752119783 8.265625000 -0.613905529
v -0.500001000 7.171875000 -0.866025000
v -0.718758129 7.171875000 -0.647267273
v -0.500001000 6.312500000 -0.866025000
v -0.692545401 6.312500000 -0.673480073
v -0.500001000 0.000000000 -0.866025000
v -0.750000000 13.500000000 0.000000000
v -0.808013000 12.750000000 -0.249999500
v -0.649519000 13.500000000 -0.375000000
v -0.375000000 13.500000000 -0.649519000
v 0.000000000 13.500000000 -0.750000000
v 0.375000000 13.500000000 -0.649519000
v 0.649519000 13.500000000 -0.375000000
v 0.699759500 13.500000000 -0.187500000
v 0.808012500 12.750000000 -0.250000000
v 0.750000000 13.500000000 0.000000000
v 0.808012500 12.750000000 0.250000000
v 0.649519000 13.500000000 0.375000000
v 0.375000000 13.500000000 0.649519000
v -0.000000000 13.500000000 0.750000000
v -0.375000000 13.500000000 0.649519000
v -0.649519000 13.500000000 0.375000000
v -0.699759500 13.500000000 0.187500000
v -0.808012500 12.750000000 0.250000000
v -0.649518000 16.000000000 0.375000000
v -0.699758500 16.000000000 0.187500000
v -0.699759000 14.750000000 0.187500000
v -0.749999000 16.000000000 0.000000000
v 0.649520000 16.000000000 0.375000000
v 0.000001000 16.000000000 -0.750000000
v 0.375002000 16.000000000 -0.649519000
v 0.649521000 16.000000000 -0.375000000
v -0.374999000 16.000000000 -0.649519000
v 0.375001000 16.000000000 0.649519000
v -0.374999000 16.000000000 0.649519000
v -0.649518000 16.000000000 -0.375000000
v 0.750001000 16.000000000 0.000000000
v 0.699760500 16.000000000 0.187500000
v 0.699760000 14.750000000 0.187500000
v 0.000001000 16.000000000 0.750000000
v -0.699758500 16.000000000 -0.187500000
v -0.699759000 14.750000000 -0.187500000
v 0.699761000 16.000000000 -0.187500000
v 0.699760000 14.750000000 -0.187500000
v 0.933012500 0.000000000 -0.250000000
v 0.933012500 0.000000000 0.250000000
v -0.933145667 0.000000000 0.249503014
v -1.000000000 10.140625000 0.000000000
v -1.000000000 9.968750000 0.000000000
v -1.000000000 8.656250000 0.000000000
v -1.000000000 8.265625000 0.000000000
v -1.000000000 7.171875000 0.000000000
v -1.000000000 6.312500000 0.000000000
v -0.933013000 0.000000000 -0.249999500
v -0.699759500 13.500000000 -0.187500000
v 0.699759500 13.500000000 0.187500000
vt 0.273681641 0.750000000
vt 0.242431641 0.750000000
vt 0.242431641 0.633789062
vt 0.268839518 0.633789062
vt 0.246093750 0.623046875
vt 0.272054036 0.623046875
vt 0.246093750 0.541015625
vt 0.268636068 0.541015625
vt 0.246582031 0.516601562
vt 0.268107096 0.516601562
vt 0.246582031 0.448242188
vt 0.265258789 0.448242188
vt 0.250000000 0.394531250
vt 0.266438802 0.394531250
vt 0.250000000 0.000000000
vt 0.211181641 0.750000000
vt 0.211181641 0.633789062
vt 0.237589518 0.633789062
vt 0.214843750 0.623046875
vt 0.240804036 0.623046875
vt 0.214843750 0.541015625
vt 0.237386068 0.541015625
vt 0.215332031 0.516601562
vt 0.236857096 0.516601562
vt 0.215332031 0.448242188
vt 0.234008789 0.448242188
vt 0.218750000 0.394531250
vt 0.235188802 0.394531250
vt 0.218750000 0.000000000
vt 0.195556641 0.750000000
vt 0.195556641 0.633789062
vt 0.206339518 0.633789062
vt 0.199218750 0.623046875
vt 0.209554036 0.623046875
vt 0.199218750 0.541015625
vt 0.206136068 0.541015625
vt 0.199707031 0.516601562
vt 0.205607096 0.516601562
vt 0.199707031 0.448242188
vt 0.202758789 0.448242188
vt 0.203125000 0.394531250
vt 0.203938802 0.394531250
vt 0.203125000 0.375000000
vt 0.187500000 0.750000000
vt 0.187500000 0.633789062
vt 0.187500000 0.623046875
vt 0.187500000 0.541015625
vt 0.187500000 0.516601562
vt 0.187500000 0.448242188
vt 0.187500000 0.394531250
vt 0.187500000 0.000000000
vt 0.183349609 0.750000000
vt 0.183349609 0.633789062
vt 0.186213811 0.633789062
vt 0.173828125 0.623046875
vt 0.182871501 0.623046875
vt 0.173828125 0.541015625
vt 0.179880778 0.541015625
vt 0.175781250 0.516601562
vt 0.180206299 0.516601562
vt 0.175781250 0.448242188
vt 0.178070068 0.448242188
vt 0.171875000 0.394531250
vt 0.172688802 0.394531250
vt 0.171875000 0.375000000
vt 0.167724609 0.750000000
vt 0.167724609 0.633789062
vt 0.158203125 0.623046875
vt 0.158203125 0.541015625
vt 0.160156250 0.516601562
vt 0.160156250 0.448242188
vt 0.156250000 0.394531250
vt 0.156250000 0.000000000
vt 0.136474609 0.750000000
vt 0.136474609 0.633789062
vt 0.162882487 0.633789062
vt 0.126953125 0.623046875
vt 0.152913411 0.623046875
vt 0.126953125 0.541015625
vt 0.149495443 0.541015625
vt 0.128906250 0.516601562
vt 0.150431315 0.516601562
vt 0.128906250 0.448242188
vt 0.147583008 0.448242188
vt 0.125000000 0.394531250
vt 0.141438802 0.394531250
vt 0.125000000 0.000000000
vt 0.105224609 0.750000000
vt 0.105224609 0.633789062
vt 0.131632487 0.633789062
vt 0.095703125 0.623046875
vt 0.121663411 0.623046875
vt 0.095703125 0.541015625
vt 0.118245443 0.541015625
vt 0.097656250 0.516601562
vt 0.119181315 0.516601562
vt 0.097656250 0.448242188
vt 0.116333008 0.448242188
vt 0.093750000 0.394531250
vt 0.110188802 0.394531250
vt 0.093750000 0.000000000
vt 0.073974609 0.750000000
vt 0.073974609 0.633789062
vt 0.100382487 0.633789062
vt 0.064453125 0.623046875
vt 0.090413411 0.623046875
vt 0.064453125 0.541015625
vt 0.086995443 0.541015625
vt 0.066406250 0.516601562
vt 0.087931315 0.516601562
vt 0.066406250 0.448242188
vt 0.085083008 0.448242188
vt 0.062500000 0.394531250
vt 0.078938802 0.394531250
vt 0.062500000 0.000000000
vt 0.042724609 0.750000000
vt 0.042724609 0.633789062
vt 0.069132487 0.633789062
vt 0.033203125 0.623046875
vt 0.059163411 0.623046875
vt 0.033203125 0.541015625
vt 0.055745443 0.541015625
vt 0.035156250 0.516601562
vt 0.056681315 0.516601562
vt 0.035156250 0.448242188
vt 0.053833008 0.448242188
vt 0.031250000 0.394531250
vt 0.047688802 0.394531250
vt 0.031250000 0.000000000
vt 0.027099609 0.750000000
vt 0.027099609 0.633789062
vt 0.037891688 0.633789062
vt 0.017578125 0.623046875
vt 0.027923463 0.623046875
vt 0.017578125 0.541015625
vt 0.024511989 0.541015625
vt 0.019531250 0.516601562
vt 0.025449794 0.516601562
vt 0.019531250 0.448242188
vt 0.022606899 0.448242188
vt 0.015625000 0.394531250
vt 0.016466946 0.394531250
vt 0.015625000 0.374286084
vt 0.000000000 0.750000000
vt 0.000016663 0.633789062
vt 0.000011808 0.623046875
vt 0.000019437 0.541015625
vt 0.000024120 0.516601562
vt 0.000031184 0.448242188
vt 0.000029388 0.394531250
vt 0.000062000 0.000063000
vt 0.375000000 0.750000000
vt 0.351806641 0.750000000
vt 0.351806641 0.633789062
vt 0.367812475 0.633789062
vt 0.355468750 0.623046875
vt 0.368387858 0.623046875
vt 0.355468750 0.541015625
vt 0.364115397 0.541015625
vt 0.355957031 0.516601562
vt 0.363147736 0.516601562
vt 0.355957031 0.448242188
vt 0.359676361 0.448242188
vt 0.359375000 0.394531250
vt 0.360188802 0.394531250
vt 0.359375000 0.375000000
vt 0.336181641 0.750000000
vt 0.336181641 0.633789062
vt 0.339843750 0.623046875
vt 0.339843750 0.541015625
vt 0.340332031 0.516601562
vt 0.340332031 0.448242188
vt 0.343750000 0.394531250
vt 0.343750000 0.000000000
vt 0.304931641 0.750000000
vt 0.273681641 0.633789062
vt 0.300089518 0.633789062
vt 0.277343750 0.623046875
vt 0.303304036 0.623046875
vt 0.277343750 0.541015625
vt 0.299886068 0.541015625
vt 0.277832031 0.516601562
vt 0.299357096 0.516601562
vt 0.277832031 0.448242188
vt 0.296508789 0.448242188
vt 0.281250000 0.394531250
vt 0.297688802 0.394531250
vt 0.281250000 0.000000000
vt 0.304931641 0.633789062
vt 0.331339518 0.633789062
vt 0.308593750 0.623046875
vt 0.334554036 0.623046875
vt 0.308593750 0.541015625
vt 0.331136068 0.541015625
vt 0.309082031 0.516601562
vt 0.330607096 0.516601562
vt 0.309082031 0.448242188
vt 0.327758789 0.448242188
vt 0.312500000 0.394531250
vt 0.328938802 0.394531250
vt 0.312500000 0.000000000
vt 0.499536000 0.062500000
vt 0.375464000 0.062500000
vt 0.406482000 0.008776000
vt 0.375000000 0.843750000
vt 0.351806641 0.796875000
vt 0.336181641 0.843750000
vt 0.304931641 0.843750000
vt 0.273681641 0.843750000
vt 0.242431641 0.843750000
vt 0.211181641 0.843750000
vt 0.195556641 0.843750000
vt 0.195556641 0.796875000
vt 0.187500000 0.843750000
vt 0.183349609 0.796875000
vt 0.167724609 0.843750000
vt 0.136474609 0.843750000
vt 0.105224609 0.843750000
vt 0.073974609 0.843750000
vt 0.042724609 0.843750000
vt 0.027099609 0.843750000
vt 0.027099609 0.796875000
vt 0.000000000 0.843750000
vt 0.042724609 1.000000000
vt 0.027099609 1.000000000
vt 0.027099609 0.921875000
vt 0.000000000 1.000000000
vt 0.399265000 0.211037000
vt 0.399265000 0.132713000
vt 0.467095000 0.171875000
vt 0.242431641 1.000000000
vt 0.211181641 1.000000000
vt 0.304931641 1.000000000
vt 0.273681641 1.000000000
vt 0.167724609 1.000000000
vt 0.136474609 1.000000000
vt 0.073974609 1.000000000
vt 0.336181641 1.000000000
vt 0.187500000 1.000000000
vt 0.183349609 1.000000000
vt 0.183349609 0.921875000
vt 0.105224609 1.000000000
vt 0.375000000 1.000000000
vt 0.351806641 1.000000000
vt 0.351806641 0.921875000
vt 0.195556641 1.000000000
vt 0.195556641 0.921875000
vt 0.203125000 0.000000000
vt 0.171875000 0.000000000
vt 0.015625000 0.000031563
vt 0.375000000 0.633789062
vt 0.375000000 0.623046875
vt 0.375000000 0.541015625
vt 0.375000000 0.516601562
vt 0.375000000 0.448242188
vt 0.375000000 0.394531250
vt 0.375000000 0.000000000
vt 0.359375000 0.000000000
vt 0.437500000 0.000464000
vt 0.468518000 0.008776000
vt 0.491224000 0.031482000
vt 0.491224000 0.093518000
vt 0.468518000 0.116224000
vt 0.437500000 0.124536000
vt 0.406482000 0.116224000
vt 0.383776000 0.093518000
vt 0.383776000 0.031482000
vt 0.351806641 0.843750000
vt 0.183349609 0.843750000
vt 0.461037000 0.194485000
vt 0.444485000 0.211037000
vt 0.421875000 0.217095000
vt 0.382713000 0.194485000
vt 0.376655000 0.171875000
vt 0.382713000 0.149265000
vt 0.421875000 0.126655000
vt 0.444485000 0.132713000
vt 0.461037000 0.149265000
vn 0.258800000 0.000000000 -0.965900000
vn 0.707100000 0.000000000 -0.707100000
vn 0.965900000 0.000000000 -0.258800000
vn 0.965900000 0.000000000 0.258800000
vn 0.707100000 0.000000000 0.707100000
vn 0.258800000 0.000000000 0.965900000
vn -0.258800000 0.000000000 0.965900000
vn -0.707100000 0.000000000 0.707100000
vn -0.965900000 0.000000000 0.258800000
vn -0.965900000 0.000000000 -0.258800000
vn -0.258800000 0.000000000 -0.965900000
vn -0.707100000 0.000000000 -0.707100000
vn 0.000000000 -1.000000000 0.000000000
vn -0.953600000 0.158900000 -0.255500000
vn -0.698100000 0.158900000 -0.698100000
vn -0.255500000 0.158900000 -0.953600000
vn 0.255500000 0.158900000 -0.953600000
vn 0.698100000 0.158900000 -0.698100000
vn 0.953600000 0.158900000 -0.255500000
vn 0.953600000 0.158900000 0.255500000
vn 0.698100000 0.158900000 0.698100000
vn 0.255500000 0.158900000 0.953600000
vn -0.255500000 0.158900000 0.953600000
vn -0.698100000 0.158900000 0.698100000
vn -0.953600000 0.158900000 0.255500000
vn 0.000000000 1.000000000 0.000000000
s off
f 1/1/1 2/2/1 3/3/1
f 1/1/1 3/3/1 4/4/1
f 3/3/1 5/5/1 6/6/1
f 3/3/1 6/6/1 4/4/1
f 5/5/1 7/7/1 8/8/1
f 5/5/1 8/8/1 6/6/1
f 7/7/1 9/9/1 10/10/1
f 7/7/1 10/10/1 8/8/1
f 9/9/1 11/11/1 12/12/1
f 9/9/1 12/12/1 10/10/1
f 11/11/1 13/13/1 14/14/1
f 11/11/1 14/14/1 12/12/1
f 13/13/1 15/15/1 14/14/1
f 2/2/2 16/16/2 17/17/2
f 2/2/2 17/17/2 18/18/2
f 17/17/2 19/19/2 20/20/2
f 17/17/2 20/20/2 18/18/2
f 19/19/2 21/21/2 22/22/2
f 19/19/2 22/22/2 20/20/2
f 21/21/2 23/23/2 24/24/2
f 21/21/2 24/24/2 22/22/2
f 23/23/2 25/25/2 26/26/2
f 23/23/2 26/26/2 24/24/2
f 25/25/2 27/27/2 28/28/2
f 25/25/2 28/28/2 26/26/2
f 27/27/2 29/29/2 28/28/2
f 16/16/3 30/30/3 31/31/3
f 16/16/3 31/31/3 32/32/3
f 31/31/3 33/33/3 34/34/3
f 31/31/3 34/34/3 32/32/3
f 33/33/3 35/35/3 36/36/3
f 33/33/3 36/36/3 34/34/3
f 35/35/3 37/37/3 38/38/3
f 35/35/3 38/38/3 36/36/3
f 37/37/3 39/39/3 40/40/3
f 37/37/3 40/40/3 38/38/3
f 39/39/3 41/41/3 42/42/3
f 39/39/3 42/42/3 40/40/3
f 41/41/3 43/43/3 42/42/3
f 30/30/3 44/44/3 45/45/3
f 30/30/3 45/45/3 31/31/3
f 45/45/3 46/46/3 33/33/3
f 45/45/3 33/33/3 31/31/3
f 46/46/3 47/47/3 35/35/3
f 46/46/3 35/35/3 33/33/3
f 47/47/3 48/48/3 37/37/3
f 47/47/3 37/37/3 35/35/3
f 48/48/3 49/49/3 39/39/3
f 48/48/3 39/39/3 37/37/3
f 49/49/3 50/50/3 41/41/3
f 49/49/3 41/41/3 39/39/3
f 50/50/3 51/51/3 43/43/3
f 50/50/3 43/43/3 41/41/3
f 44/44/4 52/52/4 53/53/4
f 44/44/4 53/53/4 54/54/4
f 53/53/4 55/55/4 56/56/4
f 53/53/4 56/56/4 54/54/4
f 55/55/4 57/57/4 58/58/4
f 55/55/4 58/58/4 56/56/4
f 57/57/4 59/59/4 60/60/4
f 57/57/4 60/60/4 58/58/4
f 59/59/4 61/61/4 62/62/4
f 59/59/4 62/62/4 60/60/4
f 61/61/4 63/63/4 64/64/4
f 61/61/4 64/64/4 62/62/4
f 63/63/4 65/65/4 64/64/4
f 52/52/4 66/66/4 67/67/4
f 52/52/4 67/67/4 53/53/4
f 67/67/4 68/68/4 55/55/4
f 67/67/4 55/55/4 53/53/4
f 68/68/4 69/69/4 57/57/4
f 68/68/4 57/57/4 55/55/4
f 69/69/4 70/70/4 59/59/4
f 69/69/4 59/59/4 57/57/4
f 70/70/4 71/71/4 61/61/4
f 70/70/4 61/61/4 59/59/4
f 71/71/4 72/72/4 63/63/4
f 71/71/4 63/63/4 61/61/4
f 72/72/4 73/73/4 65/65/4
f 72/72/4 65/65/4 63/63/4
f 66/66/5 74/74/5 75/75/5
f 66/66/5 75/75/5 76/76/5
f 75/75/5 77/77/5 78/78/5
f 75/75/5 78/78/5 76/76/5
f 77/77/5 79/79/5 80/80/5
f 77/77/5 80/80/5 78/78/5
f 79/79/5 81/81/5 82/82/5
f 79/79/5 82/82/5 80/80/5
f 81/81/5 83/83/5 84/84/5
f 81/81/5 84/84/5 82/82/5
f 83/83/5 85/85/5 86/86/5
f 83/83/5 86/86/5 84/84/5
f 85/85/5 87/87/5 86/86/5
f 74/74/6 88/88/6 89/89/6
f 74/74/6 89/89/6 90/90/6
f 89/89/6 91/91/6 92/92/6
f 89/89/6 92/92/6 90/90/6
f 91/91/6 93/93/6 94/94/6
f 91/91/6 94/94/6 92/92/6
f 93/93/6 95/95/6 96/96/6
f 93/93/6 96/96/6 94/94/6
f 95/95/6 97/97/6 98/98/6
f 95/95/6 98/98/6 96/96/6
f 97/97/6 99/99/6 100/100/6
f 97/97/6 100/100/6 98/98/6
f 99/99/6 101/101/6 100/100/6
f 88/88/7 102/102/7 103/103/7
f 88/88/7 103/103/7 104/104/7
f 103/103/7 105/105/7 106/106/7
f 103/103/7 106/106/7 104/104/7
f 105/105/7 107/107/7 108/108/7
f 105/105/7 108/108/7 106/106/7
f 107/107/7 109/109/7 110/110/7
f 107/107/7 110/110/7 108/108/7
f 109/109/7 111/111/7 112/112/7
f 109/109/7 112/112/7 110/110/7
f 111/111/7 113/113/7 114/114/7
f 111/111/7 114/114/7 112/112/7
f 113/113/7 115/115/7 114/114/7
f 102/102/8 116/116/8 117/117/8
f 102/102/8 117/117/8 118/118/8
f 117/117/8 119/119/8 120/120/8
f 117/117/8 120/120/8 118/118/8
f 119/119/8 121/121/8 122/122/8
f 119/119/8 122/122/8 120/120/8
f 121/121/8 123/123/8 124/124/8
f 121/121/8 124/124/8 122/122/8
f 123/123/8 125/125/8 126/126/8
f 123/123/8 126/126/8 124/124/8
f 125/125/8 127/127/8 128/128/8
f 125/125/8 128/128/8 126/126/8
f 127/127/8 129/129/8 128/128/8
f 116/116/9 130/130/9 131/131/9
f 116/116/9 131/131/9 132/132/9
f 131/131/9 133/133/9 134/134/9
f 131/131/9 134/134/9 132/132/9
f 133/133/9 135/135/9 136/136/9
f 133/133/9 136/136/9 134/134/9
f 135/135/9 137/137/9 138/138/9
f 135/135/9 138/138/9 136/136/9
f 137/137/9 139/139/9 140/140/9
f 137/137/9 140/140/9 138/138/9
f 139/139/9 141/141/9 142/142/9
f 139/139/9 142/142/9 140/140/9
f 141/141/9 143/143/9 142/142/9
f 130/130/9 144/144/9 145/145/9
f 130/130/9 145/145/9 131/131/9
f 145/145/9 146/146/9 133/133/9
f 145/145/9 133/133/9 131/131/9
f 146/146/9 147/147/9 135/135/9
f 146/146/9 135/135/9 133/133/9
f 147/147/9 148/148/9 137/137/9
f 147/147/9 137/137/9 135/135/9
f 148/148/9 149/149/9 139/139/9
f 148/148/9 139/139/9 137/137/9
f 149/149/9 150/150/9 141/141/9
f 149/149/9 141/141/9 139/139/9
f 150/150/9 151/151/9 143/143/9
f 150/150/9 143/143/9 141/141/9
f 144/152/10 152/153/10 153/154/10
f 144/152/10 153/154/10 154/155/10
f 153/154/10 155/156/10 156/157/10
f 153/154/10 156/157/10 154/155/10
f 155/156/10 157/158/10 158/159/10
f 155/156/10 158/159/10 156/157/10
f 157/158/10 159/160/10 160/161/10
f 157/158/10 160/161/10 158/159/10
f 159/160/10 161/162/10 162/163/10
f 159/160/10 162/163/10 160/161/10
f 161/162/10 163/164/10 164/165/10
f 161/162/10 164/165/10 162/163/10
f 163/164/10 165/166/10 164/165/10
f 152/153/10 166/167/10 167/168/10
f 152/153/10 167/168/10 153/154/10
f 167/168/10 168/169/10 155/156/10
f 167/168/10 155/156/10 153/154/10
f 168/169/10 169/170/10 157/158/10
f 168/169/10 157/158/10 155/156/10
f 169/170/10 170/171/10 159/160/10
f 169/170/10 159/160/10 157/158/10
f 170/171/10 171/172/10 161/162/10
f 170/171/10 161/162/10 159/160/10
f 171/172/10 172/173/10 163/164/10
f 171/172/10 163/164/10 161/162/10
f 172/173/10 173/174/10 165/166/10
f 172/173/10 165/166/10 163/164/10
f 174/175/11 1/1/11 175/176/11
f 174/175/11 175/176/11 176/177/11
f 175/176/11 177/178/11 178/179/11
f 175/176/11 178/179/11 176/177/11
f 177/178/11 179/180/11 180/181/11
f 177/178/11 180/181/11 178/179/11
f 179/180/11 181/182/11 182/183/11
f 179/180/11 182/183/11 180/181/11
f 181/182/11 183/184/11 184/185/11
f 181/182/11 184/185/11 182/183/11
f 183/184/11 185/186/11 186/187/11
f 183/184/11 186/187/11 184/185/11
f 185/186/11 187/188/11 186/187/11
f 166/167/12 174/175/12 188/189/12
f 166/167/12 188/189/12 189/190/12
f 188/189/12 190/191/12 191/192/12
f 188/189/12 191/192/12 189/190/12
f 190/191/12 192/193/12 193/194/12
f 190/191/12 193/194/12 191/192/12
f 192/193/12 194/195/12 195/196/12
f 192/193/12 195/196/12 193/194/12
f 194/195/12 196/197/12 197/198/12
f 194/195/12 197/198/12 195/196/12
f 196/197/12 198/199/12 199/200/12
f 196/197/12 199/200/12 197/198/12
f 198/199/12 200/201/12 199/200/12
f 51/202/13 151/203/13 200/204/13
f 152/153/14 144/152/14 201/205/14
f 152/153/14 201/205/14 202/206/14
f 166/167/14 152/153/14 202/206/14
f 174/175/15 166/167/15 203/207/15
f 1/1/16 174/175/16 204/208/16
f 1/1/17 205/209/17 206/210/17
f 2/2/18 206/210/18 207/211/18
f 16/16/19 207/211/19 208/212/19
f 16/16/19 208/212/19 209/213/19
f 208/212/19 210/214/19 209/213/19
f 52/52/20 44/44/20 210/214/20
f 52/52/20 210/214/20 211/215/20
f 66/66/20 52/52/20 211/215/20
f 74/74/21 66/66/21 212/216/21
f 74/74/22 213/217/22 214/218/22
f 88/88/23 214/218/23 215/219/23
f 102/102/24 215/219/24 216/220/24
f 116/116/25 216/220/25 217/221/25
f 116/116/25 217/221/25 218/222/25
f 217/221/25 201/223/25 218/222/25
f 216/220/9 219/224/9 220/225/9
f 216/220/9 220/225/9 221/226/9
f 220/225/9 222/227/9 221/226/9
f 219/228/26 223/229/26 224/230/26
f 206/210/2 225/231/2 226/232/2
f 204/208/11 227/233/11 224/234/11
f 212/216/5 223/235/5 228/236/5
f 215/219/8 229/237/8 219/224/8
f 205/209/1 224/234/1 225/231/1
f 203/207/12 230/238/12 227/233/12
f 210/214/4 231/239/4 232/240/4
f 210/214/4 232/240/4 233/241/4
f 232/240/4 223/235/4 233/241/4
f 214/218/7 234/242/7 229/237/7
f 201/205/10 222/243/10 235/244/10
f 201/205/10 235/244/10 236/245/10
f 235/244/10 230/238/10 236/245/10
f 207/211/3 226/232/3 237/246/3
f 207/211/3 237/246/3 238/247/3
f 237/246/3 231/239/3 238/247/3
f 214/218/6 213/217/6 228/236/6
f 175/176/1 1/1/1 4/4/1
f 177/178/1 175/176/1 4/4/1
f 177/178/1 4/4/1 6/6/1
f 179/180/1 177/178/1 6/6/1
f 179/180/1 6/6/1 8/8/1
f 181/182/1 179/180/1 8/8/1
f 181/182/1 8/8/1 10/10/1
f 183/184/1 181/182/1 10/10/1
f 183/184/1 10/10/1 12/12/1
f 185/186/1 183/184/1 12/12/1
f 185/186/1 12/12/1 14/14/1
f 187/188/1 185/186/1 14/14/1
f 187/188/1 14/14/1 15/15/1
f 3/3/2 2/2/2 18/18/2
f 5/5/2 3/3/2 18/18/2
f 5/5/2 18/18/2 20/20/2
f 7/7/2 5/5/2 20/20/2
f 7/7/2 20/20/2 22/22/2
f 9/9/2 7/7/2 22/22/2
f 9/9/2 22/22/2 24/24/2
f 11/11/2 9/9/2 24/24/2
f 11/11/2 24/24/2 26/26/2
f 13/13/2 11/11/2 26/26/2
f 13/13/2 26/26/2 28/28/2
f 15/15/2 13/13/2 28/28/2
f 15/15/2 28/28/2 29/29/2
f 17/17/3 16/16/3 32/32/3
f 19/19/3 17/17/3 32/32/3
f 19/19/3 32/32/3 34/34/3
f 21/21/3 19/19/3 34/34/3
f 21/21/3 34/34/3 36/36/3
f 23/23/3 21/21/3 36/36/3
f 23/23/3 36/36/3 38/38/3
f 25/25/3 23/23/3 38/38/3
f 25/25/3 38/38/3 40/40/3
f 27/27/3 25/25/3 40/40/3
f 27/27/3 40/40/3 42/42/3
f 29/29/3 27/27/3 42/42/3
f 29/29/3 42/42/3 43/43/3
f 29/29/3 43/43/3 239/248/3
f 43/43/3 51/51/3 239/248/3
f 45/45/4 44/44/4 54/54/4
f 46/46/4 45/45/4 54/54/4
f 46/46/4 54/54/4 56/56/4
f 47/47/4 46/46/4 56/56/4
f 47/47/4 56/56/4 58/58/4
f 48/48/4 47/47/4 58/58/4
f 48/48/4 58/58/4 60/60/4
f 49/49/4 48/48/4 60/60/4
f 49/49/4 60/60/4 62/62/4
f 50/50/4 49/49/4 62/62/4
f 50/50/4 62/62/4 64/64/4
f 51/51/4 50/50/4 64/64/4
f 51/51/4 64/64/4 65/65/4
f 51/51/4 65/65/4 240/249/4
f 65/65/4 73/73/4 240/249/4
f 67/67/5 66/66/5 76/76/5
f 68/68/5 67/67/5 76/76/5
f 68/68/5 76/76/5 78/78/5
f 69/69/5 68/68/5 78/78/5
f 69/69/5 78/78/5 80/80/5
f 70/70/5 69/69/5 80/80/5
f 70/70/5 80/80/5 82/82/5
f 71/71/5 70/70/5 82/82/5
f 71/71/5 82/82/5 84/84/5
f 72/72/5 71/71/5 84/84/5
f 72/72/5 84/84/5 86/86/5
f 73/73/5 72/72/5 86/86/5
f 73/73/5 86/86/5 87/87/5
f 75/75/6 74/74/6 90/90/6
f 77/77/6 75/75/6 90/90/6
f 77/77/6 90/90/6 92/92/6
f 79/79/6 77/77/6 92/92/6
f 79/79/6 92/92/6 94/94/6
f 81/81/6 79/79/6 94/94/6
f 81/81/6 94/94/6 96/96/6
f 83/83/6 81/81/6 96/96/6
f 83/83/6 96/96/6 98/98/6
f 85/85/6 83/83/6 98/98/6
f 85/85/6 98/98/6 100/100/6
f 87/87/6 85/85/6 100/100/6
f 87/87/6 100/100/6 101/101/6
f 89/89/7 88/88/7 104/104/7
f 91/91/7 89/89/7 104/104/7
f 91/91/7 104/104/7 106/106/7
f 93/93/7 91/91/7 106/106/7
f 93/93/7 106/106/7 108/108/7
f 95/95/7 93/93/7 108/108/7
f 95/95/7 108/108/7 110/110/7
f 97/97/7 95/95/7 110/110/7
f 97/97/7 110/110/7 112/112/7
f 99/99/7 97/97/7 112/112/7
f 99/99/7 112/112/7 114/114/7
f 101/101/7 99/99/7 114/114/7
f 101/101/7 114/114/7 115/115/7
f 103/103/8 102/102/8 118/118/8
f 105/105/8 103/103/8 118/118/8
f 105/105/8 118/118/8 120/120/8
f 107/107/8 105/105/8 120/120/8
f 107/107/8 120/120/8 122/122/8
f 109/109/8 107/107/8 122/122/8
f 109/109/8 122/122/8 124/124/8
f 111/111/8 109/109/8 124/124/8
f 111/111/8 124/124/8 126/126/8
f 113/113/8 111/111/8 126/126/8
f 113/113/8 126/126/8 128/128/8
f 115/115/8 113/113/8 128/128/8
f 115/115/8 128/128/8 129/129/8
f 117/117/9 116/116/9 132/132/9
f 119/119/9 117/117/9 132/132/9
f 119/119/9 132/132/9 134/134/9
f 121/121/9 119/119/9 134/134/9
f 121/121/9 134/134/9 136/136/9
f 123/123/9 121/121/9 136/136/9
f 123/123/9 136/136/9 138/138/9
f 125/125/9 123/123/9 138/138/9
f 125/125/9 138/138/9 140/140/9
f 127/127/9 125/125/9 140/140/9
f 127/127/9 140/140/9 142/142/9
f 129/129/9 127/127/9 142/142/9
f 129/129/9 142/142/9 143/143/9
f 129/129/9 143/143/9 241/250/9
f 143/143/9 151/151/9 241/250/9
f 242/251/10 144/152/10 154/155/10
f 243/252/10 242/251/10 154/155/10
f 243/252/10 154/155/10 156/157/10
f 244/253/10 243/252/10 156/157/10
f 244/253/10 156/157/10 158/159/10
f 245/254/10 244/253/10 158/159/10
f 245/254/10 158/159/10 160/161/10
f 246/255/10 245/254/10 160/161/10
f 246/255/10 160/161/10 162/163/10
f 247/256/10 246/255/10 162/163/10
f 247/256/10 162/163/10 164/165/10
f 151/257/10 247/256/10 164/165/10
f 151/257/10 164/165/10 165/166/10
f 151/257/10 165/166/10 248/258/10
f 165/166/10 173/174/10 248/258/10
f 188/189/11 174/175/11 176/177/11
f 190/191/11 188/189/11 176/177/11
f 190/191/11 176/177/11 178/179/11
f 192/193/11 190/191/11 178/179/11
f 192/193/11 178/179/11 180/181/11
f 194/195/11 192/193/11 180/181/11
f 194/195/11 180/181/11 182/183/11
f 196/197/11 194/195/11 182/183/11
f 196/197/11 182/183/11 184/185/11
f 198/199/11 196/197/11 184/185/11
f 198/199/11 184/185/11 186/187/11
f 200/201/11 198/199/11 186/187/11
f 200/201/11 186/187/11 187/188/11
f 167/168/12 166/167/12 189/190/12
f 168/169/12 167/168/12 189/190/12
f 168/169/12 189/190/12 191/192/12
f 169/170/12 168/169/12 191/192/12
f 169/170/12 191/192/12 193/194/12
f 170/171/12 169/170/12 193/194/12
f 170/171/12 193/194/12 195/196/12
f 171/172/12 170/171/12 195/196/12
f 171/172/12 195/196/12 197/198/12
f 172/173/12 171/172/12 197/198/12
f 172/173/12 197/198/12 199/200/12
f 173/174/12 172/173/12 199/200/12
f 173/174/12 199/200/12 200/201/12
f 200/204/13 187/259/13 15/260/13
f 15/260/13 29/261/13 51/202/13
f 51/202/13 73/262/13 87/263/13
f 87/263/13 101/264/13 115/265/13
f 115/265/13 129/266/13 151/203/13
f 151/203/13 173/267/13 200/204/13
f 200/204/13 15/260/13 51/202/13
f 51/202/13 87/263/13 115/265/13
f 115/265/13 151/203/13 51/202/13
f 202/206/14 201/205/14 249/268/14
f 203/207/14 166/167/14 202/206/14
f 203/207/14 202/206/14 249/268/14
f 204/208/15 174/175/15 203/207/15
f 205/209/16 1/1/16 204/208/16
f 2/2/17 1/1/17 206/210/17
f 16/16/18 2/2/18 207/211/18
f 30/30/19 16/16/19 209/213/19
f 44/44/19 30/30/19 209/213/19
f 44/44/19 209/213/19 210/214/19
f 211/215/20 210/214/20 250/269/20
f 212/216/20 66/66/20 211/215/20
f 212/216/20 211/215/20 250/269/20
f 213/217/21 74/74/21 212/216/21
f 88/88/22 74/74/22 214/218/22
f 102/102/23 88/88/23 215/219/23
f 116/116/24 102/102/24 216/220/24
f 130/130/25 116/116/25 218/222/25
f 144/144/25 130/130/25 218/222/25
f 144/144/25 218/222/25 201/223/25
f 217/221/9 216/220/9 221/226/9
f 201/223/9 217/221/9 221/226/9
f 201/223/9 221/226/9 222/227/9
f 224/230/26 227/270/26 230/271/26
f 230/271/26 222/272/26 224/230/26
f 219/228/26 229/273/26 234/274/26
f 234/274/26 228/275/26 223/229/26
f 223/229/26 231/276/26 226/277/26
f 226/277/26 225/278/26 223/229/26
f 224/230/26 222/272/26 219/228/26
f 219/228/26 234/274/26 223/229/26
f 223/229/26 225/278/26 224/230/26
f 207/211/2 206/210/2 226/232/2
f 205/209/11 204/208/11 224/234/11
f 213/217/5 212/216/5 228/236/5
f 216/220/8 215/219/8 219/224/8
f 206/210/1 205/209/1 225/231/1
f 204/208/12 203/207/12 227/233/12
f 250/269/4 210/214/4 233/241/4
f 212/216/4 250/269/4 233/241/4
f 212/216/4 233/241/4 223/235/4
f 215/219/7 214/218/7 229/237/7
f 249/268/10 201/205/10 236/245/10
f 203/207/10 249/268/10 236/245/10
f 203/207/10 236/245/10 230/238/10
f 208/212/3 207/211/3 238/247/3
f 210/214/3 208/212/3 238/247/3
f 210/214/3 238/247/3 231/239/3
f 234/242/6 214/218/6 228/236/6
