# Minuteman III: centered markings on both sides; geometry preserved by planar subdivision.
# UV translations use measured PNG pixel centers; transitions lie between markings.
o Minuteman
v 0.000000000 16.000000000 -1.000000000
v 0.250000000 16.000000000 -0.933012500
v 0.250000000 10.140625000 -0.933012500
v 0.183105469 10.140625000 -0.950936890
v 0.250000000 9.968750000 -0.933012500
v 0.188476562 9.968750000 -0.949497705
v 0.250000000 8.656250000 -0.933012500
v 0.229492188 8.656250000 -0.938507568
v 0.250000000 8.265625000 -0.933012500
v 0.241699219 8.265625000 -0.935236694
v 0.250000000 8.000000000 -0.933012500
v 0.500000000 16.000000000 -0.866025000
v 0.500000000 10.140625000 -0.866025000
v 0.500000000 9.968750000 -0.866025000
v 0.500000000 8.656250000 -0.866025000
v 0.500000000 8.265625000 -0.866025000
v 0.500000000 7.171875000 -0.866025000
v 0.275878906 7.171875000 -0.926078247
v 0.500000000 6.312500000 -0.866025000
v 0.302734375 6.312500000 -0.918882324
v 0.500000000 0.000000000 -0.866025000
v 0.866025000 16.000000000 -0.500000000
v 0.866025000 10.140625000 -0.500000000
v 0.634042358 10.140625000 -0.731982642
v 0.866025000 9.968750000 -0.500000000
v 0.637974268 9.968750000 -0.728050732
v 0.866025000 8.656250000 -0.500000000
v 0.667999756 8.656250000 -0.698025244
v 0.866025000 8.265625000 -0.500000000
v 0.676935913 8.265625000 -0.689089087
v 0.866025000 7.171875000 -0.500000000
v 0.701957153 7.171875000 -0.664067847
v 0.866025000 6.312500000 -0.500000000
v 0.721616699 6.312500000 -0.644408301
v 0.866025000 0.000000000 -0.500000000
v 1.000000000 16.000000000 -0.000000000
v 1.000000000 10.140625000 0.000000000
v 0.915088110 10.140625000 -0.316894531
v 1.000000000 9.968750000 0.000000000
v 0.916527295 9.968750000 -0.311523438
v 1.000000000 8.656250000 0.000000000
v 0.927517432 8.656250000 -0.270507812
v 1.000000000 8.265625000 0.000000000
v 0.930788306 8.265625000 -0.258300781
v 1.000000000 7.171875000 0.000000000
v 0.939946753 7.171875000 -0.224121094
v 1.000000000 6.312500000 0.000000000
v 0.947142676 6.312500000 -0.197265625
v 1.000000000 0.000000000 -0.000000000
v 0.866025000 16.000000000 0.500000000
v 0.866025000 10.140625000 0.500000000
v 0.950936890 10.140625000 0.183105469
v 0.866025000 9.968750000 0.500000000
v 0.949497705 9.968750000 0.188476562
v 0.866025000 8.656250000 0.500000000
v 0.938507568 8.656250000 0.229492188
v 0.866025000 8.265625000 0.500000000
v 0.935236694 8.265625000 0.241699219
v 0.866025000 7.171875000 0.500000000
v 0.926078247 7.171875000 0.275878906
v 0.866025000 6.312500000 0.500000000
v 0.918882324 6.312500000 0.302734375
v 0.866025000 0.000000000 0.500000000
v 0.500000000 16.000000000 0.866025000
v 0.500000000 10.140625000 0.866025000
v 0.731982642 10.140625000 0.634042358
v 0.500000000 9.968750000 0.866025000
v 0.728050732 9.968750000 0.637974268
v 0.500000000 8.656250000 0.866025000
v 0.698025244 8.656250000 0.667999756
v 0.500000000 8.265625000 0.866025000
v 0.689089087 8.265625000 0.676935913
v 0.500000000 7.171875000 0.866025000
v 0.664067847 7.171875000 0.701957153
v 0.500000000 6.312500000 0.866025000
v 0.644408301 6.312500000 0.721616699
v 0.500000000 0.000000000 0.866025000
v 0.250000000 16.000000000 0.933012500
v 0.250000000 10.140625000 0.933012500
v 0.316894531 10.140625000 0.915088110
v 0.250000000 9.968750000 0.933012500
v 0.311523438 9.968750000 0.916527295
v 0.250000000 8.656250000 0.933012500
v 0.270507812 8.656250000 0.927517432
v 0.250000000 8.265625000 0.933012500
v 0.258300781 8.265625000 0.930788306
v 0.250000000 8.000000000 0.933012500
v 0.000000000 16.000000000 1.000000000
v 0.000000000 10.140625000 1.000000000
v 0.000000000 9.968750000 1.000000000
v 0.000000000 8.656250000 1.000000000
v 0.000000000 8.265625000 1.000000000
v 0.000000000 7.171875000 1.000000000
v 0.224121094 7.171875000 0.939946753
v 0.000000000 6.312500000 1.000000000
v 0.197265625 6.312500000 0.947142676
v 0.000000000 0.000000000 1.000000000
v -0.250000000 16.000000000 0.933012500
v -0.250000000 10.140625000 0.933012500
v -0.183105469 10.140625000 0.950936890
v -0.250000000 9.968750000 0.933012500
v -0.188476562 9.968750000 0.949497705
v -0.250000000 8.656250000 0.933012500
v -0.229492188 8.656250000 0.938507568
v -0.250000000 8.265625000 0.933012500
v -0.241699219 8.265625000 0.935236694
v -0.250000000 8.000000000 0.933012500
v -0.500000000 16.000000000 0.866025000
v -0.500000000 10.140625000 0.866025000
v -0.500000000 9.968750000 0.866025000
v -0.500000000 8.656250000 0.866025000
v -0.500000000 8.265625000 0.866025000
v -0.500000000 7.171875000 0.866025000
v -0.275878906 7.171875000 0.926078247
v -0.500000000 6.312500000 0.866025000
v -0.302734375 6.312500000 0.918882324
v -0.500000000 0.000000000 0.866025000
v -0.866025000 16.000000000 0.500000000
v -0.866025000 10.140625000 0.500000000
v -0.634042358 10.140625000 0.731982642
v -0.866025000 9.968750000 0.500000000
v -0.637974268 9.968750000 0.728050732
v -0.866025000 8.656250000 0.500000000
v -0.667999756 8.656250000 0.698025244
v -0.866025000 8.265625000 0.500000000
v -0.676935913 8.265625000 0.689089087
v -0.866025000 7.171875000 0.500000000
v -0.701957153 7.171875000 0.664067847
v -0.866025000 6.312500000 0.500000000
v -0.721616699 6.312500000 0.644408301
v -0.866025000 0.000000000 0.500000000
v -1.000000000 16.000000000 0.000000000
v -1.000000000 10.140625000 0.000000000
v -0.915088110 10.140625000 0.316894531
v -1.000000000 9.968750000 0.000000000
v -0.916527295 9.968750000 0.311523438
v -1.000000000 8.656250000 0.000000000
v -0.927517432 8.656250000 0.270507812
v -1.000000000 8.265625000 0.000000000
v -0.930788306 8.265625000 0.258300781
v -1.000000000 7.171875000 0.000000000
v -0.939946753 7.171875000 0.224121094
v -1.000000000 6.312500000 0.000000000
v -0.947142676 6.312500000 0.197265625
v -1.000000000 0.000000000 0.000000000
v -0.866026000 16.000000000 -0.500000000
v -0.866026000 10.140625000 -0.500000000
v -0.950937256 10.140625000 -0.183105469
v -0.866026000 9.968750000 -0.500000000
v -0.949498082 9.968750000 -0.188476562
v -0.866026000 8.656250000 -0.500000000
v -0.938508027 8.656250000 -0.229492188
v -0.866026000 8.265625000 -0.500000000
v -0.935237178 8.265625000 -0.241699219
v -0.866026000 7.171875000 -0.500000000
v -0.926078799 7.171875000 -0.275878906
v -0.866026000 6.312500000 -0.500000000
v -0.918882930 6.312500000 -0.302734375
v -0.866026000 0.000000000 -0.500000000
v -0.500001000 16.000000000 -0.866025000
v -0.250000500 16.000000000 -0.933012500
v -0.250000500 10.140625000 -0.933012500
v -0.316895165 10.140625000 -0.915088110
v -0.250000500 9.968750000 -0.933012500
v -0.311524061 9.968750000 -0.916527295
v -0.250000500 8.656250000 -0.933012500
v -0.270508354 8.656250000 -0.927517432
v -0.250000500 8.265625000 -0.933012500
v -0.258301298 8.265625000 -0.930788306
v -0.250000500 8.000000000 -0.933012500
v 0.000000000 10.140625000 -1.000000000
v 0.000000000 9.968750000 -1.000000000
v 0.000000000 8.656250000 -1.000000000
v 0.000000000 8.265625000 -1.000000000
v 0.000000000 7.171875000 -1.000000000
v -0.224121542 7.171875000 -0.939946753
v 0.000000000 6.312500000 -1.000000000
v -0.197266020 6.312500000 -0.947142676
v 0.000000000 0.000000000 -1.000000000
v -0.500001000 10.140625000 -0.866025000
v -0.731983642 10.140625000 -0.634042358
v -0.500001000 9.968750000 -0.866025000
v -0.728051732 9.968750000 -0.637974268
v -0.500001000 8.656250000 -0.866025000
v -0.698026244 8.656250000 -0.667999756
v -0.500001000 8.265625000 -0.866025000
v -0.689090087 8.265625000 -0.676935913
v -0.500001000 7.171875000 -0.866025000
v -0.664068847 7.171875000 -0.701957153
v -0.500001000 6.312500000 -0.866025000
v -0.644409301 6.312500000 -0.721616699
v -0.500001000 0.000000000 -0.866025000
v 0.250000000 7.171875000 -0.933012500
v 0.250000000 6.312500000 -0.933012500
v 0.250000000 0.000000000 -0.933012500
v 0.250000000 7.171875000 0.933012500
v 0.250000000 6.312500000 0.933012500
v 0.250000000 0.000000000 0.933012500
v -0.250000000 7.171875000 0.933012500
v -0.250000000 6.312500000 0.933012500
v -0.250000000 0.000000000 0.933012500
v -0.250000500 7.171875000 -0.933012500
v -0.250000500 6.312500000 -0.933012500
v -0.250000500 0.000000000 -0.933012500
vt 0.375000000 1.000000000
vt 0.351806641 1.000000000
vt 0.351806641 0.633789062
vt 0.358012676 0.633789062
vt 0.355468750 0.623046875
vt 0.360275269 0.623046875
vt 0.355468750 0.541015625
vt 0.357070923 0.541015625
vt 0.355957031 0.516601562
vt 0.356589317 0.516601562
vt 0.355957031 0.500000000
vt 0.336181641 1.000000000
vt 0.336181641 0.633789062
vt 0.339843750 0.623046875
vt 0.339843750 0.541015625
vt 0.340332031 0.516601562
vt 0.340332031 0.448242188
vt 0.354339600 0.448242188
vt 0.343750000 0.394531250
vt 0.356079102 0.394531250
vt 0.343750000 0.000000000
vt 0.304931641 1.000000000
vt 0.304931641 0.633789062
vt 0.324737549 0.633789062
vt 0.308593750 0.623046875
vt 0.328063965 0.623046875
vt 0.308593750 0.541015625
vt 0.325500488 0.541015625
vt 0.309082031 0.516601562
vt 0.325225830 0.516601562
vt 0.309082031 0.448242188
vt 0.323089600 0.448242188
vt 0.312500000 0.394531250
vt 0.324829102 0.394531250
vt 0.312500000 0.000000000
vt 0.273681641 1.000000000
vt 0.273681641 0.633789062
vt 0.293487549 0.633789062
vt 0.277343750 0.623046875
vt 0.296813965 0.623046875
vt 0.277343750 0.541015625
vt 0.294250488 0.541015625
vt 0.277832031 0.516601562
vt 0.293975830 0.516601562
vt 0.277832031 0.448242188
vt 0.291839600 0.448242188
vt 0.281250000 0.394531250
vt 0.293579102 0.394531250
vt 0.281250000 0.000000000
vt 0.242431641 1.000000000
vt 0.242431641 0.633789062
vt 0.262237549 0.633789062
vt 0.246093750 0.623046875
vt 0.265563965 0.623046875
vt 0.246093750 0.541015625
vt 0.263000488 0.541015625
vt 0.246582031 0.516601562
vt 0.262725830 0.516601562
vt 0.246582031 0.448242188
vt 0.260589600 0.448242188
vt 0.250000000 0.394531250
vt 0.262329102 0.394531250
vt 0.250000000 0.000000000
vt 0.211181641 1.000000000
vt 0.211181641 0.633789062
vt 0.230987549 0.633789062
vt 0.214843750 0.623046875
vt 0.234313965 0.623046875
vt 0.214843750 0.541015625
vt 0.231750488 0.541015625
vt 0.215332031 0.516601562
vt 0.231475830 0.516601562
vt 0.215332031 0.448242188
vt 0.229339600 0.448242188
vt 0.218750000 0.394531250
vt 0.231079102 0.394531250
vt 0.218750000 0.000000000
vt 0.195556641 1.000000000
vt 0.195556641 0.633789062
vt 0.199737549 0.633789062
vt 0.199218750 0.623046875
vt 0.203063965 0.623046875
vt 0.199218750 0.541015625
vt 0.200500488 0.541015625
vt 0.199707031 0.516601562
vt 0.200225830 0.516601562
vt 0.199707031 0.500000000
vt 0.187500000 1.000000000
vt 0.187500000 0.633789062
vt 0.187500000 0.623046875
vt 0.187500000 0.541015625
vt 0.187500000 0.516601562
vt 0.187500000 0.448242188
vt 0.198443413 0.448242188
vt 0.187500000 0.394531250
vt 0.199829102 0.394531250
vt 0.187500000 0.000000000
vt 0.183349609 1.000000000
vt 0.183349609 0.633789062
vt 0.184460163 0.633789062
vt 0.173828125 0.623046875
vt 0.177192688 0.623046875
vt 0.173828125 0.541015625
vt 0.174949646 0.541015625
vt 0.175781250 0.516601562
vt 0.176170349 0.516601562
vt 0.175781250 0.500000000
vt 0.167724609 1.000000000
vt 0.167724609 0.633789062
vt 0.158203125 0.623046875
vt 0.158203125 0.541015625
vt 0.160156250 0.516601562
vt 0.160156250 0.448242188
vt 0.174163818 0.448242188
vt 0.156250000 0.394531250
vt 0.168579102 0.394531250
vt 0.156250000 0.000000000
vt 0.136474609 1.000000000
vt 0.136474609 0.633789062
vt 0.156280518 0.633789062
vt 0.126953125 0.623046875
vt 0.146423340 0.623046875
vt 0.126953125 0.541015625
vt 0.143859863 0.541015625
vt 0.128906250 0.516601562
vt 0.145050049 0.516601562
vt 0.128906250 0.448242188
vt 0.142913818 0.448242188
vt 0.125000000 0.394531250
vt 0.137329102 0.394531250
vt 0.125000000 0.000000000
vt 0.105224609 1.000000000
vt 0.105224609 0.633789062
vt 0.125030518 0.633789062
vt 0.095703125 0.623046875
vt 0.115173340 0.623046875
vt 0.095703125 0.541015625
vt 0.112609863 0.541015625
vt 0.097656250 0.516601562
vt 0.113800049 0.516601562
vt 0.097656250 0.448242188
vt 0.111663818 0.448242188
vt 0.093750000 0.394531250
vt 0.106079102 0.394531250
vt 0.093750000 0.000000000
vt 0.073974609 1.000000000
vt 0.073974609 0.633789062
vt 0.093780518 0.633789062
vt 0.064453125 0.623046875
vt 0.083923340 0.623046875
vt 0.064453125 0.541015625
vt 0.081359863 0.541015625
vt 0.066406250 0.516601562
vt 0.082550049 0.516601562
vt 0.066406250 0.448242188
vt 0.080413818 0.448242188
vt 0.062500000 0.394531250
vt 0.074829102 0.394531250
vt 0.062500000 0.000000000
vt 0.398038000 0.100000000
vt 0.501962000 0.160000000
vt 0.501962000 0.100000000
vt 0.042724609 1.000000000
vt 0.027099609 1.000000000
vt 0.027099609 0.633789062
vt 0.031280518 0.633789062
vt 0.017578125 0.623046875
vt 0.021423340 0.623046875
vt 0.017578125 0.541015625
vt 0.018859863 0.541015625
vt 0.019531250 0.516601562
vt 0.020050049 0.516601562
vt 0.019531250 0.500000000
vt 0.000000000 1.000000000
vt 0.000000000 0.633789062
vt 0.000000000 0.623046875
vt 0.000000000 0.541015625
vt 0.000000000 0.516601562
vt 0.000000000 0.448242188
vt 0.017509460 0.448242188
vt 0.000000000 0.394531250
vt 0.012329102 0.394531250
vt 0.000000000 0.000000000
vt 0.042724609 0.633789062
vt 0.062530518 0.633789062
vt 0.033203125 0.623046875
vt 0.052673340 0.623046875
vt 0.033203125 0.541015625
vt 0.050109863 0.541015625
vt 0.035156250 0.516601562
vt 0.051300049 0.516601562
vt 0.035156250 0.448242188
vt 0.049163818 0.448242188
vt 0.031250000 0.394531250
vt 0.043579102 0.394531250
vt 0.031250000 0.000000000
vt 0.510000000 0.130000000
vt 0.390000000 0.130000000
vt 0.420000000 0.078039000
vt 0.375000000 0.633789062
vt 0.375000000 0.623046875
vt 0.375000000 0.541015625
vt 0.375000000 0.516601562
vt 0.375000000 0.448242188
vt 0.355957031 0.448242188
vt 0.375000000 0.394531250
vt 0.359375000 0.394531250
vt 0.375000000 0.000000000
vt 0.359375000 0.000000000
vt 0.199707031 0.448242188
vt 0.203125000 0.394531250
vt 0.203125000 0.000000000
vt 0.175781250 0.448242188
vt 0.171875000 0.394531250
vt 0.171875000 0.000000000
vt 0.480000000 0.078039000
vt 0.450000000 0.070000000
vt 0.398039000 0.160000000
vt 0.420000000 0.181961000
vt 0.450000000 0.190000000
vt 0.480000000 0.181961000
vt 0.019531250 0.448242188
vt 0.015625000 0.394531250
vt 0.015625000 0.000000000
vn 0.258800000 0.000000000 -0.965900000
vn 0.707100000 0.000000000 -0.707100000
vn 0.965900000 0.000000000 -0.258800000
vn 0.965900000 0.000000000 0.258800000
vn 0.707100000 0.000000000 0.707100000
vn 0.258800000 0.000000000 0.965900000
vn -0.258800000 0.000000000 0.965900000
vn -0.707100000 0.000000000 0.707100000
vn -0.965900000 0.000000000 0.258800000
vn -0.965900000 0.000000000 -0.258800000
vn 0.000000000 1.000000000 0.000000000
vn -0.258800000 0.000000000 -0.965900000
vn -0.707100000 0.000000000 -0.707100000
vn 0.000000000 -1.000000000 0.000000000
s off
f 1/1/1 2/2/1 3/3/1
f 1/1/1 3/3/1 4/4/1
f 3/3/1 5/5/1 6/6/1
f 3/3/1 6/6/1 4/4/1
f 5/5/1 7/7/1 8/8/1
f 5/5/1 8/8/1 6/6/1
f 7/7/1 9/9/1 10/10/1
f 7/7/1 10/10/1 8/8/1
f 9/9/1 11/11/1 10/10/1
f 2/2/1 12/12/1 13/13/1
f 2/2/1 13/13/1 3/3/1
f 13/13/1 14/14/1 5/5/1
f 13/13/1 5/5/1 3/3/1
f 14/14/1 15/15/1 7/7/1
f 14/14/1 7/7/1 5/5/1
f 15/15/1 16/16/1 9/9/1
f 15/15/1 9/9/1 7/7/1
f 16/16/1 17/17/1 18/18/1
f 16/16/1 18/18/1 11/11/1
f 16/16/1 11/11/1 9/9/1
f 17/17/1 19/19/1 20/20/1
f 17/17/1 20/20/1 18/18/1
f 19/19/1 21/21/1 20/20/1
f 12/12/2 22/22/2 23/23/2
f 12/12/2 23/23/2 24/24/2
f 23/23/2 25/25/2 26/26/2
f 23/23/2 26/26/2 24/24/2
f 25/25/2 27/27/2 28/28/2
f 25/25/2 28/28/2 26/26/2
f 27/27/2 29/29/2 30/30/2
f 27/27/2 30/30/2 28/28/2
f 29/29/2 31/31/2 32/32/2
f 29/29/2 32/32/2 30/30/2
f 31/31/2 33/33/2 34/34/2
f 31/31/2 34/34/2 32/32/2
f 33/33/2 35/35/2 34/34/2
f 22/22/3 36/36/3 37/37/3
f 22/22/3 37/37/3 38/38/3
f 37/37/3 39/39/3 40/40/3
f 37/37/3 40/40/3 38/38/3
f 39/39/3 41/41/3 42/42/3
f 39/39/3 42/42/3 40/40/3
f 41/41/3 43/43/3 44/44/3
f 41/41/3 44/44/3 42/42/3
f 43/43/3 45/45/3 46/46/3
f 43/43/3 46/46/3 44/44/3
f 45/45/3 47/47/3 48/48/3
f 45/45/3 48/48/3 46/46/3
f 47/47/3 49/49/3 48/48/3
f 36/36/4 50/50/4 51/51/4
f 36/36/4 51/51/4 52/52/4
f 51/51/4 53/53/4 54/54/4
f 51/51/4 54/54/4 52/52/4
f 53/53/4 55/55/4 56/56/4
f 53/53/4 56/56/4 54/54/4
f 55/55/4 57/57/4 58/58/4
f 55/55/4 58/58/4 56/56/4
f 57/57/4 59/59/4 60/60/4
f 57/57/4 60/60/4 58/58/4
f 59/59/4 61/61/4 62/62/4
f 59/59/4 62/62/4 60/60/4
f 61/61/4 63/63/4 62/62/4
f 50/50/5 64/64/5 65/65/5
f 50/50/5 65/65/5 66/66/5
f 65/65/5 67/67/5 68/68/5
f 65/65/5 68/68/5 66/66/5
f 67/67/5 69/69/5 70/70/5
f 67/67/5 70/70/5 68/68/5
f 69/69/5 71/71/5 72/72/5
f 69/69/5 72/72/5 70/70/5
f 71/71/5 73/73/5 74/74/5
f 71/71/5 74/74/5 72/72/5
f 73/73/5 75/75/5 76/76/5
f 73/73/5 76/76/5 74/74/5
f 75/75/5 77/77/5 76/76/5
f 64/64/6 78/78/6 79/79/6
f 64/64/6 79/79/6 80/80/6
f 79/79/6 81/81/6 82/82/6
f 79/79/6 82/82/6 80/80/6
f 81/81/6 83/83/6 84/84/6
f 81/81/6 84/84/6 82/82/6
f 83/83/6 85/85/6 86/86/6
f 83/83/6 86/86/6 84/84/6
f 85/85/6 87/87/6 86/86/6
f 78/78/6 88/88/6 89/89/6
f 78/78/6 89/89/6 79/79/6
f 89/89/6 90/90/6 81/81/6
f 89/89/6 81/81/6 79/79/6
f 90/90/6 91/91/6 83/83/6
f 90/90/6 83/83/6 81/81/6
f 91/91/6 92/92/6 85/85/6
f 91/91/6 85/85/6 83/83/6
f 92/92/6 93/93/6 94/94/6
f 92/92/6 94/94/6 87/87/6
f 92/92/6 87/87/6 85/85/6
f 93/93/6 95/95/6 96/96/6
f 93/93/6 96/96/6 94/94/6
f 95/95/6 97/97/6 96/96/6
f 88/88/7 98/98/7 99/99/7
f 88/88/7 99/99/7 100/100/7
f 99/99/7 101/101/7 102/102/7
f 99/99/7 102/102/7 100/100/7
f 101/101/7 103/103/7 104/104/7
f 101/101/7 104/104/7 102/102/7
f 103/103/7 105/105/7 106/106/7
f 103/103/7 106/106/7 104/104/7
f 105/105/7 107/107/7 106/106/7
f 98/98/7 108/108/7 109/109/7
f 98/98/7 109/109/7 99/99/7
f 109/109/7 110/110/7 101/101/7
f 109/109/7 101/101/7 99/99/7
f 110/110/7 111/111/7 103/103/7
f 110/110/7 103/103/7 101/101/7
f 111/111/7 112/112/7 105/105/7
f 111/111/7 105/105/7 103/103/7
f 112/112/7 113/113/7 114/114/7
f 112/112/7 114/114/7 107/107/7
f 112/112/7 107/107/7 105/105/7
f 113/113/7 115/115/7 116/116/7
f 113/113/7 116/116/7 114/114/7
f 115/115/7 117/117/7 116/116/7
f 108/108/8 118/118/8 119/119/8
f 108/108/8 119/119/8 120/120/8
f 119/119/8 121/121/8 122/122/8
f 119/119/8 122/122/8 120/120/8
f 121/121/8 123/123/8 124/124/8
f 121/121/8 124/124/8 122/122/8
f 123/123/8 125/125/8 126/126/8
f 123/123/8 126/126/8 124/124/8
f 125/125/8 127/127/8 128/128/8
f 125/125/8 128/128/8 126/126/8
f 127/127/8 129/129/8 130/130/8
f 127/127/8 130/130/8 128/128/8
f 129/129/8 131/131/8 130/130/8
f 118/118/9 132/132/9 133/133/9
f 118/118/9 133/133/9 134/134/9
f 133/133/9 135/135/9 136/136/9
f 133/133/9 136/136/9 134/134/9
f 135/135/9 137/137/9 138/138/9
f 135/135/9 138/138/9 136/136/9
f 137/137/9 139/139/9 140/140/9
f 137/137/9 140/140/9 138/138/9
f 139/139/9 141/141/9 142/142/9
f 139/139/9 142/142/9 140/140/9
f 141/141/9 143/143/9 144/144/9
f 141/141/9 144/144/9 142/142/9
f 143/143/9 145/145/9 144/144/9
f 132/132/10 146/146/10 147/147/10
f 132/132/10 147/147/10 148/148/10
f 147/147/10 149/149/10 150/150/10
f 147/147/10 150/150/10 148/148/10
f 149/149/10 151/151/10 152/152/10
f 149/149/10 152/152/10 150/150/10
f 151/151/10 153/153/10 154/154/10
f 151/151/10 154/154/10 152/152/10
f 153/153/10 155/155/10 156/156/10
f 153/153/10 156/156/10 154/154/10
f 155/155/10 157/157/10 158/158/10
f 155/155/10 158/158/10 156/156/10
f 157/157/10 159/159/10 158/158/10
f 146/160/11 50/161/11 22/162/11
f 160/163/12 161/164/12 162/165/12
f 160/163/12 162/165/12 163/166/12
f 162/165/12 164/167/12 165/168/12
f 162/165/12 165/168/12 163/166/12
f 164/167/12 166/169/12 167/170/12
f 164/167/12 167/170/12 165/168/12
f 166/169/12 168/171/12 169/172/12
f 166/169/12 169/172/12 167/170/12
f 168/171/12 170/173/12 169/172/12
f 161/164/12 1/174/12 171/175/12
f 161/164/12 171/175/12 162/165/12
f 171/175/12 172/176/12 164/167/12
f 171/175/12 164/167/12 162/165/12
f 172/176/12 173/177/12 166/169/12
f 172/176/12 166/169/12 164/167/12
f 173/177/12 174/178/12 168/171/12
f 173/177/12 168/171/12 166/169/12
f 174/178/12 175/179/12 176/180/12
f 174/178/12 176/180/12 170/173/12
f 174/178/12 170/173/12 168/171/12
f 175/179/12 177/181/12 178/182/12
f 175/179/12 178/182/12 176/180/12
f 177/181/12 179/183/12 178/182/12
f 146/146/13 160/163/13 180/184/13
f 146/146/13 180/184/13 181/185/13
f 180/184/13 182/186/13 183/187/13
f 180/184/13 183/187/13 181/185/13
f 182/186/13 184/188/13 185/189/13
f 182/186/13 185/189/13 183/187/13
f 184/188/13 186/190/13 187/191/13
f 184/188/13 187/191/13 185/189/13
f 186/190/13 188/192/13 189/193/13
f 186/190/13 189/193/13 187/191/13
f 188/192/13 190/194/13 191/195/13
f 188/192/13 191/195/13 189/193/13
f 190/194/13 192/196/13 191/195/13
f 49/197/14 145/198/14 192/199/14
f 171/200/1 1/1/1 4/4/1
f 172/201/1 171/200/1 4/4/1
f 172/201/1 4/4/1 6/6/1
f 173/202/1 172/201/1 6/6/1
f 173/202/1 6/6/1 8/8/1
f 174/203/1 173/202/1 8/8/1
f 174/203/1 8/8/1 10/10/1
f 175/204/1 174/203/1 10/10/1
f 175/204/1 10/10/1 11/11/1
f 175/204/1 11/11/1 193/205/1
f 177/206/1 175/204/1 193/205/1
f 177/206/1 193/205/1 194/207/1
f 179/208/1 177/206/1 194/207/1
f 179/208/1 194/207/1 195/209/1
f 11/11/1 18/18/1 193/205/1
f 18/18/1 20/20/1 194/207/1
f 18/18/1 194/207/1 193/205/1
f 20/20/1 21/21/1 195/209/1
f 20/20/1 195/209/1 194/207/1
f 13/13/2 12/12/2 24/24/2
f 14/14/2 13/13/2 24/24/2
f 14/14/2 24/24/2 26/26/2
f 15/15/2 14/14/2 26/26/2
f 15/15/2 26/26/2 28/28/2
f 16/16/2 15/15/2 28/28/2
f 16/16/2 28/28/2 30/30/2
f 17/17/2 16/16/2 30/30/2
f 17/17/2 30/30/2 32/32/2
f 19/19/2 17/17/2 32/32/2
f 19/19/2 32/32/2 34/34/2
f 21/21/2 19/19/2 34/34/2
f 21/21/2 34/34/2 35/35/2
f 23/23/3 22/22/3 38/38/3
f 25/25/3 23/23/3 38/38/3
f 25/25/3 38/38/3 40/40/3
f 27/27/3 25/25/3 40/40/3
f 27/27/3 40/40/3 42/42/3
f 29/29/3 27/27/3 42/42/3
f 29/29/3 42/42/3 44/44/3
f 31/31/3 29/29/3 44/44/3
f 31/31/3 44/44/3 46/46/3
f 33/33/3 31/31/3 46/46/3
f 33/33/3 46/46/3 48/48/3
f 35/35/3 33/33/3 48/48/3
f 35/35/3 48/48/3 49/49/3
f 37/37/4 36/36/4 52/52/4
f 39/39/4 37/37/4 52/52/4
f 39/39/4 52/52/4 54/54/4
f 41/41/4 39/39/4 54/54/4
f 41/41/4 54/54/4 56/56/4
f 43/43/4 41/41/4 56/56/4
f 43/43/4 56/56/4 58/58/4
f 45/45/4 43/43/4 58/58/4
f 45/45/4 58/58/4 60/60/4
f 47/47/4 45/45/4 60/60/4
f 47/47/4 60/60/4 62/62/4
f 49/49/4 47/47/4 62/62/4
f 49/49/4 62/62/4 63/63/4
f 51/51/5 50/50/5 66/66/5
f 53/53/5 51/51/5 66/66/5
f 53/53/5 66/66/5 68/68/5
f 55/55/5 53/53/5 68/68/5
f 55/55/5 68/68/5 70/70/5
f 57/57/5 55/55/5 70/70/5
f 57/57/5 70/70/5 72/72/5
f 59/59/5 57/57/5 72/72/5
f 59/59/5 72/72/5 74/74/5
f 61/61/5 59/59/5 74/74/5
f 61/61/5 74/74/5 76/76/5
f 63/63/5 61/61/5 76/76/5
f 63/63/5 76/76/5 77/77/5
f 65/65/6 64/64/6 80/80/6
f 67/67/6 65/65/6 80/80/6
f 67/67/6 80/80/6 82/82/6
f 69/69/6 67/67/6 82/82/6
f 69/69/6 82/82/6 84/84/6
f 71/71/6 69/69/6 84/84/6
f 71/71/6 84/84/6 86/86/6
f 73/73/6 71/71/6 86/86/6
f 73/73/6 86/86/6 87/87/6
f 73/73/6 87/87/6 196/210/6
f 75/75/6 73/73/6 196/210/6
f 75/75/6 196/210/6 197/211/6
f 77/77/6 75/75/6 197/211/6
f 77/77/6 197/211/6 198/212/6
f 87/87/6 94/94/6 196/210/6
f 94/94/6 96/96/6 197/211/6
f 94/94/6 197/211/6 196/210/6
f 96/96/6 97/97/6 198/212/6
f 96/96/6 198/212/6 197/211/6
f 89/89/7 88/88/7 100/100/7
f 90/90/7 89/89/7 100/100/7
f 90/90/7 100/100/7 102/102/7
f 91/91/7 90/90/7 102/102/7
f 91/91/7 102/102/7 104/104/7
f 92/92/7 91/91/7 104/104/7
f 92/92/7 104/104/7 106/106/7
f 93/93/7 92/92/7 106/106/7
f 93/93/7 106/106/7 107/107/7
f 93/93/7 107/107/7 199/213/7
f 95/95/7 93/93/7 199/213/7
f 95/95/7 199/213/7 200/214/7
f 97/97/7 95/95/7 200/214/7
f 97/97/7 200/214/7 201/215/7
f 107/107/7 114/114/7 199/213/7
f 114/114/7 116/116/7 200/214/7
f 114/114/7 200/214/7 199/213/7
f 116/116/7 117/117/7 201/215/7
f 116/116/7 201/215/7 200/214/7
f 109/109/8 108/108/8 120/120/8
f 110/110/8 109/109/8 120/120/8
f 110/110/8 120/120/8 122/122/8
f 111/111/8 110/110/8 122/122/8
f 111/111/8 122/122/8 124/124/8
f 112/112/8 111/111/8 124/124/8
f 112/112/8 124/124/8 126/126/8
f 113/113/8 112/112/8 126/126/8
f 113/113/8 126/126/8 128/128/8
f 115/115/8 113/113/8 128/128/8
f 115/115/8 128/128/8 130/130/8
f 117/117/8 115/115/8 130/130/8
f 117/117/8 130/130/8 131/131/8
f 119/119/9 118/118/9 134/134/9
f 121/121/9 119/119/9 134/134/9
f 121/121/9 134/134/9 136/136/9
f 123/123/9 121/121/9 136/136/9
f 123/123/9 136/136/9 138/138/9
f 125/125/9 123/123/9 138/138/9
f 125/125/9 138/138/9 140/140/9
f 127/127/9 125/125/9 140/140/9
f 127/127/9 140/140/9 142/142/9
f 129/129/9 127/127/9 142/142/9
f 129/129/9 142/142/9 144/144/9
f 131/131/9 129/129/9 144/144/9
f 131/131/9 144/144/9 145/145/9
f 133/133/10 132/132/10 148/148/10
f 135/135/10 133/133/10 148/148/10
f 135/135/10 148/148/10 150/150/10
f 137/137/10 135/135/10 150/150/10
f 137/137/10 150/150/10 152/152/10
f 139/139/10 137/137/10 152/152/10
f 139/139/10 152/152/10 154/154/10
f 141/141/10 139/139/10 154/154/10
f 141/141/10 154/154/10 156/156/10
f 143/143/10 141/141/10 156/156/10
f 143/143/10 156/156/10 158/158/10
f 145/145/10 143/143/10 158/158/10
f 145/145/10 158/158/10 159/159/10
f 22/162/11 12/216/11 146/160/11
f 1/217/11 160/199/11 146/160/11
f 146/160/11 132/198/11 118/218/11
f 118/218/11 108/219/11 88/220/11
f 88/220/11 64/221/11 50/161/11
f 50/161/11 36/197/11 22/162/11
f 12/216/11 1/217/11 146/160/11
f 146/160/11 118/218/11 88/220/11
f 88/220/11 50/161/11 146/160/11
f 180/184/12 160/163/12 163/166/12
f 182/186/12 180/184/12 163/166/12
f 182/186/12 163/166/12 165/168/12
f 184/188/12 182/186/12 165/168/12
f 184/188/12 165/168/12 167/170/12
f 186/190/12 184/188/12 167/170/12
f 186/190/12 167/170/12 169/172/12
f 188/192/12 186/190/12 169/172/12
f 188/192/12 169/172/12 170/173/12
f 188/192/12 170/173/12 202/222/12
f 190/194/12 188/192/12 202/222/12
f 190/194/12 202/222/12 203/223/12
f 192/196/12 190/194/12 203/223/12
f 192/196/12 203/223/12 204/224/12
f 170/173/12 176/180/12 202/222/12
f 176/180/12 178/182/12 203/223/12
f 176/180/12 203/223/12 202/222/12
f 178/182/12 179/183/12 204/224/12
f 178/182/12 204/224/12 203/223/12
f 147/147/13 146/146/13 181/185/13
f 149/149/13 147/147/13 181/185/13
f 149/149/13 181/185/13 183/187/13
f 151/151/13 149/149/13 183/187/13
f 151/151/13 183/187/13 185/189/13
f 153/153/13 151/151/13 185/189/13
f 153/153/13 185/189/13 187/191/13
f 155/155/13 153/153/13 187/191/13
f 155/155/13 187/191/13 189/193/13
f 157/157/13 155/155/13 189/193/13
f 157/157/13 189/193/13 191/195/13
f 159/159/13 157/157/13 191/195/13
f 159/159/13 191/195/13 192/196/13
f 192/199/14 179/217/14 49/197/14
f 21/216/14 35/162/14 49/197/14
f 49/197/14 63/161/14 77/221/14
f 77/221/14 97/220/14 49/197/14
f 117/219/14 131/218/14 145/198/14
f 145/198/14 159/160/14 192/199/14
f 179/217/14 21/216/14 49/197/14
f 49/197/14 97/220/14 117/219/14
f 117/219/14 145/198/14 49/197/14
