# American flag UV mapping; geometry and normals retained from mp_s_20.obj
o Cube
v 0.105469 1.000000 -1.582031
v 0.105469 1.000000 1.582031
v -0.105469 1.000000 1.582031
v -0.105469 1.000000 -1.582032
v 0.105469 2.500000 -1.265625
v 0.105469 2.500000 1.265626
v -0.105469 2.500000 1.265625
v -0.105469 2.500000 -1.265625
v -1.582031 1.000000 -0.105469
v 1.582031 1.000000 -0.105469
v 1.582031 1.000000 0.105469
v -1.582032 1.000000 0.105469
v -1.265625 2.500000 -0.105469
v 1.265626 2.500000 -0.105469
v 1.265625 2.500000 0.105469
v -1.265625 2.500000 0.105469
v 0.105469 3.500000 -0.632812
v 0.105469 3.500000 0.632813
v -0.105469 3.500000 -0.632812
v -0.105469 3.500000 0.632812
v -0.632812 3.500000 -0.105469
v 0.632813 3.500000 -0.105469
v -0.632812 3.500000 0.105469
v 0.632812 3.500000 0.105469
vn 0.000000 -1.000000 0.000000
vn -0.845000 0.534700 -0.000000
vn 1.000000 -0.000000 0.000000
vn -0.000000 0.206400 0.978500
vn -1.000000 -0.000000 0.000000
vn 0.000000 0.206400 -0.978500
vn -0.000000 -0.000000 1.000000
vn 0.000000 0.000000 -1.000000
vn 0.978500 0.206400 0.000000
vn -0.978500 0.206400 -0.000000
vn 0.000000 1.000000 0.000000
vn -0.000000 0.534700 0.845000
vn 0.845000 0.534700 0.000000
vn 0.000000 0.534700 -0.845000
vt 0.999998 0.000500
vt 0.999998 0.000500
vt 0.999998 0.000500
vt 0.456375 0.600000
vt 0.456375 0.600000
vt 0.000000 0.999500
vt 0.456375 0.600000
vt 0.456377 0.600000
vt 0.999998 0.000500
vt 0.456377 0.600000
vt 0.456375 0.600000
vt 0.999998 0.000500
vt 0.456375 0.600000
vt 0.456375 0.600000
vt 1.000000 0.000500
vt 0.999998 0.000500
vt 1.000000 0.000500
vt 0.456375 0.600000
vt 0.999998 0.000500
vt 0.999998 0.000500
vt 0.999998 0.000500
vt 0.456375 0.600000
vt 0.000000 0.999500
vt 0.000000 0.999500
vt 0.456375 0.600000
vt 0.456377 0.600000
vt 0.999998 0.000500
vt 0.456377 0.600000
vt 0.456375 0.600000
vt 0.999998 0.000500
vt 0.456375 0.600000
vt 0.456375 0.600000
vt 1.000000 0.000500
vt 0.999998 0.000500
vt 1.000000 0.000500
vt 0.456375 0.600000
vt 0.000000 0.999500
vt 0.000000 0.999500
vt 0.000000 0.999500
vt 0.000000 0.999500
vt 0.000000 0.999500
vt 0.000000 0.999500
vt 0.456375 0.600000
vt 0.456377 0.600000
vt 0.000000 0.999500
vt 0.456375 0.600000
vt 0.000000 0.999500
vt 0.000000 0.999500
vt 0.456375 0.600000
vt 0.456377 0.600000
vt 0.000000 0.999500
vt 0.456375 0.600000
vt 0.000000 0.999500
vt 0.000000 0.999500
vt 0.456375 0.600000
vt 0.000000 0.999500
vt 0.000000 0.999500
vt 0.456375 0.600000
vt 0.456375 0.600000
vt 0.000000 0.999500
vt 1.000000 0.000500
vt 0.999998 0.000500
vt 0.999998 0.000500
vt 0.000000 0.999500
vt 0.456375 0.600000
vt 0.000000 0.999500
vt 0.999998 0.000500
vt 0.456375 0.600000
vt 0.999998 0.000500
vt 0.999998 0.000500
vt 0.456377 0.600000
vt 0.999998 0.000500
vt 0.999998 0.000500
vt 0.456375 0.600000
vt 1.000000 0.000500
vt 0.456375 0.600000
vt 0.999998 0.000500
vt 0.456375 0.600000
vt 1.000000 0.000500
vt 0.999998 0.000500
vt 0.999998 0.000500
vt 0.456375 0.600000
vt 0.456375 0.600000
vt 0.000000 0.999500
vt 0.999998 0.000500
vt 0.456375 0.600000
vt 0.999998 0.000500
vt 0.999998 0.000500
vt 0.456377 0.600000
vt 0.999998 0.000500
vt 0.999998 0.000500
vt 0.456375 0.600000
vt 1.000000 0.000500
vt 0.456375 0.600000
vt 0.999998 0.000500
vt 0.456375 0.600000
vt 0.000000 0.999500
vt 0.000000 0.999500
vt 0.000000 0.999500
vt 0.000000 0.999500
vt 0.000000 0.999500
vt 0.000000 0.999500
vt 0.000000 0.999500
vt 0.456375 0.600000
vt 0.000000 0.999500
vt 0.456377 0.600000
vt 0.456375 0.600000
vt 0.000000 0.999500
vt 0.000000 0.999500
vt 0.456375 0.600000
vt 0.000000 0.999500
vt 0.456375 0.600000
vt 0.456375 0.600000
vt 0.000000 0.999500
vt 0.456377 0.600000
vt 0.456375 0.600000
vt 0.000000 0.999500
vt 0.000000 0.999500
vt 0.456375 0.600000
vt 0.000000 0.999500
s off
f 1/1/1 2/2/1 3/3/1
f 13/4/2 16/5/2 23/6/2
f 5/7/3 6/8/3 2/9/3
f 6/10/4 7/11/4 3/12/4
f 7/13/5 8/14/5 4/15/5
f 1/16/6 4/17/6 8/18/6
f 9/19/1 10/20/1 11/21/1
f 15/22/7 24/23/7 23/24/7
f 13/25/8 14/26/8 10/27/8
f 14/28/9 15/29/9 11/30/9
f 15/31/7 16/32/7 12/33/7
f 9/34/10 12/35/10 16/36/10
f 17/37/11 19/38/11 20/39/11
f 21/40/11 23/41/11 24/42/11
f 7/43/12 6/44/12 18/45/12
f 5/46/3 17/47/3 18/48/3
f 15/49/13 14/50/13 22/51/13
f 7/52/5 20/53/5 19/54/5
f 13/55/8 21/56/8 22/57/8
f 5/58/14 8/59/14 19/60/14
f 4/61/1 1/62/1 3/63/1
f 21/64/2 13/65/2 23/66/2
f 1/67/3 5/68/3 2/69/3
f 2/70/4 6/71/4 3/72/4
f 3/73/5 7/74/5 4/75/5
f 5/76/6 1/77/6 8/78/6
f 12/79/1 9/80/1 11/81/1
f 16/82/7 15/83/7 23/84/7
f 9/85/8 13/86/8 10/87/8
f 10/88/9 14/89/9 11/90/9
f 11/91/7 15/92/7 12/93/7
f 13/94/10 9/95/10 16/96/10
f 18/97/11 17/98/11 20/99/11
f 22/100/11 21/101/11 24/102/11
f 20/103/12 7/104/12 18/105/12
f 6/106/3 5/107/3 18/108/3
f 24/109/13 15/110/13 22/111/13
f 8/112/5 7/113/5 19/114/5
f 14/115/8 13/116/8 22/117/8
f 17/118/14 5/119/14 19/120/14
