# Size 20 flat fins with UVs sampling unmarked Minuteman white paint.
# Texture: fuselages/mp_f_15_20_solid_minuteman.png, pixel (64, 64).
vt 0.0625 0.9375
# Blender v2.76 (sub 0) OBJ File: 'mp_s_20.blend'
# www.blender.org
o Cube
v 0.105469 1.000000 -1.582031
v 0.105469 1.000000 1.582031
v -0.105469 1.000000 1.582031
v -0.105469 1.000000 -1.582032
v 0.105469 2.500000 -1.265625
v 0.105469 2.500000 1.265626
v -0.105469 2.500000 1.265625
v -0.105469 2.500000 -1.265625
v -1.582031 1.000000 -0.105469
v 1.582031 1.000000 -0.105469
v 1.582031 1.000000 0.105469
v -1.582032 1.000000 0.105469
v -1.265625 2.500000 -0.105469
v 1.265626 2.500000 -0.105469
v 1.265625 2.500000 0.105469
v -1.265625 2.500000 0.105469
v 0.105469 3.500000 -0.632812
v 0.105469 3.500000 0.632813
v -0.105469 3.500000 -0.632812
v -0.105469 3.500000 0.632812
v -0.632812 3.500000 -0.105469
v 0.632813 3.500000 -0.105469
v -0.632812 3.500000 0.105469
v 0.632812 3.500000 0.105469
vn 0.000000 -1.000000 0.000000
vn -0.845000 0.534700 -0.000000
vn 1.000000 -0.000000 0.000000
vn -0.000000 0.206400 0.978500
vn -1.000000 -0.000000 0.000000
vn 0.000000 0.206400 -0.978500
vn -0.000000 -0.000000 1.000000
vn 0.000000 0.000000 -1.000000
vn 0.978500 0.206400 0.000000
vn -0.978500 0.206400 -0.000000
vn 0.000000 1.000000 0.000000
vn -0.000000 0.534700 0.845000
vn 0.845000 0.534700 0.000000
vn 0.000000 0.534700 -0.845000
s off
f 1/1/1 2/1/1 3/1/1
f 13/1/2 16/1/2 23/1/2
f 5/1/3 6/1/3 2/1/3
f 6/1/4 7/1/4 3/1/4
f 7/1/5 8/1/5 4/1/5
f 1/1/6 4/1/6 8/1/6
f 9/1/1 10/1/1 11/1/1
f 15/1/7 24/1/7 23/1/7
f 13/1/8 14/1/8 10/1/8
f 14/1/9 15/1/9 11/1/9
f 15/1/7 16/1/7 12/1/7
f 9/1/10 12/1/10 16/1/10
f 17/1/11 19/1/11 20/1/11
f 21/1/11 23/1/11 24/1/11
f 7/1/12 6/1/12 18/1/12
f 5/1/3 17/1/3 18/1/3
f 15/1/13 14/1/13 22/1/13
f 7/1/5 20/1/5 19/1/5
f 13/1/8 21/1/8 22/1/8
f 5/1/14 8/1/14 19/1/14
f 4/1/1 1/1/1 3/1/1
f 21/1/2 13/1/2 23/1/2
f 1/1/3 5/1/3 2/1/3
f 2/1/4 6/1/4 3/1/4
f 3/1/5 7/1/5 4/1/5
f 5/1/6 1/1/6 8/1/6
f 12/1/1 9/1/1 11/1/1
f 16/1/7 15/1/7 23/1/7
f 9/1/8 13/1/8 10/1/8
f 10/1/9 14/1/9 11/1/9
f 11/1/7 15/1/7 12/1/7
f 13/1/10 9/1/10 16/1/10
f 18/1/11 17/1/11 20/1/11
f 22/1/11 21/1/11 24/1/11
f 20/1/12 7/1/12 18/1/12
f 6/1/3 5/1/3 18/1/3
f 24/1/13 15/1/13 22/1/13
f 8/1/5 7/1/5 19/1/5
f 14/1/8 13/1/8 22/1/8
f 17/1/14 5/1/14 19/1/14
