# American flag UV mapping; geometry and normals retained from mp_t_20_solid.obj
o Cylinder
v 0.000000 0.750000 -1.000000
v 0.000000 1.000000 -1.000000
v 0.500000 0.750000 -0.866025
v 0.500000 1.000000 -0.866025
v 0.866025 0.750000 -0.500000
v 0.866025 1.000000 -0.500000
v 1.000000 0.750000 0.000000
v 1.000000 1.000000 0.000000
v 0.866025 0.750000 0.500000
v 0.866025 1.000000 0.500000
v 0.500000 0.750000 0.866025
v 0.500000 1.000000 0.866025
v 0.000000 0.750000 1.000000
v 0.000000 1.000000 1.000000
v -0.500000 0.750000 0.866026
v -0.500000 1.000000 0.866026
v -0.866025 0.750000 0.500000
v -0.866025 1.000000 0.500000
v -1.000000 0.750000 0.000000
v -1.000000 1.000000 0.000000
v -0.866026 0.750000 -0.499999
v -0.866026 1.000000 -0.499999
v -0.500001 0.750000 -0.866025
v -0.500001 1.000000 -0.866025
v 0.000000 0.000000 -1.000000
v 0.500000 0.000000 -0.866025
v 0.866025 0.000000 -0.500000
v 1.000000 0.000000 0.000000
v 0.866025 0.000000 0.500000
v 0.500000 0.000000 0.866025
v 0.000000 0.000000 1.000000
v -0.500000 0.000000 0.866026
v -0.866025 0.000000 0.500000
v -1.000000 0.000000 0.000000
v -0.866026 0.000000 -0.499999
v -0.500001 0.000000 -0.866025
v 0.425000 0.750000 -0.736122
v -0.000000 0.750000 -0.850000
v 0.736122 0.750000 -0.425000
v 0.850000 0.750000 0.000000
v 0.736122 0.750000 0.425000
v 0.425000 0.750000 0.736122
v 0.000000 0.750000 0.850000
v -0.425000 0.750000 0.736122
v -0.736121 0.750000 0.425000
v -0.850000 0.750000 0.000000
v -0.736122 0.750000 -0.425000
v -0.425001 0.750000 -0.736121
v 0.400000 0.000000 -0.692820
v -0.000000 0.000000 -0.800000
v 0.692820 0.000000 -0.400000
v 0.800000 0.000000 0.000000
v 0.692820 0.000000 0.400000
v 0.400000 0.000000 0.692820
v 0.000000 0.000000 0.800000
v -0.400000 0.000000 0.692820
v -0.692820 0.000000 0.400000
v -0.800000 0.000000 0.000000
v -0.692821 0.000000 -0.400000
v -0.400000 0.000000 -0.692820
v 0.200000 0.750000 -0.346410
v -0.000000 0.750000 -0.400000
v 0.346410 0.750000 -0.200000
v 0.400000 0.750000 0.000000
v 0.346410 0.750000 0.200000
v 0.200000 0.750000 0.346410
v 0.000000 0.750000 0.400000
v -0.200000 0.750000 0.346410
v -0.346410 0.750000 0.200000
v -0.400000 0.750000 0.000000
v -0.346410 0.750000 -0.200000
v -0.200000 0.750000 -0.346410
vn 0.258800 0.000000 -0.965900
vn 0.707100 0.000000 -0.707100
vn 0.965900 0.000000 -0.258800
vn 0.965900 0.000000 0.258800
vn 0.707100 0.000000 0.707100
vn 0.258800 0.000000 0.965900
vn -0.258800 0.000000 0.965900
vn -0.707100 0.000000 0.707100
vn -0.965900 0.000000 0.258800
vn -0.965900 0.000000 -0.258800
vn 0.000000 1.000000 0.000000
vn -0.258800 0.000000 -0.965900
vn -0.707100 0.000000 -0.707100
vn 0.000000 -1.000000 -0.000000
vn -0.254100 0.189700 0.948400
vn 0.948400 0.189700 0.254100
vn -0.694300 0.189700 -0.694300
vn 0.254100 0.189700 -0.948400
vn -0.694300 0.189700 0.694300
vn 0.694300 0.189700 0.694300
vn -0.254100 0.189700 -0.948400
vn 0.694300 0.189700 -0.694300
vn -0.948400 0.189700 0.254100
vn 0.254100 0.189700 0.948400
vn 0.948400 0.189700 -0.254100
vn -0.948400 0.189700 -0.254100
vn -0.628600 -0.458000 -0.628600
vn 0.230100 -0.458000 0.858700
vn -0.628600 -0.458000 0.628600
vn 0.858700 -0.458000 -0.230100
vn -0.230100 -0.458000 -0.858700
vn -0.858700 -0.458000 0.230100
vn 0.858700 -0.458000 0.230100
vn 0.230100 -0.458000 -0.858700
vn -0.858700 -0.458000 -0.230100
vn 0.628600 -0.458000 0.628600
vn -0.230100 -0.458000 0.858700
vn 0.628600 -0.458000 -0.628600
vt 0.450000 0.999500
vt 0.533333 0.999500
vt 0.533333 0.750000
vt 0.533333 0.999500
vt 0.616667 0.999500
vt 0.616667 0.750000
vt 0.616667 0.999500
vt 0.700000 0.999500
vt 0.700000 0.750000
vt 0.700000 0.999500
vt 0.783333 0.999500
vt 0.783333 0.750000
vt 0.783333 0.999500
vt 0.866667 0.999500
vt 0.866667 0.750000
vt 0.866667 0.999500
vt 0.950000 0.999500
vt 0.950000 0.750000
vt 0.950000 0.999500
vt 1.033333 0.999500
vt 1.033333 0.750000
vt 0.033333 0.999500
vt 0.116667 0.999500
vt 0.116667 0.750000
vt 0.116667 0.999500
vt 0.200000 0.999500
vt 0.200000 0.750000
vt 0.200000 0.999500
vt 0.283333 0.999500
vt 0.283333 0.750000
vt 1.283333 0.999500
vt 0.950000 0.999500
vt 0.616667 0.999500
vt 0.366666 0.999500
vt 0.450000 0.999500
vt 0.450000 0.750000
vt 0.283333 0.999500
vt 0.366666 0.999500
vt 0.366666 0.750000
vt 0.700000 0.750000
vt 0.200000 0.750000
vt 0.366666 0.750000
vt 1.033333 0.000500
vt 1.033333 0.000500
vt 0.950000 0.000500
vt 0.950000 0.000500
vt 0.950000 0.750000
vt 1.033333 0.750000
vt 0.700000 0.000500
vt 0.700000 0.750000
vt 0.783333 0.750000
vt 0.283333 0.000500
vt 0.283333 0.750000
vt 0.366666 0.750000
vt 0.450000 0.000500
vt 0.450000 0.750000
vt 0.533333 0.750000
vt 0.033333 0.000500
vt 0.033333 0.750000
vt 0.116667 0.750000
vt 0.783333 0.000500
vt 0.783333 0.750000
vt 0.866667 0.750000
vt 0.366666 0.000500
vt 0.366666 0.750000
vt 0.450000 0.750000
vt 0.616667 0.000500
vt 0.533333 0.000500
vt 0.533333 0.750000
vt 0.200000 0.000500
vt 0.116667 0.000500
vt 0.116667 0.750000
vt 0.866667 0.000500
vt 0.866667 0.750000
vt 0.950000 0.750000
vt 0.616667 0.000500
vt 0.616667 0.750000
vt 0.700000 0.750000
vt 0.200000 0.000500
vt 0.200000 0.750000
vt 0.283333 0.750000
vt 0.866667 0.000500
vt 0.866667 0.750000
vt 0.783333 0.750000
vt 0.783333 0.000500
vt 0.783333 0.000500
vt 0.700000 0.000500
vt 0.366666 0.000500
vt 0.366667 0.000500
vt 0.283333 0.000500
vt 0.533333 0.000500
vt 0.533333 0.000500
vt 0.450000 0.000500
vt 0.116667 0.000500
vt 0.116667 0.000500
vt 0.033333 0.000500
vt 0.866667 0.000500
vt 0.866667 0.000500
vt 0.783333 0.000500
vt 0.450000 0.000500
vt 0.450000 0.000500
vt 0.366667 0.000500
vt 0.616667 0.000500
vt 0.616667 0.000500
vt 0.533333 0.000500
vt 0.200000 0.000500
vt 0.200000 0.000500
vt 0.116667 0.000500
vt 0.950000 0.000500
vt 0.950000 0.000500
vt 0.866667 0.000500
vt 0.700000 0.000500
vt 0.700000 0.000500
vt 0.616667 0.000500
vt 0.283333 0.000500
vt 0.283333 0.000500
vt 0.200000 0.000500
vt 0.450000 0.000500
vt 0.450000 0.750000
vt 0.366667 0.750000
vt 0.616667 0.000500
vt 0.616667 0.750000
vt 0.533333 0.750000
vt 0.116667 0.000500
vt 0.200000 0.000500
vt 0.200000 0.750000
vt 0.950000 0.000500
vt 0.950000 0.750000
vt 0.866667 0.750000
vt 0.700000 0.000500
vt 0.700000 0.750000
vt 0.616667 0.750000
vt 0.283333 0.000500
vt 0.283333 0.750000
vt 0.200000 0.750000
vt 1.033333 0.000500
vt 1.033333 0.750000
vt 0.950000 0.750000
vt 0.783333 0.000500
vt 0.783333 0.750000
vt 0.700000 0.750000
vt 0.366667 0.000500
vt 0.366667 0.750000
vt 0.283333 0.750000
vt 0.533333 0.000500
vt 0.533333 0.750000
vt 0.450000 0.750000
vt 0.116667 0.000500
vt 0.116667 0.750000
vt 0.033333 0.750000
vt 0.450000 0.750000
vt 0.450000 0.999500
vt 0.533333 0.750000
vt 0.533333 0.750000
vt 0.533333 0.999500
vt 0.616667 0.750000
vt 0.616667 0.750000
vt 0.616667 0.999500
vt 0.700000 0.750000
vt 0.700000 0.750000
vt 0.700000 0.999500
vt 0.783333 0.750000
vt 0.783333 0.750000
vt 0.783333 0.999500
vt 0.866667 0.750000
vt 0.866667 0.750000
vt 0.866667 0.999500
vt 0.950000 0.750000
vt 0.950000 0.750000
vt 0.950000 0.999500
vt 1.033333 0.750000
vt 0.033333 0.750000
vt 0.033333 0.999500
vt 0.116667 0.750000
vt 0.116667 0.750000
vt 0.116667 0.999500
vt 0.200000 0.750000
vt 0.200000 0.750000
vt 0.200000 0.999500
vt 0.283333 0.750000
vt 0.616667 0.999500
vt 0.533333 0.999500
vt 0.450000 0.999500
vt 0.450000 0.999500
vt 0.366666 0.999500
vt 0.283333 0.999500
vt 0.283333 0.999500
vt 0.200000 0.999500
vt 0.116667 0.999500
vt 1.116667 0.999500
vt 1.033333 0.999500
vt 0.950000 0.999500
vt 0.950000 0.999500
vt 0.866667 0.999500
vt 0.783333 0.999500
vt 0.783333 0.999500
vt 0.700000 0.999500
vt 0.616667 0.999500
vt 0.616667 0.999500
vt 0.450000 0.999500
vt 0.283333 0.999500
vt 1.283333 0.999500
vt 1.116667 0.999500
vt 0.950000 0.999500
vt 0.950000 0.999500
vt 0.783333 0.999500
vt 0.616667 0.999500
vt 0.366666 0.750000
vt 0.366666 0.999500
vt 0.450000 0.750000
vt 0.283333 0.750000
vt 0.283333 0.999500
vt 0.366666 0.750000
vt 0.366666 0.750000
vt 0.450000 0.750000
vt 0.533333 0.750000
vt 0.533333 0.750000
vt 0.616667 0.750000
vt 0.700000 0.750000
vt 0.700000 0.750000
vt 0.783333 0.750000
vt 0.866667 0.750000
vt 0.866667 0.750000
vt 0.950000 0.750000
vt 1.033333 0.750000
vt 0.033333 0.750000
vt 0.116667 0.750000
vt 0.200000 0.750000
vt 0.200000 0.750000
vt 0.283333 0.750000
vt 0.366666 0.750000
vt 0.366666 0.750000
vt 0.533333 0.750000
vt 0.700000 0.750000
vt 0.700000 0.750000
vt 0.866667 0.750000
vt 1.033333 0.750000
vt 1.033333 0.750000
vt 1.200000 0.750000
vt 0.700000 0.750000
vt 0.950000 0.000500
vt 1.033333 0.000500
vt 0.950000 0.000500
vt 1.033333 0.000500
vt 0.950000 0.000500
vt 1.033333 0.750000
vt 0.783333 0.000500
vt 0.700000 0.000500
vt 0.783333 0.750000
vt 0.366666 0.000500
vt 0.283333 0.000500
vt 0.366666 0.750000
vt 0.533333 0.000500
vt 0.450000 0.000500
vt 0.533333 0.750000
vt 0.116667 0.000500
vt 0.033333 0.000500
vt 0.116667 0.750000
vt 0.866667 0.000500
vt 0.783333 0.000500
vt 0.866667 0.750000
vt 0.450000 0.000500
vt 0.366666 0.000500
vt 0.450000 0.750000
vt 0.616667 0.750000
vt 0.616667 0.000500
vt 0.533333 0.750000
vt 0.200000 0.750000
vt 0.200000 0.000500
vt 0.116667 0.750000
vt 0.950000 0.000500
vt 0.866667 0.000500
vt 0.950000 0.750000
vt 0.700000 0.000500
vt 0.616667 0.000500
vt 0.700000 0.750000
vt 0.283333 0.000500
vt 0.200000 0.000500
vt 0.283333 0.750000
vt 0.783333 0.000500
vt 0.866667 0.000500
vt 0.783333 0.750000
vt 0.700000 0.000500
vt 0.783333 0.000500
vt 0.700000 0.000500
vt 0.283333 0.000500
vt 0.366666 0.000500
vt 0.283333 0.000500
vt 0.450000 0.000500
vt 0.533333 0.000500
vt 0.450000 0.000500
vt 0.033333 0.000500
vt 0.116667 0.000500
vt 0.033333 0.000500
vt 0.783333 0.000500
vt 0.866667 0.000500
vt 0.783333 0.000500
vt 0.366666 0.000500
vt 0.450000 0.000500
vt 0.366667 0.000500
vt 0.533333 0.000500
vt 0.616667 0.000500
vt 0.533333 0.000500
vt 0.116667 0.000500
vt 0.200000 0.000500
vt 0.116667 0.000500
vt 0.866667 0.000500
vt 0.950000 0.000500
vt 0.866667 0.000500
vt 0.616667 0.000500
vt 0.700000 0.000500
vt 0.616667 0.000500
vt 0.200000 0.000500
vt 0.283333 0.000500
vt 0.200000 0.000500
vt 0.366667 0.000500
vt 0.450000 0.000500
vt 0.366667 0.750000
vt 0.533333 0.000500
vt 0.616667 0.000500
vt 0.533333 0.750000
vt 0.116667 0.750000
vt 0.116667 0.000500
vt 0.200000 0.750000
vt 0.866667 0.000500
vt 0.950000 0.000500
vt 0.866667 0.750000
vt 0.616667 0.000500
vt 0.700000 0.000500
vt 0.616667 0.750000
vt 0.200000 0.000500
vt 0.283333 0.000500
vt 0.200000 0.750000
vt 0.950000 0.000500
vt 1.033333 0.000500
vt 0.950000 0.750000
vt 0.700000 0.000500
vt 0.783333 0.000500
vt 0.700000 0.750000
vt 0.283333 0.000500
vt 0.366667 0.000500
vt 0.283333 0.750000
vt 0.450000 0.000500
vt 0.533333 0.000500
vt 0.450000 0.750000
vt 0.033333 0.000500
vt 0.116667 0.000500
vt 0.033333 0.750000
s off
f 2/1/1 4/2/1 3/3/1
f 4/4/2 6/5/2 5/6/2
f 6/7/3 8/8/3 7/9/3
f 8/10/4 10/11/4 9/12/4
f 10/13/5 12/14/5 11/15/5
f 12/16/6 14/17/6 13/18/6
f 14/19/7 16/20/7 15/21/7
f 16/22/8 18/23/8 17/24/8
f 18/25/9 20/26/9 19/27/9
f 20/28/10 22/29/10 21/30/10
f 22/31/11 14/32/11 6/33/11
f 24/34/12 2/35/12 1/36/12
f 22/37/13 24/38/13 23/39/13
f 7/40/14 19/41/14 23/42/14
f 32/43/14 56/44/14 55/45/14
f 31/46/15 43/47/15 44/48/15
f 28/49/16 40/50/16 41/51/16
f 35/52/17 47/53/17 48/54/17
f 25/55/18 38/56/18 37/57/18
f 32/58/19 44/59/19 45/60/19
f 29/61/20 41/62/20 42/63/20
f 36/64/21 48/65/21 38/66/21
f 27/67/22 26/68/22 37/69/22
f 34/70/23 33/71/23 45/72/23
f 30/73/24 42/74/24 43/75/24
f 27/76/25 39/77/25 40/78/25
f 34/79/26 46/80/26 47/81/26
f 54/82/27 66/83/27 65/84/27
f 29/85/14 53/86/14 52/87/14
f 36/88/14 60/89/14 59/90/14
f 26/91/14 49/92/14 50/93/14
f 33/94/14 57/95/14 56/96/14
f 30/97/14 54/98/14 53/99/14
f 25/100/14 50/101/14 60/102/14
f 27/103/14 51/104/14 49/105/14
f 34/106/14 58/107/14 57/108/14
f 31/109/14 55/110/14 54/111/14
f 28/112/14 52/113/14 51/114/14
f 35/115/14 59/116/14 58/117/14
f 50/118/28 62/119/28 72/120/28
f 51/121/29 63/122/29 61/123/29
f 57/124/30 58/125/30 70/126/30
f 55/127/31 67/128/31 66/129/31
f 52/130/32 64/131/32 63/132/32
f 59/133/33 71/134/33 70/135/33
f 56/136/34 68/137/34 67/138/34
f 53/139/35 65/140/35 64/141/35
f 60/142/36 72/143/36 71/144/36
f 49/145/37 61/146/37 62/147/37
f 57/148/38 69/149/38 68/150/38
f 1/151/1 2/152/1 3/153/1
f 3/154/2 4/155/2 5/156/2
f 5/157/3 6/158/3 7/159/3
f 7/160/4 8/161/4 9/162/4
f 9/163/5 10/164/5 11/165/5
f 11/166/6 12/167/6 13/168/6
f 13/169/7 14/170/7 15/171/7
f 15/172/8 16/173/8 17/174/8
f 17/175/9 18/176/9 19/177/9
f 19/178/10 20/179/10 21/180/10
f 6/181/11 4/182/11 2/183/11
f 2/184/11 24/185/11 22/186/11
f 22/187/11 20/188/11 18/189/11
f 18/190/11 16/191/11 14/192/11
f 14/193/11 12/194/11 10/195/11
f 10/196/11 8/197/11 6/198/11
f 6/199/11 2/200/11 22/201/11
f 22/202/11 18/203/11 14/204/11
f 14/205/11 10/206/11 6/207/11
f 23/208/12 24/209/12 1/210/12
f 21/211/13 22/212/13 23/213/13
f 23/214/14 1/215/14 3/216/14
f 3/217/14 5/218/14 7/219/14
f 7/220/14 9/221/14 11/222/14
f 11/223/14 13/224/14 15/225/14
f 15/226/14 17/227/14 19/228/14
f 19/229/14 21/230/14 23/231/14
f 23/232/14 3/233/14 7/234/14
f 7/235/14 11/236/14 15/237/14
f 15/238/14 19/239/14 7/240/14
f 31/241/14 32/242/14 55/243/14
f 32/244/15 31/245/15 44/246/15
f 29/247/16 28/248/16 41/249/16
f 36/250/17 35/251/17 48/252/17
f 26/253/18 25/254/18 37/255/18
f 33/256/19 32/257/19 45/258/19
f 30/259/20 29/260/20 42/261/20
f 25/262/21 36/263/21 38/264/21
f 39/265/22 27/266/22 37/267/22
f 46/268/23 34/269/23 45/270/23
f 31/271/24 30/272/24 43/273/24
f 28/274/25 27/275/25 40/276/25
f 35/277/26 34/278/26 47/279/26
f 53/280/27 54/281/27 65/282/27
f 28/283/14 29/284/14 52/285/14
f 35/286/14 36/287/14 59/288/14
f 25/289/14 26/290/14 50/291/14
f 32/292/14 33/293/14 56/294/14
f 29/295/14 30/296/14 53/297/14
f 36/298/14 25/299/14 60/300/14
f 26/301/14 27/302/14 49/303/14
f 33/304/14 34/305/14 57/306/14
f 30/307/14 31/308/14 54/309/14
f 27/310/14 28/311/14 51/312/14
f 34/313/14 35/314/14 58/315/14
f 60/316/28 50/317/28 72/318/28
f 49/319/29 51/320/29 61/321/29
f 69/322/30 57/323/30 70/324/30
f 54/325/31 55/326/31 66/327/31
f 51/328/32 52/329/32 63/330/32
f 58/331/33 59/332/33 70/333/33
f 55/334/34 56/335/34 67/336/34
f 52/337/35 53/338/35 64/339/35
f 59/340/36 60/341/36 71/342/36
f 50/343/37 49/344/37 62/345/37
f 56/346/38 57/347/38 68/348/38
