# Minuteman III: centered markings on both sides; geometry preserved by planar subdivision.
# UV translations use measured PNG pixel centers; transitions lie between markings.
o Minuteman
v -0.692821000 1.500000000 -0.400000000
v 0.000000000 3.000000000 0.000000000
v -0.546410500 1.500000000 -0.546410000
v -0.400000000 1.500000000 -0.692820000
v -0.000000000 1.500000000 -0.800000000
v 0.400000000 1.500000000 -0.692820000
v -0.800000000 1.500000000 0.000000000
v -0.692820000 1.500000000 0.400000000
v -0.400000000 1.500000000 0.692820000
v -0.546410000 1.500000000 0.546410000
v 0.000000000 1.500000000 0.800000000
v 0.400000000 1.500000000 0.692820000
v 0.692820000 1.500000000 0.400000000
v 0.546410000 1.500000000 0.546410000
v 0.800000000 1.500000000 0.000000000
v 0.692820000 1.500000000 -0.400000000
v 0.546410000 1.500000000 -0.546410000
v 0.432352941 1.014705882 -0.748856912
v 0.161764706 1.014705882 -0.821361029
v 0.438235294 0.926470588 -0.759045441
v 0.191176471 0.926470588 -0.825244853
v 0.447058824 0.794117647 -0.774328235
v 0.235294118 0.794117647 -0.831070588
v 0.452941176 0.705882353 -0.784516765
v 0.264705882 0.705882353 -0.834954412
v 0.461029412 0.584558824 -0.798525993
v 0.305147059 0.584558824 -0.840294669
v 0.467647059 0.485294118 -0.809988088
v 0.338235294 0.485294118 -0.844663971
v 0.500000000 0.000000000 -0.866025000
v 1.000000000 0.000000000 0.000000000
v -1.000000000 0.000000000 0.000000000
v -0.500001000 0.000000000 -0.866025000
v -0.432352941 1.014705882 0.748857235
v -0.270588235 1.014705882 0.792201765
v -0.438235294 0.926470588 0.759045824
v -0.247058824 0.926470588 0.810271176
v -0.447058824 0.794117647 0.774328706
v -0.211764706 0.794117647 0.837375294
v -0.452941176 0.705882353 0.784517294
v -0.188235294 0.705882353 0.855444706
v -0.461029412 0.584558824 0.798526603
v -0.155882353 0.584558824 0.880290147
v -0.467647059 0.485294118 0.809988765
v -0.129411765 0.485294118 0.900618235
v -0.500000000 0.000000000 0.866026000
v 0.000000000 0.000000000 1.000000000
v 0.590738824 0.705882353 -0.646719118
v 0.596410000 0.750000000 -0.633012500
v 0.601504265 0.705882353 -0.635953676
v 0.575143088 0.584558824 -0.684412316
v 0.615513493 0.584558824 -0.644041912
v 0.562382941 0.485294118 -0.715252206
v 0.626975588 0.485294118 -0.650659559
v 0.683012500 0.000000000 -0.683012500
v 0.748856912 1.014705882 -0.432352941
v 0.630437059 1.014705882 -0.550772794
v 0.759045441 0.926470588 -0.438235294
v 0.619094706 0.926470588 -0.578186029
v 0.774328235 0.794117647 -0.447058824
v 0.602081176 0.794117647 -0.619305882
v 0.784516765 0.705882353 -0.452941176
v 0.798525993 0.584558824 -0.461029412
v 0.809988088 0.485294118 -0.467647059
v 0.866025000 0.000000000 -0.500000000
v -0.864705882 1.014705882 0.000000000
v -0.821361029 1.014705882 0.161764706
v -0.876470588 0.926470588 0.000000000
v -0.825244853 0.926470588 0.191176471
v -0.894117647 0.794117647 0.000000000
v -0.831070588 0.794117647 0.235294118
v -0.905882353 0.705882353 0.000000000
v -0.834954412 0.705882353 0.264705882
v -0.922058824 0.584558824 0.000000000
v -0.840294669 0.584558824 0.305147059
v -0.935294118 0.485294118 0.000000000
v -0.844663971 0.485294118 0.338235294
v -0.866025000 0.000000000 0.500000000
v 0.748856912 1.014705882 0.432352941
v 0.792201765 1.014705882 0.270588235
v 0.759045441 0.926470588 0.438235294
v 0.810271176 0.926470588 0.247058824
v 0.774328235 0.794117647 0.447058824
v 0.837375294 0.794117647 0.211764706
v 0.784516765 0.705882353 0.452941176
v 0.855444706 0.705882353 0.188235294
v 0.798525993 0.584558824 0.461029412
v 0.880290147 0.584558824 0.155882353
v 0.809988088 0.485294118 0.467647059
v 0.900618235 0.485294118 0.129411765
v 0.866025000 0.000000000 0.500000000
v -0.646719647 0.705882353 -0.590738294
v -0.633013000 0.750000000 -0.596409500
v -0.635954077 0.705882353 -0.601503894
v -0.684412926 0.584558824 -0.575142478
v -0.644042038 0.584558824 -0.615513477
v -0.715252882 0.485294118 -0.562382265
v -0.650659460 0.485294118 -0.626975863
v -0.683011304 0.000000000 -0.683014196
v -0.866026000 0.000000000 -0.499999000
v -0.432353265 1.014705882 -0.748856912
v -0.550773118 1.014705882 -0.630436735
v -0.438235676 0.926470588 -0.759045441
v -0.578186412 0.926470588 -0.619094324
v -0.447059294 0.794117647 -0.774328235
v -0.619306353 0.794117647 -0.602080706
v -0.452941706 0.705882353 -0.784516765
v -0.461030022 0.584558824 -0.798525993
v -0.467647735 0.485294118 -0.809988088
v 0.000000000 1.014705882 0.864705882
v 0.161764706 1.014705882 0.821361029
v 0.000000000 0.926470588 0.876470588
v 0.191176471 0.926470588 0.825244853
v 0.000000000 0.794117647 0.894117647
v 0.235294118 0.794117647 0.831070588
v 0.000000000 0.705882353 0.905882353
v 0.264705882 0.705882353 0.834954412
v 0.000000000 0.584558824 0.922058824
v 0.305147059 0.584558824 0.840294669
v 0.000000000 0.485294118 0.935294118
v 0.338235294 0.485294118 0.844663971
v 0.500000000 0.000000000 0.866025000
v -0.590738824 0.705882353 0.646719647
v -0.596410000 0.750000000 0.633013000
v -0.601504265 0.705882353 0.635954176
v -0.575143088 0.584558824 0.684412926
v -0.615513493 0.584558824 0.644042412
v -0.562382941 0.485294118 0.715252882
v -0.626975588 0.485294118 0.650660059
v -0.683012500 0.000000000 0.683013000
v -0.748856912 1.014705882 0.432352941
v -0.630437059 1.014705882 0.550773118
v -0.759045441 0.926470588 0.438235294
v -0.619094706 0.926470588 0.578186412
v -0.774328235 0.794117647 0.447058824
v -0.602081176 0.794117647 0.619306353
v -0.784516765 0.705882353 0.452941176
v -0.798525993 0.584558824 0.461029412
v -0.809988088 0.485294118 0.467647059
v 0.000000000 1.014705882 -0.864705882
v -0.161765029 1.014705882 -0.821361029
v 0.000000000 0.926470588 -0.876470588
v -0.191176853 0.926470588 -0.825244853
v 0.000000000 0.794117647 -0.894117647
v -0.235294588 0.794117647 -0.831070588
v 0.000000000 0.705882353 -0.905882353
v -0.264706412 0.705882353 -0.834954412
v 0.000000000 0.584558824 -0.922058824
v -0.305147669 0.584558824 -0.840294669
v 0.000000000 0.485294118 -0.935294118
v -0.338235971 0.485294118 -0.844663971
v -0.000000000 0.000000000 -1.000000000
v 0.864705882 1.014705882 0.000000000
v 0.821361029 1.014705882 -0.161764706
v 0.876470588 0.926470588 0.000000000
v 0.825244853 0.926470588 -0.191176471
v 0.894117647 0.794117647 0.000000000
v 0.831070588 0.794117647 -0.235294118
v 0.905882353 0.705882353 0.000000000
v 0.834954412 0.705882353 -0.264705882
v 0.922058824 0.584558824 0.000000000
v 0.840294669 0.584558824 -0.305147059
v 0.935294118 0.485294118 0.000000000
v 0.844663971 0.485294118 -0.338235294
v -0.748857912 1.014705882 -0.432352618
v -0.821361353 1.014705882 -0.161764382
v -0.759046441 0.926470588 -0.438234912
v -0.825245235 0.926470588 -0.191176088
v -0.774329235 0.794117647 -0.447058353
v -0.831071059 0.794117647 -0.235293647
v -0.784517765 0.705882353 -0.452940647
v -0.834954941 0.705882353 -0.264705353
v -0.798526993 0.584558824 -0.461028801
v -0.840295279 0.584558824 -0.305146449
v -0.809989088 0.485294118 -0.467646382
v -0.844664647 0.485294118 -0.338234618
v 0.646719118 0.705882353 0.590738824
v 0.633012500 0.750000000 0.596410000
v 0.635953676 0.705882353 0.601504265
v 0.684412316 0.584558824 0.575143088
v 0.644041912 0.584558824 0.615513493
v 0.715252206 0.485294118 0.562382941
v 0.650659559 0.485294118 0.626975588
v 0.683012500 0.000000000 0.683012500
v 0.432352941 1.014705882 0.748856912
v 0.550772794 1.014705882 0.630437059
v 0.438235294 0.926470588 0.759045441
v 0.578186029 0.926470588 0.619094706
v 0.447058824 0.794117647 0.774328235
v 0.619305882 0.794117647 0.602081176
v 0.452941176 0.705882353 0.784516765
v 0.461029412 0.584558824 0.798525993
v 0.467647059 0.485294118 0.809988088
v 0.578762941 1.014705882 -0.602446912
v 0.584645294 0.926470588 -0.612635441
v 0.593468824 0.794117647 -0.627918235
v -0.602447412 1.014705882 -0.578762618
v -0.612635941 0.926470588 -0.584644912
v -0.627918735 0.794117647 -0.593468353
v -0.578762941 1.014705882 0.602447235
v -0.584645294 0.926470588 0.612635824
v -0.593468824 0.794117647 0.627918706
v 0.602446912 1.014705882 0.578762941
v 0.612635441 0.926470588 0.584645294
v 0.627918235 0.794117647 0.593468824
vt 0.146647203 0.734375000
vt 0.104980469 1.000000000
vt 0.104980542 0.734375000
vt 0.069987006 0.734375000
vt 1.000000000 0.734375000
vt 0.965006230 1.000000000
vt 0.930012994 0.734375000
vt 0.229980469 0.734375000
vt 0.188313469 1.000000000
vt 0.313313834 0.734375000
vt 0.271647469 1.000000000
vt 0.403320275 0.734375000
vt 0.354980469 1.000000000
vt 0.354980469 0.734375000
vt 0.500000000 0.734375000
vt 0.451659770 1.000000000
vt 0.596679725 0.734375000
vt 0.548340230 1.000000000
vt 0.686686166 0.734375000
vt 0.645019531 1.000000000
vt 0.645019531 0.734375000
vt 0.770019531 0.734375000
vt 0.728352531 1.000000000
vt 0.853352897 0.734375000
vt 0.811686531 1.000000000
vt 0.034993770 1.000000000
vt 0.000000000 0.734375000
vt 0.895019531 1.000000000
vt 0.895019531 0.734375000
vt 0.930012994 0.648437500
vt 0.974007662 0.648437500
vt 0.930012994 0.632812500
vt 0.969571807 0.632812500
vt 0.930012994 0.609375000
vt 0.963121601 0.609375000
vt 0.930012994 0.593750000
vt 0.958963847 0.593750000
vt 0.930012994 0.572265625
vt 0.953439687 0.572265625
vt 0.930012994 0.554687500
vt 0.949089079 0.554687500
vt 0.930012994 0.468750000
vt 0.690000000 0.240000000
vt 0.310000000 0.240000000
vt 0.405000000 0.075455000
vt 0.403320310 0.648437500
vt 0.439225986 0.648437500
vt 0.403320315 0.632812500
vt 0.445353657 0.632812500
vt 0.403320324 0.609375000
vt 0.454263942 0.609375000
vt 0.403320329 0.593750000
vt 0.460007443 0.593750000
vt 0.403320336 0.572265625
vt 0.467638490 0.572265625
vt 0.403320342 0.554687500
vt 0.473648398 0.554687500
vt 0.403320368 0.468750000
vt 0.500000000 0.468750000
vt 0.901062180 0.593750000
vt 0.898997853 0.601562500
vt 0.898739659 0.593750000
vt 0.906586332 0.572265625
vt 0.898046478 0.572265625
vt 0.910936935 0.554687500
vt 0.897497048 0.554687500
vt 0.895019531 0.468750000
vt 0.853352897 0.648437500
vt 0.884301884 0.648437500
vt 0.853352897 0.632812500
vt 0.889583641 0.632812500
vt 0.853352897 0.609375000
vt 0.896904431 0.609375000
vt 0.853352897 0.593750000
vt 0.853352897 0.572265625
vt 0.853352897 0.554687500
vt 0.853352897 0.468750000
vt 0.229980469 0.648437500
vt 0.260929485 0.648437500
vt 0.229980469 0.632812500
vt 0.266211248 0.632812500
vt 0.229980469 0.609375000
vt 0.273891493 0.609375000
vt 0.229980469 0.593750000
vt 0.278842121 0.593750000
vt 0.229980469 0.572265625
vt 0.285419725 0.572265625
vt 0.229980469 0.554687500
vt 0.290599983 0.554687500
vt 0.229980469 0.468750000
vt 0.313313834 0.468750000
vt 0.686686166 0.648437500
vt 0.717635196 0.648437500
vt 0.686686166 0.632812500
vt 0.722916959 0.632812500
vt 0.686686166 0.609375000
vt 0.730597205 0.609375000
vt 0.686686166 0.593750000
vt 0.735547832 0.593750000
vt 0.686686166 0.572265625
vt 0.742125435 0.572265625
vt 0.686686166 0.554687500
vt 0.747305692 0.554687500
vt 0.686686166 0.468750000
vt 0.770019531 0.468750000
vt 0.112175573 0.593750000
vt 0.109717577 0.601562500
vt 0.109410115 0.593750000
vt 0.118753185 0.572265625
vt 0.108584665 0.572265625
vt 0.123933450 0.554687500
vt 0.107930395 0.554687500
vt 0.104980186 0.468750000
vt 0.146647321 0.468750000
vt 0.069987049 0.648437500
vt 0.095979393 0.648437500
vt 0.069987057 0.632812500
vt 0.100415256 0.632812500
vt 0.069987067 0.609375000
vt 0.107224938 0.609375000
vt 0.069987074 0.593750000
vt 0.069987083 0.572265625
vt 0.069987090 0.554687500
vt 0.069987122 0.468750000
vt 0.500000000 0.648437500
vt 0.535905694 0.648437500
vt 0.500000000 0.632812500
vt 0.542033365 0.632812500
vt 0.500000000 0.609375000
vt 0.550943649 0.609375000
vt 0.500000000 0.593750000
vt 0.556687151 0.593750000
vt 0.500000000 0.572265625
vt 0.564318199 0.572265625
vt 0.500000000 0.554687500
vt 0.570328109 0.554687500
vt 0.596679725 0.468750000
vt 0.363327831 0.593750000
vt 0.360476177 0.601562500
vt 0.360119508 0.593750000
vt 0.370958875 0.572265625
vt 0.359161951 0.572265625
vt 0.376968781 0.554687500
vt 0.358402969 0.554687500
vt 0.354980536 0.468750000
vt 0.313313834 0.648437500
vt 0.344262868 0.648437500
vt 0.313313834 0.632812500
vt 0.349544631 0.632812500
vt 0.313313834 0.609375000
vt 0.357584331 0.609375000
vt 0.313313834 0.593750000
vt 0.313313834 0.572265625
vt 0.313313834 0.554687500
vt 0.000000000 0.648437500
vt 0.025992388 0.648437500
vt 0.000000000 0.632812500
vt 0.030428252 0.632812500
vt 0.000000000 0.609375000
vt 0.036878469 0.609375000
vt 0.000000000 0.593750000
vt 0.041036230 0.593750000
vt 0.000000000 0.572265625
vt 0.046560398 0.572265625
vt 0.000000000 0.554687500
vt 0.050911013 0.554687500
vt 0.000000000 0.468750000
vt 0.770019531 0.648437500
vt 0.800968547 0.648437500
vt 0.770019531 0.632812500
vt 0.806250310 0.632812500
vt 0.770019531 0.609375000
vt 0.813930555 0.609375000
vt 0.770019531 0.593750000
vt 0.818881183 0.593750000
vt 0.770019531 0.572265625
vt 0.825458787 0.572265625
vt 0.770019531 0.554687500
vt 0.830639046 0.554687500
vt 0.146647247 0.648437500
vt 0.199031525 0.648437500
vt 0.146647254 0.632812500
vt 0.193749776 0.632812500
vt 0.146647265 0.609375000
vt 0.186069552 0.609375000
vt 0.146647272 0.593750000
vt 0.181118937 0.593750000
vt 0.146647281 0.572265625
vt 0.174541352 0.572265625
vt 0.146647288 0.554687500
vt 0.169361108 0.554687500
vt 0.652214499 0.593750000
vt 0.649756510 0.601562500
vt 0.649449079 0.593750000
vt 0.658792094 0.572265625
vt 0.648623710 0.572265625
vt 0.663972346 0.554687500
vt 0.647969504 0.554687500
vt 0.645019531 0.468750000
vt 0.596679725 0.648437500
vt 0.632585386 0.648437500
vt 0.596679725 0.632812500
vt 0.638713050 0.632812500
vt 0.596679725 0.609375000
vt 0.647263877 0.609375000
vt 0.596679725 0.593750000
vt 0.596679725 0.572265625
vt 0.596679725 0.554687500
vt 1.000000000 0.648437500
vt 1.000000000 0.632812500
vt 1.000000000 0.609375000
vt 1.000000000 0.593750000
vt 1.000000000 0.572265625
vt 1.000000000 0.554687500
vt 1.000000000 0.468750000
vt 0.500000000 0.050000000
vt 0.595000000 0.075455000
vt 0.664545000 0.145000000
vt 0.664545000 0.335000000
vt 0.595000000 0.404545000
vt 0.500000000 0.430000000
vt 0.405000000 0.404545000
vt 0.335455000 0.335000000
vt 0.335455000 0.145000000
vt 0.897699242 0.648437500
vt 0.898143802 0.632812500
vt 0.898788582 0.609375000
vt 0.108171304 0.648437500
vt 0.108700648 0.632812500
vt 0.109468395 0.609375000
vt 0.358682258 0.648437500
vt 0.359296380 0.632812500
vt 0.360187087 0.609375000
vt 0.648210256 0.648437500
vt 0.648739594 0.632812500
vt 0.649507331 0.609375000
vn -0.628600000 0.458000000 -0.628600000
vn 0.230100000 0.458000000 -0.858700000
vn -0.858700000 0.458000000 -0.230100000
vn -0.858700000 0.458000000 0.230100000
vn -0.628600000 0.458000000 0.628600000
vn -0.230100000 0.458000000 0.858700000
vn 0.230100000 0.458000000 0.858700000
vn 0.628600000 0.458000000 0.628600000
vn 0.858700000 0.458000000 0.230100000
vn 0.858700000 0.458000000 -0.230100000
vn -0.230100000 0.458000000 -0.858700000
vn 0.628600000 0.458000000 -0.628600000
vn 0.256700000 0.127700000 -0.958000000
vn 0.000000000 -1.000000000 0.000000000
vn -0.256700000 0.127700000 0.958000000
vn 0.701300000 0.127700000 -0.701300000
vn -0.958000000 0.127700000 0.256700000
vn 0.958000000 0.127700000 0.256700000
vn -0.701300000 0.127700000 -0.701300000
vn 0.256700000 0.127700000 0.958000000
vn -0.701300000 0.127700000 0.701300000
vn -0.256700000 0.127700000 -0.958000000
vn 0.958000000 0.127700000 -0.256700000
vn -0.958000000 0.127700000 -0.256700000
vn 0.701300000 0.127700000 0.701300000
s off
f 1/1/1 2/2/1 3/3/1
f 2/2/1 4/4/1 3/3/1
f 5/5/2 2/6/2 6/7/2
f 7/8/3 2/9/3 1/1/3
f 8/10/4 2/11/4 7/8/4
f 9/12/5 2/13/5 10/14/5
f 2/13/5 8/10/5 10/14/5
f 11/15/6 2/16/6 9/12/6
f 12/17/7 2/18/7 11/15/7
f 13/19/8 2/20/8 14/21/8
f 2/20/8 12/17/8 14/21/8
f 15/22/9 2/23/9 13/19/9
f 16/24/10 2/25/10 15/22/10
f 4/4/11 2/26/11 5/27/11
f 6/7/12 2/28/12 17/29/12
f 2/28/12 16/24/12 17/29/12
f 5/5/13 6/7/13 18/30/13
f 5/5/13 18/30/13 19/31/13
f 18/30/13 20/32/13 21/33/13
f 18/30/13 21/33/13 19/31/13
f 20/32/13 22/34/13 23/35/13
f 20/32/13 23/35/13 21/33/13
f 22/34/13 24/36/13 25/37/13
f 22/34/13 25/37/13 23/35/13
f 24/36/13 26/38/13 27/39/13
f 24/36/13 27/39/13 25/37/13
f 26/38/13 28/40/13 29/41/13
f 26/38/13 29/41/13 27/39/13
f 28/40/13 30/42/13 29/41/13
f 31/43/14 32/44/14 33/45/14
f 9/12/15 34/46/15 35/47/15
f 34/46/15 36/48/15 37/49/15
f 34/46/15 37/49/15 35/47/15
f 36/48/15 38/50/15 39/51/15
f 36/48/15 39/51/15 37/49/15
f 38/50/15 40/52/15 41/53/15
f 38/50/15 41/53/15 39/51/15
f 40/52/15 42/54/15 43/55/15
f 40/52/15 43/55/15 41/53/15
f 42/54/15 44/56/15 45/57/15
f 42/54/15 45/57/15 43/55/15
f 44/56/15 46/58/15 47/59/15
f 44/56/15 47/59/15 45/57/15
f 48/60/16 49/61/16 50/62/16
f 51/63/16 48/60/16 50/62/16
f 51/63/16 50/62/16 52/64/16
f 53/65/16 51/63/16 52/64/16
f 53/65/16 52/64/16 54/66/16
f 55/67/16 30/42/16 53/65/16
f 55/67/16 53/65/16 54/66/16
f 16/24/16 56/68/16 57/69/16
f 56/68/16 58/70/16 59/71/16
f 56/68/16 59/71/16 57/69/16
f 58/70/16 60/72/16 61/73/16
f 58/70/16 61/73/16 59/71/16
f 60/72/16 62/74/16 50/62/16
f 60/72/16 50/62/16 49/61/16
f 60/72/16 49/61/16 61/73/16
f 62/74/16 63/75/16 52/64/16
f 62/74/16 52/64/16 50/62/16
f 63/75/16 64/76/16 54/66/16
f 63/75/16 54/66/16 52/64/16
f 64/76/16 65/77/16 55/67/16
f 64/76/16 55/67/16 54/66/16
f 7/8/17 66/78/17 67/79/17
f 66/78/17 68/80/17 69/81/17
f 66/78/17 69/81/17 67/79/17
f 68/80/17 70/82/17 71/83/17
f 68/80/17 71/83/17 69/81/17
f 70/82/17 72/84/17 73/85/17
f 70/82/17 73/85/17 71/83/17
f 72/84/17 74/86/17 75/87/17
f 72/84/17 75/87/17 73/85/17
f 74/86/17 76/88/17 77/89/17
f 74/86/17 77/89/17 75/87/17
f 76/88/17 32/90/17 78/91/17
f 76/88/17 78/91/17 77/89/17
f 13/19/18 79/92/18 80/93/18
f 79/92/18 81/94/18 82/95/18
f 79/92/18 82/95/18 80/93/18
f 81/94/18 83/96/18 84/97/18
f 81/94/18 84/97/18 82/95/18
f 83/96/18 85/98/18 86/99/18
f 83/96/18 86/99/18 84/97/18
f 85/98/18 87/100/18 88/101/18
f 85/98/18 88/101/18 86/99/18
f 87/100/18 89/102/18 90/103/18
f 87/100/18 90/103/18 88/101/18
f 89/102/18 91/104/18 31/105/18
f 89/102/18 31/105/18 90/103/18
f 92/106/19 93/107/19 94/108/19
f 95/109/19 92/106/19 94/108/19
f 95/109/19 94/108/19 96/110/19
f 97/111/19 95/109/19 96/110/19
f 97/111/19 96/110/19 98/112/19
f 99/113/19 100/114/19 97/111/19
f 99/113/19 97/111/19 98/112/19
f 4/4/19 101/115/19 102/116/19
f 101/115/19 103/117/19 104/118/19
f 101/115/19 104/118/19 102/116/19
f 103/117/19 105/119/19 106/120/19
f 103/117/19 106/120/19 104/118/19
f 105/119/19 107/121/19 94/108/19
f 105/119/19 94/108/19 93/107/19
f 105/119/19 93/107/19 106/120/19
f 107/121/19 108/122/19 96/110/19
f 107/121/19 96/110/19 94/108/19
f 108/122/19 109/123/19 98/112/19
f 108/122/19 98/112/19 96/110/19
f 109/123/19 33/124/19 99/113/19
f 109/123/19 99/113/19 98/112/19
f 11/15/20 110/125/20 111/126/20
f 110/125/20 112/127/20 113/128/20
f 110/125/20 113/128/20 111/126/20
f 112/127/20 114/129/20 115/130/20
f 112/127/20 115/130/20 113/128/20
f 114/129/20 116/131/20 117/132/20
f 114/129/20 117/132/20 115/130/20
f 116/131/20 118/133/20 119/134/20
f 116/131/20 119/134/20 117/132/20
f 118/133/20 120/135/20 121/136/20
f 118/133/20 121/136/20 119/134/20
f 120/135/20 47/59/20 122/137/20
f 120/135/20 122/137/20 121/136/20
f 123/138/21 124/139/21 125/140/21
f 126/141/21 123/138/21 125/140/21
f 126/141/21 125/140/21 127/142/21
f 128/143/21 126/141/21 127/142/21
f 128/143/21 127/142/21 129/144/21
f 130/145/21 46/58/21 128/143/21
f 130/145/21 128/143/21 129/144/21
f 8/10/21 131/146/21 132/147/21
f 131/146/21 133/148/21 134/149/21
f 131/146/21 134/149/21 132/147/21
f 133/148/21 135/150/21 136/151/21
f 133/148/21 136/151/21 134/149/21
f 135/150/21 137/152/21 125/140/21
f 135/150/21 125/140/21 124/139/21
f 135/150/21 124/139/21 136/151/21
f 137/152/21 138/153/21 127/142/21
f 137/152/21 127/142/21 125/140/21
f 138/153/21 139/154/21 129/144/21
f 138/153/21 129/144/21 127/142/21
f 139/154/21 78/91/21 130/145/21
f 139/154/21 130/145/21 129/144/21
f 5/27/22 140/155/22 141/156/22
f 140/155/22 142/157/22 143/158/22
f 140/155/22 143/158/22 141/156/22
f 142/157/22 144/159/22 145/160/22
f 142/157/22 145/160/22 143/158/22
f 144/159/22 146/161/22 147/162/22
f 144/159/22 147/162/22 145/160/22
f 146/161/22 148/163/22 149/164/22
f 146/161/22 149/164/22 147/162/22
f 148/163/22 150/165/22 151/166/22
f 148/163/22 151/166/22 149/164/22
f 150/165/22 152/167/22 33/124/22
f 150/165/22 33/124/22 151/166/22
f 15/22/23 153/168/23 154/169/23
f 153/168/23 155/170/23 156/171/23
f 153/168/23 156/171/23 154/169/23
f 155/170/23 157/172/23 158/173/23
f 155/170/23 158/173/23 156/171/23
f 157/172/23 159/174/23 160/175/23
f 157/172/23 160/175/23 158/173/23
f 159/174/23 161/176/23 162/177/23
f 159/174/23 162/177/23 160/175/23
f 161/176/23 163/178/23 164/179/23
f 161/176/23 164/179/23 162/177/23
f 163/178/23 31/105/23 65/77/23
f 163/178/23 65/77/23 164/179/23
f 7/8/24 1/1/24 165/180/24
f 7/8/24 165/180/24 166/181/24
f 165/180/24 167/182/24 168/183/24
f 165/180/24 168/183/24 166/181/24
f 167/182/24 169/184/24 170/185/24
f 167/182/24 170/185/24 168/183/24
f 169/184/24 171/186/24 172/187/24
f 169/184/24 172/187/24 170/185/24
f 171/186/24 173/188/24 174/189/24
f 171/186/24 174/189/24 172/187/24
f 173/188/24 175/190/24 176/191/24
f 173/188/24 176/191/24 174/189/24
f 175/190/24 100/114/24 176/191/24
f 177/192/25 178/193/25 179/194/25
f 180/195/25 177/192/25 179/194/25
f 180/195/25 179/194/25 181/196/25
f 182/197/25 180/195/25 181/196/25
f 182/197/25 181/196/25 183/198/25
f 184/199/25 91/104/25 182/197/25
f 184/199/25 182/197/25 183/198/25
f 12/17/25 185/200/25 186/201/25
f 185/200/25 187/202/25 188/203/25
f 185/200/25 188/203/25 186/201/25
f 187/202/25 189/204/25 190/205/25
f 187/202/25 190/205/25 188/203/25
f 189/204/25 191/206/25 179/194/25
f 189/204/25 179/194/25 178/193/25
f 189/204/25 178/193/25 190/205/25
f 191/206/25 192/207/25 181/196/25
f 191/206/25 181/196/25 179/194/25
f 192/207/25 193/208/25 183/198/25
f 192/207/25 183/198/25 181/196/25
f 193/208/25 122/137/25 184/199/25
f 193/208/25 184/199/25 183/198/25
f 140/209/13 5/5/13 19/31/13
f 142/210/13 140/209/13 19/31/13
f 142/210/13 19/31/13 21/33/13
f 144/211/13 142/210/13 21/33/13
f 144/211/13 21/33/13 23/35/13
f 146/212/13 144/211/13 23/35/13
f 146/212/13 23/35/13 25/37/13
f 148/213/13 146/212/13 25/37/13
f 148/213/13 25/37/13 27/39/13
f 150/214/13 148/213/13 27/39/13
f 150/214/13 27/39/13 29/41/13
f 152/215/13 150/214/13 29/41/13
f 152/215/13 29/41/13 30/42/13
f 33/45/14 152/216/14 30/217/14
f 30/217/14 65/218/14 31/43/14
f 31/43/14 91/219/14 122/220/14
f 122/220/14 47/221/14 46/222/14
f 46/222/14 78/223/14 32/44/14
f 32/44/14 100/224/14 33/45/14
f 33/45/14 30/217/14 31/43/14
f 31/43/14 122/220/14 46/222/14
f 46/222/14 32/44/14 31/43/14
f 11/15/15 9/12/15 35/47/15
f 11/15/15 35/47/15 110/125/15
f 35/47/15 37/49/15 112/127/15
f 35/47/15 112/127/15 110/125/15
f 37/49/15 39/51/15 114/129/15
f 37/49/15 114/129/15 112/127/15
f 39/51/15 41/53/15 116/131/15
f 39/51/15 116/131/15 114/129/15
f 41/53/15 43/55/15 118/133/15
f 41/53/15 118/133/15 116/131/15
f 43/55/15 45/57/15 120/135/15
f 43/55/15 120/135/15 118/133/15
f 45/57/15 47/59/15 120/135/15
f 6/7/16 17/29/16 194/225/16
f 6/7/16 194/225/16 18/30/16
f 194/225/16 195/226/16 20/32/16
f 194/225/16 20/32/16 18/30/16
f 195/226/16 196/227/16 22/34/16
f 195/226/16 22/34/16 20/32/16
f 196/227/16 49/61/16 48/60/16
f 196/227/16 48/60/16 24/36/16
f 196/227/16 24/36/16 22/34/16
f 48/60/16 51/63/16 26/38/16
f 48/60/16 26/38/16 24/36/16
f 51/63/16 53/65/16 28/40/16
f 51/63/16 28/40/16 26/38/16
f 53/65/16 30/42/16 28/40/16
f 17/29/16 16/24/16 57/69/16
f 17/29/16 57/69/16 194/225/16
f 57/69/16 59/71/16 195/226/16
f 57/69/16 195/226/16 194/225/16
f 59/71/16 61/73/16 196/227/16
f 59/71/16 196/227/16 195/226/16
f 61/73/16 49/61/16 196/227/16
f 8/10/17 7/8/17 67/79/17
f 8/10/17 67/79/17 131/146/17
f 67/79/17 69/81/17 133/148/17
f 67/79/17 133/148/17 131/146/17
f 69/81/17 71/83/17 135/150/17
f 69/81/17 135/150/17 133/148/17
f 71/83/17 73/85/17 137/152/17
f 71/83/17 137/152/17 135/150/17
f 73/85/17 75/87/17 138/153/17
f 73/85/17 138/153/17 137/152/17
f 75/87/17 77/89/17 139/154/17
f 75/87/17 139/154/17 138/153/17
f 77/89/17 78/91/17 139/154/17
f 15/22/18 13/19/18 80/93/18
f 15/22/18 80/93/18 153/168/18
f 80/93/18 82/95/18 155/170/18
f 80/93/18 155/170/18 153/168/18
f 82/95/18 84/97/18 157/172/18
f 82/95/18 157/172/18 155/170/18
f 84/97/18 86/99/18 159/174/18
f 84/97/18 159/174/18 157/172/18
f 86/99/18 88/101/18 161/176/18
f 86/99/18 161/176/18 159/174/18
f 88/101/18 90/103/18 163/178/18
f 88/101/18 163/178/18 161/176/18
f 90/103/18 31/105/18 163/178/18
f 1/1/19 3/3/19 197/228/19
f 1/1/19 197/228/19 165/180/19
f 197/228/19 198/229/19 167/182/19
f 197/228/19 167/182/19 165/180/19
f 198/229/19 199/230/19 169/184/19
f 198/229/19 169/184/19 167/182/19
f 199/230/19 93/107/19 92/106/19
f 199/230/19 92/106/19 171/186/19
f 199/230/19 171/186/19 169/184/19
f 92/106/19 95/109/19 173/188/19
f 92/106/19 173/188/19 171/186/19
f 95/109/19 97/111/19 175/190/19
f 95/109/19 175/190/19 173/188/19
f 97/111/19 100/114/19 175/190/19
f 3/3/19 4/4/19 102/116/19
f 3/3/19 102/116/19 197/228/19
f 102/116/19 104/118/19 198/229/19
f 102/116/19 198/229/19 197/228/19
f 104/118/19 106/120/19 199/230/19
f 104/118/19 199/230/19 198/229/19
f 106/120/19 93/107/19 199/230/19
f 12/17/20 11/15/20 111/126/20
f 12/17/20 111/126/20 185/200/20
f 111/126/20 113/128/20 187/202/20
f 111/126/20 187/202/20 185/200/20
f 113/128/20 115/130/20 189/204/20
f 113/128/20 189/204/20 187/202/20
f 115/130/20 117/132/20 191/206/20
f 115/130/20 191/206/20 189/204/20
f 117/132/20 119/134/20 192/207/20
f 117/132/20 192/207/20 191/206/20
f 119/134/20 121/136/20 193/208/20
f 119/134/20 193/208/20 192/207/20
f 121/136/20 122/137/20 193/208/20
f 9/12/21 10/14/21 200/231/21
f 9/12/21 200/231/21 34/46/21
f 200/231/21 201/232/21 36/48/21
f 200/231/21 36/48/21 34/46/21
f 201/232/21 202/233/21 38/50/21
f 201/232/21 38/50/21 36/48/21
f 202/233/21 124/139/21 123/138/21
f 202/233/21 123/138/21 40/52/21
f 202/233/21 40/52/21 38/50/21
f 123/138/21 126/141/21 42/54/21
f 123/138/21 42/54/21 40/52/21
f 126/141/21 128/143/21 44/56/21
f 126/141/21 44/56/21 42/54/21
f 128/143/21 46/58/21 44/56/21
f 10/14/21 8/10/21 132/147/21
f 10/14/21 132/147/21 200/231/21
f 132/147/21 134/149/21 201/232/21
f 132/147/21 201/232/21 200/231/21
f 134/149/21 136/151/21 202/233/21
f 134/149/21 202/233/21 201/232/21
f 136/151/21 124/139/21 202/233/21
f 4/4/22 5/27/22 141/156/22
f 4/4/22 141/156/22 101/115/22
f 141/156/22 143/158/22 103/117/22
f 141/156/22 103/117/22 101/115/22
f 143/158/22 145/160/22 105/119/22
f 143/158/22 105/119/22 103/117/22
f 145/160/22 147/162/22 107/121/22
f 145/160/22 107/121/22 105/119/22
f 147/162/22 149/164/22 108/122/22
f 147/162/22 108/122/22 107/121/22
f 149/164/22 151/166/22 109/123/22
f 149/164/22 109/123/22 108/122/22
f 151/166/22 33/124/22 109/123/22
f 16/24/23 15/22/23 154/169/23
f 16/24/23 154/169/23 56/68/23
f 154/169/23 156/171/23 58/70/23
f 154/169/23 58/70/23 56/68/23
f 156/171/23 158/173/23 60/72/23
f 156/171/23 60/72/23 58/70/23
f 158/173/23 160/175/23 62/74/23
f 158/173/23 62/74/23 60/72/23
f 160/175/23 162/177/23 63/75/23
f 160/175/23 63/75/23 62/74/23
f 162/177/23 164/179/23 64/76/23
f 162/177/23 64/76/23 63/75/23
f 164/179/23 65/77/23 64/76/23
f 66/78/24 7/8/24 166/181/24
f 68/80/24 66/78/24 166/181/24
f 68/80/24 166/181/24 168/183/24
f 70/82/24 68/80/24 168/183/24
f 70/82/24 168/183/24 170/185/24
f 72/84/24 70/82/24 170/185/24
f 72/84/24 170/185/24 172/187/24
f 74/86/24 72/84/24 172/187/24
f 74/86/24 172/187/24 174/189/24
f 76/88/24 74/86/24 174/189/24
f 76/88/24 174/189/24 176/191/24
f 32/90/24 76/88/24 176/191/24
f 32/90/24 176/191/24 100/114/24
f 13/19/25 14/21/25 203/234/25
f 13/19/25 203/234/25 79/92/25
f 203/234/25 204/235/25 81/94/25
f 203/234/25 81/94/25 79/92/25
f 204/235/25 205/236/25 83/96/25
f 204/235/25 83/96/25 81/94/25
f 205/236/25 178/193/25 177/192/25
f 205/236/25 177/192/25 85/98/25
f 205/236/25 85/98/25 83/96/25
f 177/192/25 180/195/25 87/100/25
f 177/192/25 87/100/25 85/98/25
f 180/195/25 182/197/25 89/102/25
f 180/195/25 89/102/25 87/100/25
f 182/197/25 91/104/25 89/102/25
f 14/21/25 12/17/25 186/201/25
f 14/21/25 186/201/25 203/234/25
f 186/201/25 188/203/25 204/235/25
f 186/201/25 204/235/25 203/234/25
f 188/203/25 190/205/25 205/236/25
f 188/203/25 205/236/25 204/235/25
f 190/205/25 178/193/25 205/236/25
