# American flag UV mapping; geometry and normals retained from mp_w_20_minuteman.obj
o Minuteman
v -0.692821000 1.500000000 -0.400000000
v 0.000000000 3.000000000 0.000000000
v -0.546410500 1.500000000 -0.546410000
v -0.400000000 1.500000000 -0.692820000
v -0.000000000 1.500000000 -0.800000000
v 0.400000000 1.500000000 -0.692820000
v -0.800000000 1.500000000 0.000000000
v -0.692820000 1.500000000 0.400000000
v -0.400000000 1.500000000 0.692820000
v -0.546410000 1.500000000 0.546410000
v 0.000000000 1.500000000 0.800000000
v 0.400000000 1.500000000 0.692820000
v 0.692820000 1.500000000 0.400000000
v 0.546410000 1.500000000 0.546410000
v 0.800000000 1.500000000 0.000000000
v 0.692820000 1.500000000 -0.400000000
v 0.546410000 1.500000000 -0.546410000
v 0.432352941 1.014705882 -0.748856912
v 0.161764706 1.014705882 -0.821361029
v 0.438235294 0.926470588 -0.759045441
v 0.191176471 0.926470588 -0.825244853
v 0.447058824 0.794117647 -0.774328235
v 0.235294118 0.794117647 -0.831070588
v 0.452941176 0.705882353 -0.784516765
v 0.264705882 0.705882353 -0.834954412
v 0.461029412 0.584558824 -0.798525993
v 0.305147059 0.584558824 -0.840294669
v 0.467647059 0.485294118 -0.809988088
v 0.338235294 0.485294118 -0.844663971
v 0.500000000 0.000000000 -0.866025000
v 1.000000000 0.000000000 0.000000000
v -1.000000000 0.000000000 0.000000000
v -0.500001000 0.000000000 -0.866025000
v -0.432352941 1.014705882 0.748857235
v -0.270588235 1.014705882 0.792201765
v -0.438235294 0.926470588 0.759045824
v -0.247058824 0.926470588 0.810271176
v -0.447058824 0.794117647 0.774328706
v -0.211764706 0.794117647 0.837375294
v -0.452941176 0.705882353 0.784517294
v -0.188235294 0.705882353 0.855444706
v -0.461029412 0.584558824 0.798526603
v -0.155882353 0.584558824 0.880290147
v -0.467647059 0.485294118 0.809988765
v -0.129411765 0.485294118 0.900618235
v -0.500000000 0.000000000 0.866026000
v 0.000000000 0.000000000 1.000000000
v 0.590738824 0.705882353 -0.646719118
v 0.596410000 0.750000000 -0.633012500
v 0.601504265 0.705882353 -0.635953676
v 0.575143088 0.584558824 -0.684412316
v 0.615513493 0.584558824 -0.644041912
v 0.562382941 0.485294118 -0.715252206
v 0.626975588 0.485294118 -0.650659559
v 0.683012500 0.000000000 -0.683012500
v 0.748856912 1.014705882 -0.432352941
v 0.630437059 1.014705882 -0.550772794
v 0.759045441 0.926470588 -0.438235294
v 0.619094706 0.926470588 -0.578186029
v 0.774328235 0.794117647 -0.447058824
v 0.602081176 0.794117647 -0.619305882
v 0.784516765 0.705882353 -0.452941176
v 0.798525993 0.584558824 -0.461029412
v 0.809988088 0.485294118 -0.467647059
v 0.866025000 0.000000000 -0.500000000
v -0.864705882 1.014705882 0.000000000
v -0.821361029 1.014705882 0.161764706
v -0.876470588 0.926470588 0.000000000
v -0.825244853 0.926470588 0.191176471
v -0.894117647 0.794117647 0.000000000
v -0.831070588 0.794117647 0.235294118
v -0.905882353 0.705882353 0.000000000
v -0.834954412 0.705882353 0.264705882
v -0.922058824 0.584558824 0.000000000
v -0.840294669 0.584558824 0.305147059
v -0.935294118 0.485294118 0.000000000
v -0.844663971 0.485294118 0.338235294
v -0.866025000 0.000000000 0.500000000
v 0.748856912 1.014705882 0.432352941
v 0.792201765 1.014705882 0.270588235
v 0.759045441 0.926470588 0.438235294
v 0.810271176 0.926470588 0.247058824
v 0.774328235 0.794117647 0.447058824
v 0.837375294 0.794117647 0.211764706
v 0.784516765 0.705882353 0.452941176
v 0.855444706 0.705882353 0.188235294
v 0.798525993 0.584558824 0.461029412
v 0.880290147 0.584558824 0.155882353
v 0.809988088 0.485294118 0.467647059
v 0.900618235 0.485294118 0.129411765
v 0.866025000 0.000000000 0.500000000
v -0.646719647 0.705882353 -0.590738294
v -0.633013000 0.750000000 -0.596409500
v -0.635954077 0.705882353 -0.601503894
v -0.684412926 0.584558824 -0.575142478
v -0.644042038 0.584558824 -0.615513477
v -0.715252882 0.485294118 -0.562382265
v -0.650659460 0.485294118 -0.626975863
v -0.683011304 0.000000000 -0.683014196
v -0.866026000 0.000000000 -0.499999000
v -0.432353265 1.014705882 -0.748856912
v -0.550773118 1.014705882 -0.630436735
v -0.438235676 0.926470588 -0.759045441
v -0.578186412 0.926470588 -0.619094324
v -0.447059294 0.794117647 -0.774328235
v -0.619306353 0.794117647 -0.602080706
v -0.452941706 0.705882353 -0.784516765
v -0.461030022 0.584558824 -0.798525993
v -0.467647735 0.485294118 -0.809988088
v 0.000000000 1.014705882 0.864705882
v 0.161764706 1.014705882 0.821361029
v 0.000000000 0.926470588 0.876470588
v 0.191176471 0.926470588 0.825244853
v 0.000000000 0.794117647 0.894117647
v 0.235294118 0.794117647 0.831070588
v 0.000000000 0.705882353 0.905882353
v 0.264705882 0.705882353 0.834954412
v 0.000000000 0.584558824 0.922058824
v 0.305147059 0.584558824 0.840294669
v 0.000000000 0.485294118 0.935294118
v 0.338235294 0.485294118 0.844663971
v 0.500000000 0.000000000 0.866025000
v -0.590738824 0.705882353 0.646719647
v -0.596410000 0.750000000 0.633013000
v -0.601504265 0.705882353 0.635954176
v -0.575143088 0.584558824 0.684412926
v -0.615513493 0.584558824 0.644042412
v -0.562382941 0.485294118 0.715252882
v -0.626975588 0.485294118 0.650660059
v -0.683012500 0.000000000 0.683013000
v -0.748856912 1.014705882 0.432352941
v -0.630437059 1.014705882 0.550773118
v -0.759045441 0.926470588 0.438235294
v -0.619094706 0.926470588 0.578186412
v -0.774328235 0.794117647 0.447058824
v -0.602081176 0.794117647 0.619306353
v -0.784516765 0.705882353 0.452941176
v -0.798525993 0.584558824 0.461029412
v -0.809988088 0.485294118 0.467647059
v 0.000000000 1.014705882 -0.864705882
v -0.161765029 1.014705882 -0.821361029
v 0.000000000 0.926470588 -0.876470588
v -0.191176853 0.926470588 -0.825244853
v 0.000000000 0.794117647 -0.894117647
v -0.235294588 0.794117647 -0.831070588
v 0.000000000 0.705882353 -0.905882353
v -0.264706412 0.705882353 -0.834954412
v 0.000000000 0.584558824 -0.922058824
v -0.305147669 0.584558824 -0.840294669
v 0.000000000 0.485294118 -0.935294118
v -0.338235971 0.485294118 -0.844663971
v -0.000000000 0.000000000 -1.000000000
v 0.864705882 1.014705882 0.000000000
v 0.821361029 1.014705882 -0.161764706
v 0.876470588 0.926470588 0.000000000
v 0.825244853 0.926470588 -0.191176471
v 0.894117647 0.794117647 0.000000000
v 0.831070588 0.794117647 -0.235294118
v 0.905882353 0.705882353 0.000000000
v 0.834954412 0.705882353 -0.264705882
v 0.922058824 0.584558824 0.000000000
v 0.840294669 0.584558824 -0.305147059
v 0.935294118 0.485294118 0.000000000
v 0.844663971 0.485294118 -0.338235294
v -0.748857912 1.014705882 -0.432352618
v -0.821361353 1.014705882 -0.161764382
v -0.759046441 0.926470588 -0.438234912
v -0.825245235 0.926470588 -0.191176088
v -0.774329235 0.794117647 -0.447058353
v -0.831071059 0.794117647 -0.235293647
v -0.784517765 0.705882353 -0.452940647
v -0.834954941 0.705882353 -0.264705353
v -0.798526993 0.584558824 -0.461028801
v -0.840295279 0.584558824 -0.305146449
v -0.809989088 0.485294118 -0.467646382
v -0.844664647 0.485294118 -0.338234618
v 0.646719118 0.705882353 0.590738824
v 0.633012500 0.750000000 0.596410000
v 0.635953676 0.705882353 0.601504265
v 0.684412316 0.584558824 0.575143088
v 0.644041912 0.584558824 0.615513493
v 0.715252206 0.485294118 0.562382941
v 0.650659559 0.485294118 0.626975588
v 0.683012500 0.000000000 0.683012500
v 0.432352941 1.014705882 0.748856912
v 0.550772794 1.014705882 0.630437059
v 0.438235294 0.926470588 0.759045441
v 0.578186029 0.926470588 0.619094706
v 0.447058824 0.794117647 0.774328235
v 0.619305882 0.794117647 0.602081176
v 0.452941176 0.705882353 0.784516765
v 0.461029412 0.584558824 0.798525993
v 0.467647059 0.485294118 0.809988088
v 0.578762941 1.014705882 -0.602446912
v 0.584645294 0.926470588 -0.612635441
v 0.593468824 0.794117647 -0.627918235
v -0.602447412 1.014705882 -0.578762618
v -0.612635941 0.926470588 -0.584644912
v -0.627918735 0.794117647 -0.593468353
v -0.578762941 1.014705882 0.602447235
v -0.584645294 0.926470588 0.612635824
v -0.593468824 0.794117647 0.627918706
v 0.602446912 1.014705882 0.578762941
v 0.612635441 0.926470588 0.584645294
v 0.627918235 0.794117647 0.593468824
vn -0.628600000 0.458000000 -0.628600000
vn 0.230100000 0.458000000 -0.858700000
vn -0.858700000 0.458000000 -0.230100000
vn -0.858700000 0.458000000 0.230100000
vn -0.628600000 0.458000000 0.628600000
vn -0.230100000 0.458000000 0.858700000
vn 0.230100000 0.458000000 0.858700000
vn 0.628600000 0.458000000 0.628600000
vn 0.858700000 0.458000000 0.230100000
vn 0.858700000 0.458000000 -0.230100000
vn -0.230100000 0.458000000 -0.858700000
vn 0.628600000 0.458000000 -0.628600000
vn 0.256700000 0.127700000 -0.958000000
vn 0.000000000 -1.000000000 0.000000000
vn -0.256700000 0.127700000 0.958000000
vn 0.701300000 0.127700000 -0.701300000
vn -0.958000000 0.127700000 0.256700000
vn 0.958000000 0.127700000 0.256700000
vn -0.701300000 0.127700000 -0.701300000
vn 0.256700000 0.127700000 0.958000000
vn -0.701300000 0.127700000 0.701300000
vn -0.256700000 0.127700000 -0.958000000
vn 0.958000000 0.127700000 -0.256700000
vn -0.958000000 0.127700000 -0.256700000
vn 0.701300000 0.127700000 0.701300000
vt 0.283333 0.500000
vt 0.304167 0.999500
vt 0.325000 0.500000
vt 0.345833 0.999500
vt 0.366667 0.500000
vt 0.325000 0.500000
vt 0.450000 0.500000
vt 0.491667 0.999500
vt 0.533333 0.500000
vt 0.200000 0.500000
vt 0.241667 0.999500
vt 0.283333 0.500000
vt 0.116667 0.500000
vt 0.158333 0.999500
vt 0.200000 0.500000
vt 0.033333 0.500000
vt 0.054167 0.999500
vt 0.075000 0.500000
vt 0.095833 0.999500
vt 0.116667 0.500000
vt 0.075000 0.500000
vt 0.950000 0.500000
vt 0.991667 0.999500
vt 1.033333 0.500000
vt 0.866667 0.500000
vt 0.908333 0.999500
vt 0.950000 0.500000
vt 0.783333 0.500000
vt 0.804167 0.999500
vt 0.825000 0.500000
vt 0.845833 0.999500
vt 0.866667 0.500000
vt 0.825000 0.500000
vt 0.700000 0.500000
vt 0.741667 0.999500
vt 0.783333 0.500000
vt 0.616667 0.500000
vt 0.658333 0.999500
vt 0.700000 0.500000
vt 0.366667 0.500000
vt 0.408333 0.999500
vt 0.450000 0.500000
vt 0.533333 0.500000
vt 0.554167 0.999500
vt 0.575000 0.500000
vt 0.595833 0.999500
vt 0.616667 0.500000
vt 0.575000 0.500000
vt 0.450000 0.500000
vt 0.533333 0.500000
vt 0.533333 0.338235
vt 0.450000 0.500000
vt 0.533333 0.338235
vt 0.480949 0.338235
vt 0.533333 0.338235
vt 0.533333 0.308824
vt 0.486231 0.308824
vt 0.533333 0.338235
vt 0.486231 0.308824
vt 0.480949 0.338235
vt 0.533333 0.308824
vt 0.533333 0.264706
vt 0.493911 0.264706
vt 0.533333 0.308824
vt 0.493911 0.264706
vt 0.486231 0.308824
vt 0.533333 0.264706
vt 0.533333 0.235294
vt 0.498862 0.235294
vt 0.533333 0.264706
vt 0.498862 0.235294
vt 0.493911 0.264706
vt 0.533333 0.235294
vt 0.533333 0.194853
vt 0.505439 0.194853
vt 0.533333 0.235294
vt 0.505439 0.194853
vt 0.498862 0.235294
vt 0.533333 0.194853
vt 0.533333 0.161765
vt 0.510620 0.161765
vt 0.533333 0.194853
vt 0.510620 0.161765
vt 0.505439 0.194853
vt 0.533333 0.161765
vt 0.533333 0.000500
vt 0.510620 0.161765
vt 0.700000 0.000500
vt 0.200000 0.000500
vt 0.366666 0.000500
vt 0.033333 0.500000
vt 0.033333 0.338235
vt 0.002384 0.338235
vt 1.033333 0.338235
vt 1.033333 0.308824
vt 0.997103 0.308824
vt 1.033333 0.338235
vt 0.997103 0.308824
vt 1.002384 0.338235
vt 1.033333 0.308824
vt 1.033333 0.264706
vt 0.989422 0.264706
vt 1.033333 0.308824
vt 0.989422 0.264706
vt 0.997103 0.308824
vt 1.033333 0.264706
vt 1.033333 0.235294
vt 0.984472 0.235294
vt 1.033333 0.264706
vt 0.984472 0.235294
vt 0.989422 0.264706
vt 1.033333 0.235294
vt 1.033333 0.194853
vt 0.977894 0.194853
vt 1.033333 0.235294
vt 0.977894 0.194853
vt 0.984472 0.235294
vt 1.033333 0.194853
vt 1.033333 0.161765
vt 0.972714 0.161765
vt 1.033333 0.194853
vt 0.972714 0.161765
vt 0.977894 0.194853
vt 1.033333 0.161765
vt 1.033333 0.000500
vt 0.950000 0.000500
vt 1.033333 0.161765
vt 0.950000 0.000500
vt 0.972714 0.161765
vt 0.567805 0.235294
vt 0.570263 0.250000
vt 0.570570 0.235294
vt 0.561227 0.194853
vt 0.567805 0.235294
vt 0.570570 0.235294
vt 0.561227 0.194853
vt 0.570570 0.235294
vt 0.571396 0.194853
vt 0.556047 0.161765
vt 0.561227 0.194853
vt 0.571396 0.194853
vt 0.556047 0.161765
vt 0.571396 0.194853
vt 0.572050 0.161765
vt 0.575000 0.000500
vt 0.533333 0.000500
vt 0.556047 0.161765
vt 0.575000 0.000500
vt 0.556047 0.161765
vt 0.572050 0.161765
vt 0.616667 0.500000
vt 0.616667 0.338235
vt 0.585718 0.338235
vt 0.616667 0.338235
vt 0.616667 0.308824
vt 0.580436 0.308824
vt 0.616667 0.338235
vt 0.580436 0.308824
vt 0.585718 0.338235
vt 0.616667 0.308824
vt 0.616667 0.264706
vt 0.572756 0.264706
vt 0.616667 0.308824
vt 0.572756 0.264706
vt 0.580436 0.308824
vt 0.616667 0.264706
vt 0.616667 0.235294
vt 0.570570 0.235294
vt 0.616667 0.264706
vt 0.570570 0.235294
vt 0.570263 0.250000
vt 0.616667 0.264706
vt 0.570263 0.250000
vt 0.572756 0.264706
vt 0.616667 0.235294
vt 0.616667 0.194853
vt 0.571396 0.194853
vt 0.616667 0.235294
vt 0.571396 0.194853
vt 0.570570 0.235294
vt 0.616667 0.194853
vt 0.616667 0.161765
vt 0.572050 0.161765
vt 0.616667 0.194853
vt 0.572050 0.161765
vt 0.571396 0.194853
vt 0.616667 0.161765
vt 0.616667 0.000500
vt 0.575000 0.000500
vt 0.616667 0.161765
vt 0.575000 0.000500
vt 0.572050 0.161765
vt 0.200000 0.500000
vt 0.200000 0.338235
vt 0.169051 0.338235
vt 0.200000 0.338235
vt 0.200000 0.308824
vt 0.163769 0.308824
vt 0.200000 0.338235
vt 0.163769 0.308824
vt 0.169051 0.338235
vt 0.200000 0.308824
vt 0.200000 0.264706
vt 0.156089 0.264706
vt 0.200000 0.308824
vt 0.156089 0.264706
vt 0.163769 0.308824
vt 0.200000 0.264706
vt 0.200000 0.235294
vt 0.151138 0.235294
vt 0.200000 0.264706
vt 0.151138 0.235294
vt 0.156089 0.264706
vt 0.200000 0.235294
vt 0.200000 0.194853
vt 0.144561 0.194853
vt 0.200000 0.235294
vt 0.144561 0.194853
vt 0.151138 0.235294
vt 0.200000 0.194853
vt 0.200000 0.161765
vt 0.139380 0.161765
vt 0.200000 0.194853
vt 0.139380 0.161765
vt 0.144561 0.194853
vt 0.200000 0.161765
vt 0.200000 0.000500
vt 0.116667 0.000500
vt 0.200000 0.161765
vt 0.116667 0.000500
vt 0.139380 0.161765
vt 0.783333 0.500000
vt 0.783333 0.338235
vt 0.752384 0.338235
vt 0.783333 0.338235
vt 0.783333 0.308824
vt 0.747103 0.308824
vt 0.783333 0.338235
vt 0.747103 0.308824
vt 0.752384 0.338235
vt 0.783333 0.308824
vt 0.783333 0.264706
vt 0.739422 0.264706
vt 0.783333 0.308824
vt 0.739422 0.264706
vt 0.747103 0.308824
vt 0.783333 0.264706
vt 0.783333 0.235294
vt 0.734472 0.235294
vt 0.783333 0.264706
vt 0.734472 0.235294
vt 0.739422 0.264706
vt 0.783333 0.235294
vt 0.783333 0.194853
vt 0.727894 0.194853
vt 0.783333 0.235294
vt 0.727894 0.194853
vt 0.734472 0.235294
vt 0.783333 0.194853
vt 0.783333 0.161765
vt 0.722714 0.161765
vt 0.783333 0.194853
vt 0.722714 0.161765
vt 0.727894 0.194853
vt 0.783333 0.161765
vt 0.783333 0.000500
vt 0.700000 0.000500
vt 0.783333 0.161765
vt 0.700000 0.000500
vt 0.722714 0.161765
vt 0.317805 0.235294
vt 0.320263 0.250000
vt 0.320570 0.235294
vt 0.311227 0.194853
vt 0.317805 0.235294
vt 0.320570 0.235294
vt 0.311227 0.194853
vt 0.320570 0.235294
vt 0.321396 0.194853
vt 0.306047 0.161765
vt 0.311227 0.194853
vt 0.321396 0.194853
vt 0.306047 0.161765
vt 0.321396 0.194853
vt 0.322050 0.161765
vt 0.325000 0.000500
vt 0.283333 0.000500
vt 0.306047 0.161765
vt 0.325000 0.000500
vt 0.306047 0.161765
vt 0.322050 0.161765
vt 0.366667 0.500000
vt 0.366667 0.338235
vt 0.335718 0.338235
vt 0.366667 0.338235
vt 0.366667 0.308824
vt 0.330436 0.308824
vt 0.366667 0.338235
vt 0.330436 0.308824
vt 0.335718 0.338235
vt 0.366667 0.308824
vt 0.366667 0.264706
vt 0.322756 0.264706
vt 0.366667 0.308824
vt 0.322756 0.264706
vt 0.330436 0.308824
vt 0.366667 0.264706
vt 0.366667 0.235294
vt 0.320570 0.235294
vt 0.366667 0.264706
vt 0.320570 0.235294
vt 0.320263 0.250000
vt 0.366667 0.264706
vt 0.320263 0.250000
vt 0.322756 0.264706
vt 0.366667 0.235294
vt 0.366667 0.194853
vt 0.321396 0.194853
vt 0.366667 0.235294
vt 0.321396 0.194853
vt 0.320570 0.235294
vt 0.366667 0.194853
vt 0.366667 0.161765
vt 0.322050 0.161765
vt 0.366667 0.194853
vt 0.322050 0.161765
vt 0.321396 0.194853
vt 0.366667 0.161765
vt 0.366666 0.000500
vt 0.325000 0.000500
vt 0.366667 0.161765
vt 0.325000 0.000500
vt 0.322050 0.161765
vt 0.950000 0.500000
vt 0.950000 0.338235
vt 0.919051 0.338235
vt 0.950000 0.338235
vt 0.950000 0.308824
vt 0.913769 0.308824
vt 0.950000 0.338235
vt 0.913769 0.308824
vt 0.919051 0.338235
vt 0.950000 0.308824
vt 0.950000 0.264706
vt 0.906089 0.264706
vt 0.950000 0.308824
vt 0.906089 0.264706
vt 0.913769 0.308824
vt 0.950000 0.264706
vt 0.950000 0.235294
vt 0.901138 0.235294
vt 0.950000 0.264706
vt 0.901138 0.235294
vt 0.906089 0.264706
vt 0.950000 0.235294
vt 0.950000 0.194853
vt 0.894561 0.194853
vt 0.950000 0.235294
vt 0.894561 0.194853
vt 0.901138 0.235294
vt 0.950000 0.194853
vt 0.950000 0.161765
vt 0.889380 0.161765
vt 0.950000 0.194853
vt 0.889380 0.161765
vt 0.894561 0.194853
vt 0.950000 0.161765
vt 0.950000 0.000500
vt 0.866667 0.000500
vt 0.950000 0.161765
vt 0.866667 0.000500
vt 0.889380 0.161765
vt 0.067805 0.235294
vt 0.070263 0.250000
vt 0.070570 0.235294
vt 0.061227 0.194853
vt 0.067805 0.235294
vt 0.070570 0.235294
vt 0.061227 0.194853
vt 0.070570 0.235294
vt 0.071396 0.194853
vt 0.056047 0.161765
vt 0.061227 0.194853
vt 0.071396 0.194853
vt 0.056047 0.161765
vt 0.071396 0.194853
vt 0.072050 0.161765
vt 0.075000 0.000500
vt 0.033333 0.000500
vt 0.056047 0.161765
vt 0.075000 0.000500
vt 0.056047 0.161765
vt 0.072050 0.161765
vt 0.116667 0.500000
vt 0.116667 0.338235
vt 0.085718 0.338235
vt 0.116667 0.338235
vt 0.116667 0.308824
vt 0.080436 0.308824
vt 0.116667 0.338235
vt 0.080436 0.308824
vt 0.085718 0.338235
vt 0.116667 0.308824
vt 0.116667 0.264706
vt 0.072756 0.264706
vt 0.116667 0.308824
vt 0.072756 0.264706
vt 0.080436 0.308824
vt 0.116667 0.264706
vt 0.116667 0.235294
vt 0.070570 0.235294
vt 0.116667 0.264706
vt 0.070570 0.235294
vt 0.070263 0.250000
vt 0.116667 0.264706
vt 0.070263 0.250000
vt 0.072756 0.264706
vt 0.116667 0.235294
vt 0.116667 0.194853
vt 0.071396 0.194853
vt 0.116667 0.235294
vt 0.071396 0.194853
vt 0.070570 0.235294
vt 0.116667 0.194853
vt 0.116667 0.161765
vt 0.072050 0.161765
vt 0.116667 0.194853
vt 0.072050 0.161765
vt 0.071396 0.194853
vt 0.116667 0.161765
vt 0.116667 0.000500
vt 0.075000 0.000500
vt 0.116667 0.161765
vt 0.075000 0.000500
vt 0.072050 0.161765
vt 0.450000 0.500000
vt 0.450000 0.338235
vt 0.419051 0.338235
vt 0.450000 0.338235
vt 0.450000 0.308824
vt 0.413769 0.308824
vt 0.450000 0.338235
vt 0.413769 0.308824
vt 0.419051 0.338235
vt 0.450000 0.308824
vt 0.450000 0.264706
vt 0.406089 0.264706
vt 0.450000 0.308824
vt 0.406089 0.264706
vt 0.413769 0.308824
vt 0.450000 0.264706
vt 0.450000 0.235294
vt 0.401138 0.235294
vt 0.450000 0.264706
vt 0.401138 0.235294
vt 0.406089 0.264706
vt 0.450000 0.235294
vt 0.450000 0.194853
vt 0.394561 0.194853
vt 0.450000 0.235294
vt 0.394561 0.194853
vt 0.401138 0.235294
vt 0.450000 0.194853
vt 0.450000 0.161765
vt 0.389380 0.161765
vt 0.450000 0.194853
vt 0.389380 0.161765
vt 0.394561 0.194853
vt 0.450000 0.161765
vt 0.450000 0.000500
vt 0.366666 0.000500
vt 0.450000 0.161765
vt 0.366666 0.000500
vt 0.389380 0.161765
vt 0.700000 0.500000
vt 0.700000 0.338235
vt 0.669051 0.338235
vt 0.700000 0.338235
vt 0.700000 0.308824
vt 0.663769 0.308824
vt 0.700000 0.338235
vt 0.663769 0.308824
vt 0.669051 0.338235
vt 0.700000 0.308824
vt 0.700000 0.264706
vt 0.656089 0.264706
vt 0.700000 0.308824
vt 0.656089 0.264706
vt 0.663769 0.308824
vt 0.700000 0.264706
vt 0.700000 0.235294
vt 0.651138 0.235294
vt 0.700000 0.264706
vt 0.651138 0.235294
vt 0.656089 0.264706
vt 0.700000 0.235294
vt 0.700000 0.194853
vt 0.644561 0.194853
vt 0.700000 0.235294
vt 0.644561 0.194853
vt 0.651138 0.235294
vt 0.700000 0.194853
vt 0.700000 0.161765
vt 0.639380 0.161765
vt 0.700000 0.194853
vt 0.639380 0.161765
vt 0.644561 0.194853
vt 0.700000 0.161765
vt 0.700000 0.000500
vt 0.616667 0.000500
vt 0.700000 0.161765
vt 0.616667 0.000500
vt 0.639380 0.161765
vt 0.200000 0.500000
vt 0.283333 0.500000
vt 0.283333 0.338235
vt 0.200000 0.500000
vt 0.283333 0.338235
vt 0.230949 0.338235
vt 0.283333 0.338235
vt 0.283333 0.308824
vt 0.236231 0.308824
vt 0.283333 0.338235
vt 0.236231 0.308824
vt 0.230949 0.338235
vt 0.283333 0.308824
vt 0.283333 0.264706
vt 0.243911 0.264706
vt 0.283333 0.308824
vt 0.243911 0.264706
vt 0.236231 0.308824
vt 0.283333 0.264706
vt 0.283333 0.235294
vt 0.248862 0.235294
vt 0.283333 0.264706
vt 0.248862 0.235294
vt 0.243911 0.264706
vt 0.283333 0.235294
vt 0.283333 0.194853
vt 0.255439 0.194853
vt 0.283333 0.235294
vt 0.255439 0.194853
vt 0.248862 0.235294
vt 0.283333 0.194853
vt 0.283333 0.161765
vt 0.260619 0.161765
vt 0.283333 0.194853
vt 0.260619 0.161765
vt 0.255439 0.194853
vt 0.283333 0.161765
vt 0.283333 0.000500
vt 0.260619 0.161765
vt 0.817805 0.235294
vt 0.820263 0.250000
vt 0.820570 0.235294
vt 0.811227 0.194853
vt 0.817805 0.235294
vt 0.820570 0.235294
vt 0.811227 0.194853
vt 0.820570 0.235294
vt 0.821396 0.194853
vt 0.806047 0.161765
vt 0.811227 0.194853
vt 0.821396 0.194853
vt 0.806047 0.161765
vt 0.821396 0.194853
vt 0.822050 0.161765
vt 0.825000 0.000500
vt 0.783333 0.000500
vt 0.806047 0.161765
vt 0.825000 0.000500
vt 0.806047 0.161765
vt 0.822050 0.161765
vt 0.866667 0.500000
vt 0.866667 0.338235
vt 0.835718 0.338235
vt 0.866667 0.338235
vt 0.866667 0.308824
vt 0.830436 0.308824
vt 0.866667 0.338235
vt 0.830436 0.308824
vt 0.835718 0.338235
vt 0.866667 0.308824
vt 0.866667 0.264706
vt 0.822756 0.264706
vt 0.866667 0.308824
vt 0.822756 0.264706
vt 0.830436 0.308824
vt 0.866667 0.264706
vt 0.866667 0.235294
vt 0.820570 0.235294
vt 0.866667 0.264706
vt 0.820570 0.235294
vt 0.820263 0.250000
vt 0.866667 0.264706
vt 0.820263 0.250000
vt 0.822756 0.264706
vt 0.866667 0.235294
vt 0.866667 0.194853
vt 0.821396 0.194853
vt 0.866667 0.235294
vt 0.821396 0.194853
vt 0.820570 0.235294
vt 0.866667 0.194853
vt 0.866667 0.161765
vt 0.822050 0.161765
vt 0.866667 0.194853
vt 0.822050 0.161765
vt 0.821396 0.194853
vt 0.866667 0.161765
vt 0.866667 0.000500
vt 0.825000 0.000500
vt 0.866667 0.161765
vt 0.825000 0.000500
vt 0.822050 0.161765
vt 0.450000 0.338235
vt 0.450000 0.500000
vt 0.480949 0.338235
vt 0.450000 0.308824
vt 0.450000 0.338235
vt 0.480949 0.338235
vt 0.450000 0.308824
vt 0.480949 0.338235
vt 0.486231 0.308824
vt 0.450000 0.264706
vt 0.450000 0.308824
vt 0.486231 0.308824
vt 0.450000 0.264706
vt 0.486231 0.308824
vt 0.493911 0.264706
vt 0.450000 0.235294
vt 0.450000 0.264706
vt 0.493911 0.264706
vt 0.450000 0.235294
vt 0.493911 0.264706
vt 0.498862 0.235294
vt 0.450000 0.194853
vt 0.450000 0.235294
vt 0.498862 0.235294
vt 0.450000 0.194853
vt 0.498862 0.235294
vt 0.505439 0.194853
vt 0.450000 0.161765
vt 0.450000 0.194853
vt 0.505439 0.194853
vt 0.450000 0.161765
vt 0.505439 0.194853
vt 0.510620 0.161765
vt 0.450000 0.000500
vt 0.450000 0.161765
vt 0.510620 0.161765
vt 0.450000 0.000500
vt 0.510620 0.161765
vt 0.533333 0.000500
vt 0.366666 0.000500
vt 0.450000 0.000500
vt 0.533333 0.000500
vt 0.533333 0.000500
vt 0.616667 0.000500
vt 0.700000 0.000500
vt 0.700000 0.000500
vt 0.783333 0.000500
vt 0.866667 0.000500
vt 0.866667 0.000500
vt 0.950000 0.000500
vt 1.033333 0.000500
vt 0.033333 0.000500
vt 0.116667 0.000500
vt 0.200000 0.000500
vt 0.200000 0.000500
vt 0.283333 0.000500
vt 0.366666 0.000500
vt 0.366666 0.000500
vt 0.533333 0.000500
vt 0.700000 0.000500
vt 0.700000 0.000500
vt 0.866667 0.000500
vt 1.033333 0.000500
vt 1.033333 0.000500
vt 1.200000 0.000500
vt 0.700000 0.000500
vt 0.950000 0.500000
vt 1.033333 0.500000
vt 1.002384 0.338235
vt 0.950000 0.500000
vt 1.002384 0.338235
vt 0.950000 0.338235
vt 1.002384 0.338235
vt 0.997103 0.308824
vt 0.950000 0.308824
vt 1.002384 0.338235
vt 0.950000 0.308824
vt 0.950000 0.338235
vt 0.997103 0.308824
vt 0.989422 0.264706
vt 0.950000 0.264706
vt 0.997103 0.308824
vt 0.950000 0.264706
vt 0.950000 0.308824
vt 0.989422 0.264706
vt 0.984472 0.235294
vt 0.950000 0.235294
vt 0.989422 0.264706
vt 0.950000 0.235294
vt 0.950000 0.264706
vt 0.984472 0.235294
vt 0.977894 0.194853
vt 0.950000 0.194853
vt 0.984472 0.235294
vt 0.950000 0.194853
vt 0.950000 0.235294
vt 0.977894 0.194853
vt 0.972714 0.161765
vt 0.950000 0.161765
vt 0.977894 0.194853
vt 0.950000 0.161765
vt 0.950000 0.194853
vt 0.972714 0.161765
vt 0.950000 0.000500
vt 0.950000 0.161765
vt 0.533333 0.500000
vt 0.575000 0.500000
vt 0.571809 0.338235
vt 0.533333 0.500000
vt 0.571809 0.338235
vt 0.533333 0.338235
vt 0.571809 0.338235
vt 0.571280 0.308824
vt 0.533333 0.308824
vt 0.571809 0.338235
vt 0.533333 0.308824
vt 0.533333 0.338235
vt 0.571280 0.308824
vt 0.570512 0.264706
vt 0.533333 0.264706
vt 0.571280 0.308824
vt 0.533333 0.264706
vt 0.533333 0.308824
vt 0.570512 0.264706
vt 0.570263 0.250000
vt 0.567805 0.235294
vt 0.570512 0.264706
vt 0.567805 0.235294
vt 0.533333 0.235294
vt 0.570512 0.264706
vt 0.533333 0.235294
vt 0.533333 0.264706
vt 0.567805 0.235294
vt 0.561227 0.194853
vt 0.533333 0.194853
vt 0.567805 0.235294
vt 0.533333 0.194853
vt 0.533333 0.235294
vt 0.561227 0.194853
vt 0.556047 0.161765
vt 0.533333 0.161765
vt 0.561227 0.194853
vt 0.533333 0.161765
vt 0.533333 0.194853
vt 0.556047 0.161765
vt 0.533333 0.000500
vt 0.533333 0.161765
vt 0.575000 0.500000
vt 0.616667 0.500000
vt 0.585718 0.338235
vt 0.575000 0.500000
vt 0.585718 0.338235
vt 0.571809 0.338235
vt 0.585718 0.338235
vt 0.580436 0.308824
vt 0.571280 0.308824
vt 0.585718 0.338235
vt 0.571280 0.308824
vt 0.571809 0.338235
vt 0.580436 0.308824
vt 0.572756 0.264706
vt 0.570512 0.264706
vt 0.580436 0.308824
vt 0.570512 0.264706
vt 0.571280 0.308824
vt 0.572756 0.264706
vt 0.570263 0.250000
vt 0.570512 0.264706
vt 0.116667 0.500000
vt 0.200000 0.500000
vt 0.169051 0.338235
vt 0.116667 0.500000
vt 0.169051 0.338235
vt 0.116667 0.338235
vt 0.169051 0.338235
vt 0.163769 0.308824
vt 0.116667 0.308824
vt 0.169051 0.338235
vt 0.116667 0.308824
vt 0.116667 0.338235
vt 0.163769 0.308824
vt 0.156089 0.264706
vt 0.116667 0.264706
vt 0.163769 0.308824
vt 0.116667 0.264706
vt 0.116667 0.308824
vt 0.156089 0.264706
vt 0.151138 0.235294
vt 0.116667 0.235294
vt 0.156089 0.264706
vt 0.116667 0.235294
vt 0.116667 0.264706
vt 0.151138 0.235294
vt 0.144561 0.194853
vt 0.116667 0.194853
vt 0.151138 0.235294
vt 0.116667 0.194853
vt 0.116667 0.235294
vt 0.144561 0.194853
vt 0.139380 0.161765
vt 0.116667 0.161765
vt 0.144561 0.194853
vt 0.116667 0.161765
vt 0.116667 0.194853
vt 0.139380 0.161765
vt 0.116667 0.000500
vt 0.116667 0.161765
vt 0.700000 0.500000
vt 0.783333 0.500000
vt 0.752384 0.338235
vt 0.700000 0.500000
vt 0.752384 0.338235
vt 0.700000 0.338235
vt 0.752384 0.338235
vt 0.747103 0.308824
vt 0.700000 0.308824
vt 0.752384 0.338235
vt 0.700000 0.308824
vt 0.700000 0.338235
vt 0.747103 0.308824
vt 0.739422 0.264706
vt 0.700000 0.264706
vt 0.747103 0.308824
vt 0.700000 0.264706
vt 0.700000 0.308824
vt 0.739422 0.264706
vt 0.734472 0.235294
vt 0.700000 0.235294
vt 0.739422 0.264706
vt 0.700000 0.235294
vt 0.700000 0.264706
vt 0.734472 0.235294
vt 0.727894 0.194853
vt 0.700000 0.194853
vt 0.734472 0.235294
vt 0.700000 0.194853
vt 0.700000 0.235294
vt 0.727894 0.194853
vt 0.722714 0.161765
vt 0.700000 0.161765
vt 0.727894 0.194853
vt 0.700000 0.161765
vt 0.700000 0.194853
vt 0.722714 0.161765
vt 0.700000 0.000500
vt 0.700000 0.161765
vt 0.283333 0.500000
vt 0.325000 0.500000
vt 0.321809 0.338235
vt 0.283333 0.500000
vt 0.321809 0.338235
vt 0.283333 0.338235
vt 0.321809 0.338235
vt 0.321280 0.308824
vt 0.283333 0.308824
vt 0.321809 0.338235
vt 0.283333 0.308824
vt 0.283333 0.338235
vt 0.321280 0.308824
vt 0.320512 0.264706
vt 0.283333 0.264706
vt 0.321280 0.308824
vt 0.283333 0.264706
vt 0.283333 0.308824
vt 0.320512 0.264706
vt 0.320263 0.250000
vt 0.317805 0.235294
vt 0.320512 0.264706
vt 0.317805 0.235294
vt 0.283333 0.235294
vt 0.320512 0.264706
vt 0.283333 0.235294
vt 0.283333 0.264706
vt 0.317805 0.235294
vt 0.311227 0.194853
vt 0.283333 0.194853
vt 0.317805 0.235294
vt 0.283333 0.194853
vt 0.283333 0.235294
vt 0.311227 0.194853
vt 0.306047 0.161765
vt 0.283333 0.161765
vt 0.311227 0.194853
vt 0.283333 0.161765
vt 0.283333 0.194853
vt 0.306047 0.161765
vt 0.283333 0.000500
vt 0.283333 0.161765
vt 0.325000 0.500000
vt 0.366667 0.500000
vt 0.335718 0.338235
vt 0.325000 0.500000
vt 0.335718 0.338235
vt 0.321809 0.338235
vt 0.335718 0.338235
vt 0.330436 0.308824
vt 0.321280 0.308824
vt 0.335718 0.338235
vt 0.321280 0.308824
vt 0.321809 0.338235
vt 0.330436 0.308824
vt 0.322756 0.264706
vt 0.320512 0.264706
vt 0.330436 0.308824
vt 0.320512 0.264706
vt 0.321280 0.308824
vt 0.322756 0.264706
vt 0.320263 0.250000
vt 0.320512 0.264706
vt 0.866667 0.500000
vt 0.950000 0.500000
vt 0.919051 0.338235
vt 0.866667 0.500000
vt 0.919051 0.338235
vt 0.866667 0.338235
vt 0.919051 0.338235
vt 0.913769 0.308824
vt 0.866667 0.308824
vt 0.919051 0.338235
vt 0.866667 0.308824
vt 0.866667 0.338235
vt 0.913769 0.308824
vt 0.906089 0.264706
vt 0.866667 0.264706
vt 0.913769 0.308824
vt 0.866667 0.264706
vt 0.866667 0.308824
vt 0.906089 0.264706
vt 0.901138 0.235294
vt 0.866667 0.235294
vt 0.906089 0.264706
vt 0.866667 0.235294
vt 0.866667 0.264706
vt 0.901138 0.235294
vt 0.894561 0.194853
vt 0.866667 0.194853
vt 0.901138 0.235294
vt 0.866667 0.194853
vt 0.866667 0.235294
vt 0.894561 0.194853
vt 0.889380 0.161765
vt 0.866667 0.161765
vt 0.894561 0.194853
vt 0.866667 0.161765
vt 0.866667 0.194853
vt 0.889380 0.161765
vt 0.866667 0.000500
vt 0.866667 0.161765
vt 0.033333 0.500000
vt 0.075000 0.500000
vt 0.071809 0.338235
vt 0.033333 0.500000
vt 0.071809 0.338235
vt 0.033333 0.338235
vt 0.071809 0.338235
vt 0.071280 0.308824
vt 0.033333 0.308824
vt 0.071809 0.338235
vt 0.033333 0.308824
vt 0.033333 0.338235
vt 0.071280 0.308824
vt 0.070512 0.264706
vt 0.033333 0.264706
vt 0.071280 0.308824
vt 0.033333 0.264706
vt 0.033333 0.308824
vt 0.070512 0.264706
vt 0.070263 0.250000
vt 0.067805 0.235294
vt 0.070512 0.264706
vt 0.067805 0.235294
vt 0.033333 0.235294
vt 0.070512 0.264706
vt 0.033333 0.235294
vt 0.033333 0.264706
vt 0.067805 0.235294
vt 0.061227 0.194853
vt 0.033333 0.194853
vt 0.067805 0.235294
vt 0.033333 0.194853
vt 0.033333 0.235294
vt 0.061227 0.194853
vt 0.056047 0.161765
vt 0.033333 0.161765
vt 0.061227 0.194853
vt 0.033333 0.161765
vt 0.033333 0.194853
vt 0.056047 0.161765
vt 0.033333 0.000500
vt 0.033333 0.161765
vt 0.075000 0.500000
vt 0.116667 0.500000
vt 0.085718 0.338235
vt 0.075000 0.500000
vt 0.085718 0.338235
vt 0.071809 0.338235
vt 0.085718 0.338235
vt 0.080436 0.308824
vt 0.071280 0.308824
vt 0.085718 0.338235
vt 0.071280 0.308824
vt 0.071809 0.338235
vt 0.080436 0.308824
vt 0.072756 0.264706
vt 0.070512 0.264706
vt 0.080436 0.308824
vt 0.070512 0.264706
vt 0.071280 0.308824
vt 0.072756 0.264706
vt 0.070263 0.250000
vt 0.070512 0.264706
vt 0.366667 0.500000
vt 0.450000 0.500000
vt 0.419051 0.338235
vt 0.366667 0.500000
vt 0.419051 0.338235
vt 0.366667 0.338235
vt 0.419051 0.338235
vt 0.413769 0.308824
vt 0.366667 0.308824
vt 0.419051 0.338235
vt 0.366667 0.308824
vt 0.366667 0.338235
vt 0.413769 0.308824
vt 0.406089 0.264706
vt 0.366667 0.264706
vt 0.413769 0.308824
vt 0.366667 0.264706
vt 0.366667 0.308824
vt 0.406089 0.264706
vt 0.401138 0.235294
vt 0.366667 0.235294
vt 0.406089 0.264706
vt 0.366667 0.235294
vt 0.366667 0.264706
vt 0.401138 0.235294
vt 0.394561 0.194853
vt 0.366667 0.194853
vt 0.401138 0.235294
vt 0.366667 0.194853
vt 0.366667 0.235294
vt 0.394561 0.194853
vt 0.389380 0.161765
vt 0.366667 0.161765
vt 0.394561 0.194853
vt 0.366667 0.161765
vt 0.366667 0.194853
vt 0.389380 0.161765
vt 0.366666 0.000500
vt 0.366667 0.161765
vt 0.616667 0.500000
vt 0.700000 0.500000
vt 0.669051 0.338235
vt 0.616667 0.500000
vt 0.669051 0.338235
vt 0.616667 0.338235
vt 0.669051 0.338235
vt 0.663769 0.308824
vt 0.616667 0.308824
vt 0.669051 0.338235
vt 0.616667 0.308824
vt 0.616667 0.338235
vt 0.663769 0.308824
vt 0.656089 0.264706
vt 0.616667 0.264706
vt 0.663769 0.308824
vt 0.616667 0.264706
vt 0.616667 0.308824
vt 0.656089 0.264706
vt 0.651138 0.235294
vt 0.616667 0.235294
vt 0.656089 0.264706
vt 0.616667 0.235294
vt 0.616667 0.264706
vt 0.651138 0.235294
vt 0.644561 0.194853
vt 0.616667 0.194853
vt 0.651138 0.235294
vt 0.616667 0.194853
vt 0.616667 0.235294
vt 0.644561 0.194853
vt 0.639380 0.161765
vt 0.616667 0.161765
vt 0.644561 0.194853
vt 0.616667 0.161765
vt 0.616667 0.194853
vt 0.639380 0.161765
vt 0.616667 0.000500
vt 0.616667 0.161765
vt 0.200000 0.338235
vt 0.200000 0.500000
vt 0.230949 0.338235
vt 0.200000 0.308824
vt 0.200000 0.338235
vt 0.230949 0.338235
vt 0.200000 0.308824
vt 0.230949 0.338235
vt 0.236231 0.308824
vt 0.200000 0.264706
vt 0.200000 0.308824
vt 0.236231 0.308824
vt 0.200000 0.264706
vt 0.236231 0.308824
vt 0.243911 0.264706
vt 0.200000 0.235294
vt 0.200000 0.264706
vt 0.243911 0.264706
vt 0.200000 0.235294
vt 0.243911 0.264706
vt 0.248862 0.235294
vt 0.200000 0.194853
vt 0.200000 0.235294
vt 0.248862 0.235294
vt 0.200000 0.194853
vt 0.248862 0.235294
vt 0.255439 0.194853
vt 0.200000 0.161765
vt 0.200000 0.194853
vt 0.255439 0.194853
vt 0.200000 0.161765
vt 0.255439 0.194853
vt 0.260619 0.161765
vt 0.200000 0.000500
vt 0.200000 0.161765
vt 0.260619 0.161765
vt 0.200000 0.000500
vt 0.260619 0.161765
vt 0.283333 0.000500
vt 0.783333 0.500000
vt 0.825000 0.500000
vt 0.821809 0.338235
vt 0.783333 0.500000
vt 0.821809 0.338235
vt 0.783333 0.338235
vt 0.821809 0.338235
vt 0.821280 0.308824
vt 0.783333 0.308824
vt 0.821809 0.338235
vt 0.783333 0.308824
vt 0.783333 0.338235
vt 0.821280 0.308824
vt 0.820512 0.264706
vt 0.783333 0.264706
vt 0.821280 0.308824
vt 0.783333 0.264706
vt 0.783333 0.308824
vt 0.820512 0.264706
vt 0.820263 0.250000
vt 0.817805 0.235294
vt 0.820512 0.264706
vt 0.817805 0.235294
vt 0.783333 0.235294
vt 0.820512 0.264706
vt 0.783333 0.235294
vt 0.783333 0.264706
vt 0.817805 0.235294
vt 0.811227 0.194853
vt 0.783333 0.194853
vt 0.817805 0.235294
vt 0.783333 0.194853
vt 0.783333 0.235294
vt 0.811227 0.194853
vt 0.806047 0.161765
vt 0.783333 0.161765
vt 0.811227 0.194853
vt 0.783333 0.161765
vt 0.783333 0.194853
vt 0.806047 0.161765
vt 0.783333 0.000500
vt 0.783333 0.161765
vt 0.825000 0.500000
vt 0.866667 0.500000
vt 0.835718 0.338235
vt 0.825000 0.500000
vt 0.835718 0.338235
vt 0.821809 0.338235
vt 0.835718 0.338235
vt 0.830436 0.308824
vt 0.821280 0.308824
vt 0.835718 0.338235
vt 0.821280 0.308824
vt 0.821809 0.338235
vt 0.830436 0.308824
vt 0.822756 0.264706
vt 0.820512 0.264706
vt 0.830436 0.308824
vt 0.820512 0.264706
vt 0.821280 0.308824
vt 0.822756 0.264706
vt 0.820263 0.250000
vt 0.820512 0.264706
s off
f 1/1/1 2/2/1 3/3/1
f 2/4/1 4/5/1 3/6/1
f 5/7/2 2/8/2 6/9/2
f 7/10/3 2/11/3 1/12/3
f 8/13/4 2/14/4 7/15/4
f 9/16/5 2/17/5 10/18/5
f 2/19/5 8/20/5 10/21/5
f 11/22/6 2/23/6 9/24/6
f 12/25/7 2/26/7 11/27/7
f 13/28/8 2/29/8 14/30/8
f 2/31/8 12/32/8 14/33/8
f 15/34/9 2/35/9 13/36/9
f 16/37/10 2/38/10 15/39/10
f 4/40/11 2/41/11 5/42/11
f 6/43/12 2/44/12 17/45/12
f 2/46/12 16/47/12 17/48/12
f 5/49/13 6/50/13 18/51/13
f 5/52/13 18/53/13 19/54/13
f 18/55/13 20/56/13 21/57/13
f 18/58/13 21/59/13 19/60/13
f 20/61/13 22/62/13 23/63/13
f 20/64/13 23/65/13 21/66/13
f 22/67/13 24/68/13 25/69/13
f 22/70/13 25/71/13 23/72/13
f 24/73/13 26/74/13 27/75/13
f 24/76/13 27/77/13 25/78/13
f 26/79/13 28/80/13 29/81/13
f 26/82/13 29/83/13 27/84/13
f 28/85/13 30/86/13 29/87/13
f 31/88/14 32/89/14 33/90/14
f 9/91/15 34/92/15 35/93/15
f 34/94/15 36/95/15 37/96/15
f 34/97/15 37/98/15 35/99/15
f 36/100/15 38/101/15 39/102/15
f 36/103/15 39/104/15 37/105/15
f 38/106/15 40/107/15 41/108/15
f 38/109/15 41/110/15 39/111/15
f 40/112/15 42/113/15 43/114/15
f 40/115/15 43/116/15 41/117/15
f 42/118/15 44/119/15 45/120/15
f 42/121/15 45/122/15 43/123/15
f 44/124/15 46/125/15 47/126/15
f 44/127/15 47/128/15 45/129/15
f 48/130/16 49/131/16 50/132/16
f 51/133/16 48/134/16 50/135/16
f 51/136/16 50/137/16 52/138/16
f 53/139/16 51/140/16 52/141/16
f 53/142/16 52/143/16 54/144/16
f 55/145/16 30/146/16 53/147/16
f 55/148/16 53/149/16 54/150/16
f 16/151/16 56/152/16 57/153/16
f 56/154/16 58/155/16 59/156/16
f 56/157/16 59/158/16 57/159/16
f 58/160/16 60/161/16 61/162/16
f 58/163/16 61/164/16 59/165/16
f 60/166/16 62/167/16 50/168/16
f 60/169/16 50/170/16 49/171/16
f 60/172/16 49/173/16 61/174/16
f 62/175/16 63/176/16 52/177/16
f 62/178/16 52/179/16 50/180/16
f 63/181/16 64/182/16 54/183/16
f 63/184/16 54/185/16 52/186/16
f 64/187/16 65/188/16 55/189/16
f 64/190/16 55/191/16 54/192/16
f 7/193/17 66/194/17 67/195/17
f 66/196/17 68/197/17 69/198/17
f 66/199/17 69/200/17 67/201/17
f 68/202/17 70/203/17 71/204/17
f 68/205/17 71/206/17 69/207/17
f 70/208/17 72/209/17 73/210/17
f 70/211/17 73/212/17 71/213/17
f 72/214/17 74/215/17 75/216/17
f 72/217/17 75/218/17 73/219/17
f 74/220/17 76/221/17 77/222/17
f 74/223/17 77/224/17 75/225/17
f 76/226/17 32/227/17 78/228/17
f 76/229/17 78/230/17 77/231/17
f 13/232/18 79/233/18 80/234/18
f 79/235/18 81/236/18 82/237/18
f 79/238/18 82/239/18 80/240/18
f 81/241/18 83/242/18 84/243/18
f 81/244/18 84/245/18 82/246/18
f 83/247/18 85/248/18 86/249/18
f 83/250/18 86/251/18 84/252/18
f 85/253/18 87/254/18 88/255/18
f 85/256/18 88/257/18 86/258/18
f 87/259/18 89/260/18 90/261/18
f 87/262/18 90/263/18 88/264/18
f 89/265/18 91/266/18 31/267/18
f 89/268/18 31/269/18 90/270/18
f 92/271/19 93/272/19 94/273/19
f 95/274/19 92/275/19 94/276/19
f 95/277/19 94/278/19 96/279/19
f 97/280/19 95/281/19 96/282/19
f 97/283/19 96/284/19 98/285/19
f 99/286/19 100/287/19 97/288/19
f 99/289/19 97/290/19 98/291/19
f 4/292/19 101/293/19 102/294/19
f 101/295/19 103/296/19 104/297/19
f 101/298/19 104/299/19 102/300/19
f 103/301/19 105/302/19 106/303/19
f 103/304/19 106/305/19 104/306/19
f 105/307/19 107/308/19 94/309/19
f 105/310/19 94/311/19 93/312/19
f 105/313/19 93/314/19 106/315/19
f 107/316/19 108/317/19 96/318/19
f 107/319/19 96/320/19 94/321/19
f 108/322/19 109/323/19 98/324/19
f 108/325/19 98/326/19 96/327/19
f 109/328/19 33/329/19 99/330/19
f 109/331/19 99/332/19 98/333/19
f 11/334/20 110/335/20 111/336/20
f 110/337/20 112/338/20 113/339/20
f 110/340/20 113/341/20 111/342/20
f 112/343/20 114/344/20 115/345/20
f 112/346/20 115/347/20 113/348/20
f 114/349/20 116/350/20 117/351/20
f 114/352/20 117/353/20 115/354/20
f 116/355/20 118/356/20 119/357/20
f 116/358/20 119/359/20 117/360/20
f 118/361/20 120/362/20 121/363/20
f 118/364/20 121/365/20 119/366/20
f 120/367/20 47/368/20 122/369/20
f 120/370/20 122/371/20 121/372/20
f 123/373/21 124/374/21 125/375/21
f 126/376/21 123/377/21 125/378/21
f 126/379/21 125/380/21 127/381/21
f 128/382/21 126/383/21 127/384/21
f 128/385/21 127/386/21 129/387/21
f 130/388/21 46/389/21 128/390/21
f 130/391/21 128/392/21 129/393/21
f 8/394/21 131/395/21 132/396/21
f 131/397/21 133/398/21 134/399/21
f 131/400/21 134/401/21 132/402/21
f 133/403/21 135/404/21 136/405/21
f 133/406/21 136/407/21 134/408/21
f 135/409/21 137/410/21 125/411/21
f 135/412/21 125/413/21 124/414/21
f 135/415/21 124/416/21 136/417/21
f 137/418/21 138/419/21 127/420/21
f 137/421/21 127/422/21 125/423/21
f 138/424/21 139/425/21 129/426/21
f 138/427/21 129/428/21 127/429/21
f 139/430/21 78/431/21 130/432/21
f 139/433/21 130/434/21 129/435/21
f 5/436/22 140/437/22 141/438/22
f 140/439/22 142/440/22 143/441/22
f 140/442/22 143/443/22 141/444/22
f 142/445/22 144/446/22 145/447/22
f 142/448/22 145/449/22 143/450/22
f 144/451/22 146/452/22 147/453/22
f 144/454/22 147/455/22 145/456/22
f 146/457/22 148/458/22 149/459/22
f 146/460/22 149/461/22 147/462/22
f 148/463/22 150/464/22 151/465/22
f 148/466/22 151/467/22 149/468/22
f 150/469/22 152/470/22 33/471/22
f 150/472/22 33/473/22 151/474/22
f 15/475/23 153/476/23 154/477/23
f 153/478/23 155/479/23 156/480/23
f 153/481/23 156/482/23 154/483/23
f 155/484/23 157/485/23 158/486/23
f 155/487/23 158/488/23 156/489/23
f 157/490/23 159/491/23 160/492/23
f 157/493/23 160/494/23 158/495/23
f 159/496/23 161/497/23 162/498/23
f 159/499/23 162/500/23 160/501/23
f 161/502/23 163/503/23 164/504/23
f 161/505/23 164/506/23 162/507/23
f 163/508/23 31/509/23 65/510/23
f 163/511/23 65/512/23 164/513/23
f 7/514/24 1/515/24 165/516/24
f 7/517/24 165/518/24 166/519/24
f 165/520/24 167/521/24 168/522/24
f 165/523/24 168/524/24 166/525/24
f 167/526/24 169/527/24 170/528/24
f 167/529/24 170/530/24 168/531/24
f 169/532/24 171/533/24 172/534/24
f 169/535/24 172/536/24 170/537/24
f 171/538/24 173/539/24 174/540/24
f 171/541/24 174/542/24 172/543/24
f 173/544/24 175/545/24 176/546/24
f 173/547/24 176/548/24 174/549/24
f 175/550/24 100/551/24 176/552/24
f 177/553/25 178/554/25 179/555/25
f 180/556/25 177/557/25 179/558/25
f 180/559/25 179/560/25 181/561/25
f 182/562/25 180/563/25 181/564/25
f 182/565/25 181/566/25 183/567/25
f 184/568/25 91/569/25 182/570/25
f 184/571/25 182/572/25 183/573/25
f 12/574/25 185/575/25 186/576/25
f 185/577/25 187/578/25 188/579/25
f 185/580/25 188/581/25 186/582/25
f 187/583/25 189/584/25 190/585/25
f 187/586/25 190/587/25 188/588/25
f 189/589/25 191/590/25 179/591/25
f 189/592/25 179/593/25 178/594/25
f 189/595/25 178/596/25 190/597/25
f 191/598/25 192/599/25 181/600/25
f 191/601/25 181/602/25 179/603/25
f 192/604/25 193/605/25 183/606/25
f 192/607/25 183/608/25 181/609/25
f 193/610/25 122/611/25 184/612/25
f 193/613/25 184/614/25 183/615/25
f 140/616/13 5/617/13 19/618/13
f 142/619/13 140/620/13 19/621/13
f 142/622/13 19/623/13 21/624/13
f 144/625/13 142/626/13 21/627/13
f 144/628/13 21/629/13 23/630/13
f 146/631/13 144/632/13 23/633/13
f 146/634/13 23/635/13 25/636/13
f 148/637/13 146/638/13 25/639/13
f 148/640/13 25/641/13 27/642/13
f 150/643/13 148/644/13 27/645/13
f 150/646/13 27/647/13 29/648/13
f 152/649/13 150/650/13 29/651/13
f 152/652/13 29/653/13 30/654/13
f 33/655/14 152/656/14 30/657/14
f 30/658/14 65/659/14 31/660/14
f 31/661/14 91/662/14 122/663/14
f 122/664/14 47/665/14 46/666/14
f 46/667/14 78/668/14 32/669/14
f 32/670/14 100/671/14 33/672/14
f 33/673/14 30/674/14 31/675/14
f 31/676/14 122/677/14 46/678/14
f 46/679/14 32/680/14 31/681/14
f 11/682/15 9/683/15 35/684/15
f 11/685/15 35/686/15 110/687/15
f 35/688/15 37/689/15 112/690/15
f 35/691/15 112/692/15 110/693/15
f 37/694/15 39/695/15 114/696/15
f 37/697/15 114/698/15 112/699/15
f 39/700/15 41/701/15 116/702/15
f 39/703/15 116/704/15 114/705/15
f 41/706/15 43/707/15 118/708/15
f 41/709/15 118/710/15 116/711/15
f 43/712/15 45/713/15 120/714/15
f 43/715/15 120/716/15 118/717/15
f 45/718/15 47/719/15 120/720/15
f 6/721/16 17/722/16 194/723/16
f 6/724/16 194/725/16 18/726/16
f 194/727/16 195/728/16 20/729/16
f 194/730/16 20/731/16 18/732/16
f 195/733/16 196/734/16 22/735/16
f 195/736/16 22/737/16 20/738/16
f 196/739/16 49/740/16 48/741/16
f 196/742/16 48/743/16 24/744/16
f 196/745/16 24/746/16 22/747/16
f 48/748/16 51/749/16 26/750/16
f 48/751/16 26/752/16 24/753/16
f 51/754/16 53/755/16 28/756/16
f 51/757/16 28/758/16 26/759/16
f 53/760/16 30/761/16 28/762/16
f 17/763/16 16/764/16 57/765/16
f 17/766/16 57/767/16 194/768/16
f 57/769/16 59/770/16 195/771/16
f 57/772/16 195/773/16 194/774/16
f 59/775/16 61/776/16 196/777/16
f 59/778/16 196/779/16 195/780/16
f 61/781/16 49/782/16 196/783/16
f 8/784/17 7/785/17 67/786/17
f 8/787/17 67/788/17 131/789/17
f 67/790/17 69/791/17 133/792/17
f 67/793/17 133/794/17 131/795/17
f 69/796/17 71/797/17 135/798/17
f 69/799/17 135/800/17 133/801/17
f 71/802/17 73/803/17 137/804/17
f 71/805/17 137/806/17 135/807/17
f 73/808/17 75/809/17 138/810/17
f 73/811/17 138/812/17 137/813/17
f 75/814/17 77/815/17 139/816/17
f 75/817/17 139/818/17 138/819/17
f 77/820/17 78/821/17 139/822/17
f 15/823/18 13/824/18 80/825/18
f 15/826/18 80/827/18 153/828/18
f 80/829/18 82/830/18 155/831/18
f 80/832/18 155/833/18 153/834/18
f 82/835/18 84/836/18 157/837/18
f 82/838/18 157/839/18 155/840/18
f 84/841/18 86/842/18 159/843/18
f 84/844/18 159/845/18 157/846/18
f 86/847/18 88/848/18 161/849/18
f 86/850/18 161/851/18 159/852/18
f 88/853/18 90/854/18 163/855/18
f 88/856/18 163/857/18 161/858/18
f 90/859/18 31/860/18 163/861/18
f 1/862/19 3/863/19 197/864/19
f 1/865/19 197/866/19 165/867/19
f 197/868/19 198/869/19 167/870/19
f 197/871/19 167/872/19 165/873/19
f 198/874/19 199/875/19 169/876/19
f 198/877/19 169/878/19 167/879/19
f 199/880/19 93/881/19 92/882/19
f 199/883/19 92/884/19 171/885/19
f 199/886/19 171/887/19 169/888/19
f 92/889/19 95/890/19 173/891/19
f 92/892/19 173/893/19 171/894/19
f 95/895/19 97/896/19 175/897/19
f 95/898/19 175/899/19 173/900/19
f 97/901/19 100/902/19 175/903/19
f 3/904/19 4/905/19 102/906/19
f 3/907/19 102/908/19 197/909/19
f 102/910/19 104/911/19 198/912/19
f 102/913/19 198/914/19 197/915/19
f 104/916/19 106/917/19 199/918/19
f 104/919/19 199/920/19 198/921/19
f 106/922/19 93/923/19 199/924/19
f 12/925/20 11/926/20 111/927/20
f 12/928/20 111/929/20 185/930/20
f 111/931/20 113/932/20 187/933/20
f 111/934/20 187/935/20 185/936/20
f 113/937/20 115/938/20 189/939/20
f 113/940/20 189/941/20 187/942/20
f 115/943/20 117/944/20 191/945/20
f 115/946/20 191/947/20 189/948/20
f 117/949/20 119/950/20 192/951/20
f 117/952/20 192/953/20 191/954/20
f 119/955/20 121/956/20 193/957/20
f 119/958/20 193/959/20 192/960/20
f 121/961/20 122/962/20 193/963/20
f 9/964/21 10/965/21 200/966/21
f 9/967/21 200/968/21 34/969/21
f 200/970/21 201/971/21 36/972/21
f 200/973/21 36/974/21 34/975/21
f 201/976/21 202/977/21 38/978/21
f 201/979/21 38/980/21 36/981/21
f 202/982/21 124/983/21 123/984/21
f 202/985/21 123/986/21 40/987/21
f 202/988/21 40/989/21 38/990/21
f 123/991/21 126/992/21 42/993/21
f 123/994/21 42/995/21 40/996/21
f 126/997/21 128/998/21 44/999/21
f 126/1000/21 44/1001/21 42/1002/21
f 128/1003/21 46/1004/21 44/1005/21
f 10/1006/21 8/1007/21 132/1008/21
f 10/1009/21 132/1010/21 200/1011/21
f 132/1012/21 134/1013/21 201/1014/21
f 132/1015/21 201/1016/21 200/1017/21
f 134/1018/21 136/1019/21 202/1020/21
f 134/1021/21 202/1022/21 201/1023/21
f 136/1024/21 124/1025/21 202/1026/21
f 4/1027/22 5/1028/22 141/1029/22
f 4/1030/22 141/1031/22 101/1032/22
f 141/1033/22 143/1034/22 103/1035/22
f 141/1036/22 103/1037/22 101/1038/22
f 143/1039/22 145/1040/22 105/1041/22
f 143/1042/22 105/1043/22 103/1044/22
f 145/1045/22 147/1046/22 107/1047/22
f 145/1048/22 107/1049/22 105/1050/22
f 147/1051/22 149/1052/22 108/1053/22
f 147/1054/22 108/1055/22 107/1056/22
f 149/1057/22 151/1058/22 109/1059/22
f 149/1060/22 109/1061/22 108/1062/22
f 151/1063/22 33/1064/22 109/1065/22
f 16/1066/23 15/1067/23 154/1068/23
f 16/1069/23 154/1070/23 56/1071/23
f 154/1072/23 156/1073/23 58/1074/23
f 154/1075/23 58/1076/23 56/1077/23
f 156/1078/23 158/1079/23 60/1080/23
f 156/1081/23 60/1082/23 58/1083/23
f 158/1084/23 160/1085/23 62/1086/23
f 158/1087/23 62/1088/23 60/1089/23
f 160/1090/23 162/1091/23 63/1092/23
f 160/1093/23 63/1094/23 62/1095/23
f 162/1096/23 164/1097/23 64/1098/23
f 162/1099/23 64/1100/23 63/1101/23
f 164/1102/23 65/1103/23 64/1104/23
f 66/1105/24 7/1106/24 166/1107/24
f 68/1108/24 66/1109/24 166/1110/24
f 68/1111/24 166/1112/24 168/1113/24
f 70/1114/24 68/1115/24 168/1116/24
f 70/1117/24 168/1118/24 170/1119/24
f 72/1120/24 70/1121/24 170/1122/24
f 72/1123/24 170/1124/24 172/1125/24
f 74/1126/24 72/1127/24 172/1128/24
f 74/1129/24 172/1130/24 174/1131/24
f 76/1132/24 74/1133/24 174/1134/24
f 76/1135/24 174/1136/24 176/1137/24
f 32/1138/24 76/1139/24 176/1140/24
f 32/1141/24 176/1142/24 100/1143/24
f 13/1144/25 14/1145/25 203/1146/25
f 13/1147/25 203/1148/25 79/1149/25
f 203/1150/25 204/1151/25 81/1152/25
f 203/1153/25 81/1154/25 79/1155/25
f 204/1156/25 205/1157/25 83/1158/25
f 204/1159/25 83/1160/25 81/1161/25
f 205/1162/25 178/1163/25 177/1164/25
f 205/1165/25 177/1166/25 85/1167/25
f 205/1168/25 85/1169/25 83/1170/25
f 177/1171/25 180/1172/25 87/1173/25
f 177/1174/25 87/1175/25 85/1176/25
f 180/1177/25 182/1178/25 89/1179/25
f 180/1180/25 89/1181/25 87/1182/25
f 182/1183/25 91/1184/25 89/1185/25
f 14/1186/25 12/1187/25 186/1188/25
f 14/1189/25 186/1190/25 203/1191/25
f 186/1192/25 188/1193/25 204/1194/25
f 186/1195/25 204/1196/25 203/1197/25
f 188/1198/25 190/1199/25 205/1200/25
f 188/1201/25 205/1202/25 204/1203/25
f 190/1204/25 178/1205/25 205/1206/25
