<svg xmlns="http://www.w3.org/2000/svg" width="2048" height="1024" viewBox="0 0 2048 1024">
<title>American flag missile paint: 50 stars and 13 stripes</title>
<defs><polygon id="star" fill="#F4F2EB" points="0.000000,-26.000000 5.837364,-8.034442 24.727469,-8.034442 9.445053,3.068884 15.282417,21.034442 0.000000,9.931116 -15.282417,21.034442 -9.445053,3.068884 -24.727469,-8.034442 -5.837364,-8.034442"/></defs>
<rect x="0" y="0" width="2048" height="1024" fill="#B22234"/>
<rect x="0" y="0.000000" width="2048" height="78.770231" fill="#B22234"/>
<rect x="0" y="78.769231" width="2048" height="78.770231" fill="#F4F2EB"/>
<rect x="0" y="157.538462" width="2048" height="78.770231" fill="#B22234"/>
<rect x="0" y="236.307692" width="2048" height="78.770231" fill="#F4F2EB"/>
<rect x="0" y="315.076923" width="2048" height="78.770231" fill="#B22234"/>
<rect x="0" y="393.846154" width="2048" height="78.770231" fill="#F4F2EB"/>
<rect x="0" y="472.615385" width="2048" height="78.770231" fill="#B22234"/>
<rect x="0" y="551.384615" width="2048" height="78.770231" fill="#F4F2EB"/>
<rect x="0" y="630.153846" width="2048" height="78.770231" fill="#B22234"/>
<rect x="0" y="708.923077" width="2048" height="78.770231" fill="#F4F2EB"/>
<rect x="0" y="787.692308" width="2048" height="78.770231" fill="#B22234"/>
<rect x="0" y="866.461538" width="2048" height="78.770231" fill="#F4F2EB"/>
<rect x="0" y="945.230769" width="2048" height="78.770231" fill="#B22234"/>
<rect x="0" y="0" width="819.200000" height="551.384615" fill="#002B5C"/>
<use href="#star" transform="translate(68.266667 55.138462)"/>
<use href="#star" transform="translate(204.800000 55.138462)"/>
<use href="#star" transform="translate(341.333333 55.138462)"/>
<use href="#star" transform="translate(477.866667 55.138462)"/>
<use href="#star" transform="translate(614.400000 55.138462)"/>
<use href="#star" transform="translate(750.933333 55.138462)"/>
<use href="#star" transform="translate(136.533333 110.276923)"/>
<use href="#star" transform="translate(273.066667 110.276923)"/>
<use href="#star" transform="translate(409.600000 110.276923)"/>
<use href="#star" transform="translate(546.133333 110.276923)"/>
<use href="#star" transform="translate(682.666667 110.276923)"/>
<use href="#star" transform="translate(68.266667 165.415385)"/>
<use href="#star" transform="translate(204.800000 165.415385)"/>
<use href="#star" transform="translate(341.333333 165.415385)"/>
<use href="#star" transform="translate(477.866667 165.415385)"/>
<use href="#star" transform="translate(614.400000 165.415385)"/>
<use href="#star" transform="translate(750.933333 165.415385)"/>
<use href="#star" transform="translate(136.533333 220.553846)"/>
<use href="#star" transform="translate(273.066667 220.553846)"/>
<use href="#star" transform="translate(409.600000 220.553846)"/>
<use href="#star" transform="translate(546.133333 220.553846)"/>
<use href="#star" transform="translate(682.666667 220.553846)"/>
<use href="#star" transform="translate(68.266667 275.692308)"/>
<use href="#star" transform="translate(204.800000 275.692308)"/>
<use href="#star" transform="translate(341.333333 275.692308)"/>
<use href="#star" transform="translate(477.866667 275.692308)"/>
<use href="#star" transform="translate(614.400000 275.692308)"/>
<use href="#star" transform="translate(750.933333 275.692308)"/>
<use href="#star" transform="translate(136.533333 330.830769)"/>
<use href="#star" transform="translate(273.066667 330.830769)"/>
<use href="#star" transform="translate(409.600000 330.830769)"/>
<use href="#star" transform="translate(546.133333 330.830769)"/>
<use href="#star" transform="translate(682.666667 330.830769)"/>
<use href="#star" transform="translate(68.266667 385.969231)"/>
<use href="#star" transform="translate(204.800000 385.969231)"/>
<use href="#star" transform="translate(341.333333 385.969231)"/>
<use href="#star" transform="translate(477.866667 385.969231)"/>
<use href="#star" transform="translate(614.400000 385.969231)"/>
<use href="#star" transform="translate(750.933333 385.969231)"/>
<use href="#star" transform="translate(136.533333 441.107692)"/>
<use href="#star" transform="translate(273.066667 441.107692)"/>
<use href="#star" transform="translate(409.600000 441.107692)"/>
<use href="#star" transform="translate(546.133333 441.107692)"/>
<use href="#star" transform="translate(682.666667 441.107692)"/>
<use href="#star" transform="translate(68.266667 496.246154)"/>
<use href="#star" transform="translate(204.800000 496.246154)"/>
<use href="#star" transform="translate(341.333333 496.246154)"/>
<use href="#star" transform="translate(477.866667 496.246154)"/>
<use href="#star" transform="translate(614.400000 496.246154)"/>
<use href="#star" transform="translate(750.933333 496.246154)"/>
</svg>
